<?xml version="1.0" encoding="UTF-8"?>
<svg xmlns="http://www.w3.org/2000/svg" xmlns:xlink="http://www.w3.org/1999/xlink" width="773.97946" height="419.08428" viewBox="0 0 400 340" version="1.1">
<defs>
<filter id="alpha" filterUnits="objectBoundingBox" x="0%" y="0%" width="100%" height="100%">
  <feColorMatrix type="matrix" in="SourceGraphic" values="0 0 0 0 1 0 0 0 0 1 0 0 0 0 1 0 0 0 1 0"/>
</filter>
<mask id="mask0">
  <g filter="url(#alpha)">
<rect x="0" y="0" width="400" height="340" style="fill:rgb(0%,0%,0%);fill-opacity:0.2;stroke:none;"/>
  </g>
</mask>
<clipPath id="clip1">
  <rect x="0" y="0" width="401" height="340"/>
</clipPath>
<g id="surface5" clip-path="url(#clip1)">
<path style=" stroke:none;fill-rule:nonzero;fill:rgb(0%,0%,0%);fill-opacity:1;" d="M 361.394531 140.273438 C 361.351562 141.195312 361.160156 142.105469 360.832031 142.964844 L 356.8125 147.632812 C 356.296875 147.921875 355.753906 148.160156 355.1875 148.339844 L 350.304688 149.121094 L 357.371094 135.851562 L 341.839844 101.898438 Z M 361.394531 140.273438 "/>
</g>
<mask id="mask1">
  <g filter="url(#alpha)">
<rect x="0" y="0" width="400" height="340" style="fill:rgb(0%,0%,0%);fill-opacity:0.501961;stroke:none;"/>
  </g>
</mask>
<clipPath id="clip2">
  <rect x="0" y="0" width="401" height="340"/>
</clipPath>
<g id="surface8" clip-path="url(#clip2)">
<path style=" stroke:none;fill-rule:nonzero;fill:rgb(42.352941%,38.823529%,100%);fill-opacity:1;" d="M 221.992188 309.3125 L 145.878906 309.3125 L 157.945312 227.828125 L 158.273438 225.582031 L 163.300781 191.660156 C 163.605469 189.589844 165.992188 191.195312 167.675781 189.957031 C 178.148438 182.253906 188.746094 182.03125 199.433594 189.453125 C 201.085938 190.601562 203.371094 189.257812 203.675781 191.246094 L 208.957031 225.269531 L 209.46875 228.5625 Z M 221.992188 309.3125 "/>
</g>
</defs>
<g id="surface1">
<path style=" stroke:none;fill-rule:nonzero;fill:rgb(100%,71.372549%,71.372549%);fill-opacity:1;" d="M 207.296875 50.429688 C 207.914062 52.203125 209.289062 53.613281 211.046875 54.277344 C 212.804688 54.945312 214.765625 54.800781 216.40625 53.882812 L 271.5 71.53125 L 289.734375 57.242188 L 218.667969 44.816406 C 216.902344 42.109375 213.386719 41.144531 210.488281 42.578125 C 207.585938 44.011719 206.214844 47.382812 207.296875 50.429688 Z M 207.296875 50.429688 "/>
<path style=" stroke:none;fill-rule:nonzero;fill:rgb(94.901961%,94.901961%,94.901961%);fill-opacity:1;" d="M 309.34375 74.015625 C 309.34375 74.015625 308.847656 72.792969 302.253906 75.453125 C 294.070312 78.757812 250.507812 76.550781 248.089844 64.6875 C 246.507812 66.320312 244.015625 66.675781 242.035156 65.546875 L 248.84375 50.617188 C 252.390625 49.488281 254.316406 48.648438 254.546875 50.089844 L 265.203125 49.464844 L 308.371094 56.722656 L 309.5625 71.601562 Z M 309.34375 74.015625 "/>
<path style=" stroke:none;fill-rule:nonzero;fill:rgb(94.901961%,94.901961%,94.901961%);fill-opacity:1;" d="M 295.769531 59.050781 L 317.207031 57.195312 L 337.304688 66.371094 L 348.589844 222.28125 L 304.300781 201.828125 L 285.300781 207.078125 Z M 295.769531 59.050781 "/>
<path style=" stroke:none;fill-rule:nonzero;fill:rgb(100%,71.372549%,71.372549%);fill-opacity:1;" d="M 348.511719 331.15625 L 340.378906 331.15625 L 336.511719 299.832031 L 348.511719 299.832031 Z M 348.511719 331.15625 "/>
<path style=" stroke:none;fill-rule:nonzero;fill:rgb(18.431373%,18.039216%,25.490196%);fill-opacity:1;" d="M 350.585938 339.027344 L 324.367188 339.027344 L 324.367188 338.695312 C 324.367188 333.066406 328.933594 328.503906 334.570312 328.503906 L 339.359375 324.875 L 348.296875 328.503906 L 350.585938 328.503906 Z M 350.585938 339.027344 "/>
<path style=" stroke:none;fill-rule:nonzero;fill:rgb(100%,71.372549%,71.372549%);fill-opacity:1;" d="M 317 326.039062 L 309.066406 327.824219 L 298.386719 298.121094 L 310.09375 295.484375 Z M 317 326.039062 "/>
<path style=" stroke:none;fill-rule:nonzero;fill:rgb(18.431373%,18.039216%,25.490196%);fill-opacity:1;" d="M 320.757812 333.257812 L 295.183594 339.027344 L 295.109375 338.703125 C 293.871094 333.214844 297.320312 327.757812 302.816406 326.515625 L 306.6875 321.925781 L 316.207031 323.5 L 318.4375 322.996094 Z M 320.757812 333.257812 "/>
<path style=" stroke:none;fill-rule:nonzero;fill:rgb(18.431373%,18.039216%,25.490196%);fill-opacity:1;" d="M 358.808594 139.660156 C 362.621094 151.144531 362.21875 163.609375 357.894531 176.988281 L 356.042969 252.308594 C 359.101562 255.667969 359.566406 285.734375 354.859375 295.542969 C 348.570312 308.640625 354.355469 310.394531 349.910156 319.085938 L 337.015625 319.085938 L 331.054688 279.710938 L 330.632812 247.796875 C 328.917969 243.75 330.324219 229.5 330.324219 229.5 L 329.832031 199.949219 L 306.582031 251.710938 C 317.117188 260.714844 316.167969 289.796875 316.339844 302.699219 L 319.792969 317.917969 L 303.925781 319.335938 L 296.921875 298.695312 L 289.050781 285.972656 C 285.039062 263.433594 283.847656 246.886719 287.269531 240.128906 L 310.605469 153.414062 Z M 358.808594 139.660156 "/>
<path style=" stroke:none;fill-rule:nonzero;fill:rgb(24.705882%,23.921569%,33.72549%);fill-opacity:1;" d="M 360.460938 135.828125 L 358.335938 131.582031 C 355.734375 115.484375 353.164062 100.46875 356.65625 86.964844 C 356.875 75.171875 353.226562 64.097656 343.09375 58.046875 L 338.523438 55.316406 L 336.210938 49.457031 L 314.90625 49.976562 L 314.84375 57.660156 L 307.214844 69.8125 L 307.214844 69.863281 L 307.691406 135.996094 L 309.796875 142.824219 L 306.617188 150.761719 L 308.304688 155.828125 L 350.304688 149.121094 L 355.1875 148.339844 C 355.753906 148.160156 356.296875 147.921875 356.8125 147.632812 C 358.5625 146.660156 359.9375 145.125 360.710938 143.28125 C 360.753906 143.171875 360.792969 143.074219 360.832031 142.964844 C 361.160156 142.105469 361.351562 141.195312 361.394531 140.273438 C 361.472656 138.738281 361.148438 137.207031 360.460938 135.828125 Z M 360.460938 135.828125 "/>
<use xlink:href="#surface5" mask="url(#mask0)"/>
<path style=" stroke:none;fill-rule:nonzero;fill:rgb(94.901961%,94.901961%,94.901961%);fill-opacity:1;" d="M 31.429688 277.464844 C 26.492188 277.515625 21.5625 277.175781 16.683594 276.445312 C 12.136719 275.675781 9.832031 274.585938 9.832031 273.203125 L 9.835938 273.179688 L 18.3125 208.71875 L 14.042969 196.492188 C 13.679688 195.453125 13.847656 194.296875 14.492188 193.402344 C 15.132812 192.507812 16.175781 191.980469 17.28125 191.992188 L 45.359375 192.285156 C 46.441406 192.292969 47.453125 192.824219 48.082031 193.703125 C 48.714844 194.585938 48.882812 195.714844 48.539062 196.742188 L 44.542969 208.714844 L 53.019531 273.179688 C 53.023438 276.566406 39.449219 277.464844 31.429688 277.464844 Z M 31.429688 277.464844 "/>
<path style=" stroke:none;fill-rule:nonzero;fill:rgb(80%,80%,80%);fill-opacity:1;" d="M 15.425781 268.390625 L 29.140625 268.390625 L 29.140625 269.160156 L 15.425781 269.160156 Z M 15.425781 268.390625 "/>
<path style=" stroke:none;fill-rule:nonzero;fill:rgb(80%,80%,80%);fill-opacity:1;" d="M 15.425781 263.769531 L 29.140625 263.769531 L 29.140625 264.539062 L 15.425781 264.539062 Z M 15.425781 263.769531 "/>
<path style=" stroke:none;fill-rule:nonzero;fill:rgb(80%,80%,80%);fill-opacity:1;" d="M 15.425781 259.148438 L 29.140625 259.148438 L 29.140625 259.917969 L 15.425781 259.917969 Z M 15.425781 259.148438 "/>
<path style=" stroke:none;fill-rule:nonzero;fill:rgb(80%,80%,80%);fill-opacity:1;" d="M 15.425781 254.527344 L 29.140625 254.527344 L 29.140625 255.296875 L 15.425781 255.296875 Z M 15.425781 254.527344 "/>
<path style=" stroke:none;fill-rule:nonzero;fill:rgb(80%,80%,80%);fill-opacity:1;" d="M 15.425781 249.90625 L 29.140625 249.90625 L 29.140625 250.675781 L 15.425781 250.675781 Z M 15.425781 249.90625 "/>
<path style=" stroke:none;fill-rule:nonzero;fill:rgb(94.901961%,94.901961%,94.901961%);fill-opacity:1;" d="M 154.824219 277.464844 C 149.890625 277.515625 144.960938 277.175781 140.078125 276.445312 C 135.535156 275.675781 133.230469 274.585938 133.230469 273.203125 L 133.234375 273.179688 L 141.710938 208.71875 L 137.441406 196.492188 C 137.078125 195.453125 137.242188 194.296875 137.886719 193.402344 C 138.53125 192.507812 139.574219 191.980469 140.679688 191.992188 L 168.757812 192.285156 C 169.839844 192.292969 170.851562 192.824219 171.480469 193.703125 C 172.109375 194.585938 172.28125 195.714844 171.9375 196.742188 L 167.941406 208.714844 L 176.417969 273.179688 C 176.421875 276.566406 162.847656 277.464844 154.824219 277.464844 Z M 154.824219 277.464844 "/>
<path style=" stroke:none;fill-rule:nonzero;fill:rgb(80%,80%,80%);fill-opacity:1;" d="M 138.824219 268.390625 L 152.539062 268.390625 L 152.539062 269.160156 L 138.824219 269.160156 Z M 138.824219 268.390625 "/>
<path style=" stroke:none;fill-rule:nonzero;fill:rgb(80%,80%,80%);fill-opacity:1;" d="M 138.824219 263.769531 L 152.539062 263.769531 L 152.539062 264.539062 L 138.824219 264.539062 Z M 138.824219 263.769531 "/>
<path style=" stroke:none;fill-rule:nonzero;fill:rgb(80%,80%,80%);fill-opacity:1;" d="M 138.824219 259.148438 L 152.539062 259.148438 L 152.539062 259.917969 L 138.824219 259.917969 Z M 138.824219 259.148438 "/>
<path style=" stroke:none;fill-rule:nonzero;fill:rgb(80%,80%,80%);fill-opacity:1;" d="M 138.824219 254.527344 L 152.539062 254.527344 L 152.539062 255.296875 L 138.824219 255.296875 Z M 138.824219 254.527344 "/>
<path style=" stroke:none;fill-rule:nonzero;fill:rgb(80%,80%,80%);fill-opacity:1;" d="M 138.824219 249.90625 L 152.539062 249.90625 L 152.539062 250.675781 L 138.824219 250.675781 Z M 138.824219 249.90625 "/>
<path style=" stroke:none;fill-rule:nonzero;fill:rgb(94.901961%,94.901961%,94.901961%);fill-opacity:1;" d="M 96.984375 277.464844 C 92.046875 277.515625 87.117188 277.175781 82.238281 276.445312 C 77.691406 275.675781 75.386719 274.585938 75.386719 273.203125 L 75.390625 273.179688 L 83.867188 208.71875 L 79.597656 196.492188 C 79.234375 195.453125 79.402344 194.296875 80.046875 193.402344 C 80.691406 192.507812 81.730469 191.980469 82.835938 191.992188 L 110.914062 192.285156 C 111.996094 192.292969 113.011719 192.824219 113.640625 193.703125 C 114.269531 194.585938 114.4375 195.714844 114.09375 196.742188 L 110.097656 208.714844 L 118.574219 273.179688 C 118.578125 276.566406 105.003906 277.464844 96.984375 277.464844 Z M 96.984375 277.464844 "/>
<path style=" stroke:none;fill-rule:nonzero;fill:rgb(80%,80%,80%);fill-opacity:1;" d="M 80.980469 268.390625 L 94.695312 268.390625 L 94.695312 269.160156 L 80.980469 269.160156 Z M 80.980469 268.390625 "/>
<path style=" stroke:none;fill-rule:nonzero;fill:rgb(80%,80%,80%);fill-opacity:1;" d="M 80.980469 263.769531 L 94.695312 263.769531 L 94.695312 264.539062 L 80.980469 264.539062 Z M 80.980469 263.769531 "/>
<path style=" stroke:none;fill-rule:nonzero;fill:rgb(80%,80%,80%);fill-opacity:1;" d="M 80.980469 259.148438 L 94.695312 259.148438 L 94.695312 259.917969 L 80.980469 259.917969 Z M 80.980469 259.148438 "/>
<path style=" stroke:none;fill-rule:nonzero;fill:rgb(80%,80%,80%);fill-opacity:1;" d="M 80.980469 254.527344 L 94.695312 254.527344 L 94.695312 255.296875 L 80.980469 255.296875 Z M 80.980469 254.527344 "/>
<path style=" stroke:none;fill-rule:nonzero;fill:rgb(80%,80%,80%);fill-opacity:1;" d="M 80.980469 249.90625 L 94.695312 249.90625 L 94.695312 250.675781 L 80.980469 250.675781 Z M 80.980469 249.90625 "/>
<path style=" stroke:none;fill-rule:nonzero;fill:rgb(80%,80%,80%);fill-opacity:1;" d="M 188.179688 282.253906 L 161.960938 282.253906 L 161.960938 238.351562 L 188.179688 238.351562 C 191.164062 238.351562 193.582031 235.9375 193.582031 232.960938 C 193.582031 229.980469 191.164062 227.566406 188.179688 227.566406 L 5.398438 227.566406 C 2.417969 227.566406 0 229.980469 0 232.960938 C 0 235.9375 2.417969 238.351562 5.398438 238.351562 L 27.765625 238.351562 L 27.765625 282.253906 L 5.398438 282.253906 C 2.417969 282.253906 0 284.667969 0 287.644531 C 0 290.625 2.417969 293.039062 5.398438 293.039062 L 188.179688 293.039062 C 190.113281 293.039062 191.894531 292.011719 192.863281 290.34375 C 193.828125 288.675781 193.828125 286.617188 192.863281 284.949219 C 191.894531 283.28125 190.113281 282.253906 188.179688 282.253906 Z M 38.5625 282.253906 L 38.5625 238.351562 L 151.164062 238.351562 L 151.164062 282.253906 Z M 38.5625 282.253906 "/>
<path style=" stroke:none;fill-rule:nonzero;fill:rgb(100%,100%,100%);fill-opacity:1;" d="M 183.933594 339.097656 C 170.523438 339.097656 158.015625 338.234375 148.714844 336.660156 C 137.242188 334.722656 131.664062 331.90625 131.664062 328.050781 L 131.667969 327.929688 L 151.808594 174.785156 L 141.726562 145.921875 C 140.742188 143.164062 141.1875 140.101562 142.910156 137.734375 C 144.59375 135.332031 147.371094 133.929688 150.308594 134 L 217.074219 134.691406 C 219.941406 134.722656 222.625 136.121094 224.292969 138.457031 C 225.960938 140.789062 226.40625 143.777344 225.5 146.5 L 216.0625 174.777344 L 236.203125 327.933594 L 236.203125 327.992188 C 236.207031 332.148438 229.890625 335.101562 216.898438 337.015625 C 204.136719 338.894531 189.59375 339.097656 183.933594 339.097656 Z M 183.933594 339.097656 "/>
<path style=" stroke:none;fill-rule:nonzero;fill:rgb(24.705882%,23.921569%,33.72549%);fill-opacity:1;" d="M 183.933594 339.097656 C 170.523438 339.097656 158.015625 338.234375 148.714844 336.660156 C 137.242188 334.722656 131.664062 331.90625 131.664062 328.050781 L 131.667969 327.929688 L 151.808594 174.785156 L 141.726562 145.921875 C 140.742188 143.164062 141.1875 140.101562 142.910156 137.734375 C 144.59375 135.332031 147.371094 133.929688 150.308594 134 L 217.074219 134.691406 C 219.941406 134.722656 222.625 136.121094 224.292969 138.457031 C 225.960938 140.789062 226.40625 143.777344 225.5 146.5 L 216.0625 174.777344 L 236.203125 327.933594 L 236.203125 327.992188 C 236.207031 332.148438 229.890625 335.101562 216.898438 337.015625 C 204.136719 338.894531 189.59375 339.097656 183.933594 339.097656 Z M 150.125 135.828125 C 147.84375 135.824219 145.707031 136.9375 144.398438 138.804688 C 143.027344 140.6875 142.675781 143.125 143.457031 145.316406 L 153.683594 174.59375 L 153.65625 174.808594 L 133.492188 328.113281 C 133.496094 329.613281 135.515625 332.574219 149.019531 334.855469 C 158.222656 336.410156 170.621094 337.265625 183.933594 337.265625 C 195.636719 337.265625 207.859375 336.496094 216.632812 335.203125 C 227.835938 333.550781 234.292969 330.945312 234.367188 328.046875 L 214.1875 174.597656 L 223.757812 145.917969 C 224.480469 143.753906 224.125 141.375 222.800781 139.519531 C 221.472656 137.660156 219.339844 136.546875 217.054688 136.523438 L 150.28125 135.828125 C 150.226562 135.828125 150.175781 135.828125 150.125 135.828125 Z M 150.125 135.828125 "/>
<use xlink:href="#surface8" mask="url(#mask1)"/>
<path style=" stroke:none;fill-rule:nonzero;fill:rgb(42.352941%,38.823529%,100%);fill-opacity:1;" d="M 212.597656 320.722656 L 155.191406 320.722656 C 152.144531 320.722656 149.25 319.402344 147.261719 317.097656 C 145.269531 314.796875 144.382812 311.742188 144.828125 308.734375 L 161.601562 195.457031 C 161.777344 194.277344 162.574219 193.285156 163.683594 192.851562 C 164.796875 192.417969 166.054688 192.613281 166.984375 193.359375 C 177.207031 201.539062 188.347656 201.355469 200.097656 192.816406 C 201.023438 192.140625 202.238281 192 203.296875 192.445312 C 204.378906 192.886719 205.144531 193.863281 205.320312 195.015625 L 222.949219 308.664062 C 223.417969 311.679688 222.542969 314.753906 220.550781 317.070312 C 218.5625 319.390625 215.65625 320.722656 212.597656 320.722656 Z M 212.597656 320.722656 "/>
<path style=" stroke:none;fill-rule:nonzero;fill:rgb(100%,100%,100%);fill-opacity:1;" d="M 156.882812 307.445312 L 189.5 307.445312 L 189.5 309.277344 L 156.882812 309.277344 Z M 156.882812 307.445312 "/>
<path style=" stroke:none;fill-rule:nonzero;fill:rgb(100%,100%,100%);fill-opacity:1;" d="M 156.882812 296.453125 L 189.5 296.453125 L 189.5 298.285156 L 156.882812 298.285156 Z M 156.882812 296.453125 "/>
<path style=" stroke:none;fill-rule:nonzero;fill:rgb(100%,100%,100%);fill-opacity:1;" d="M 156.882812 285.464844 L 189.5 285.464844 L 189.5 287.296875 L 156.882812 287.296875 Z M 156.882812 285.464844 "/>
<path style=" stroke:none;fill-rule:nonzero;fill:rgb(100%,100%,100%);fill-opacity:1;" d="M 156.882812 274.472656 L 189.5 274.472656 L 189.5 276.304688 L 156.882812 276.304688 Z M 156.882812 274.472656 "/>
<path style=" stroke:none;fill-rule:nonzero;fill:rgb(100%,100%,100%);fill-opacity:1;" d="M 156.882812 263.480469 L 189.5 263.480469 L 189.5 265.3125 L 156.882812 265.3125 Z M 156.882812 263.480469 "/>
<path style=" stroke:none;fill-rule:nonzero;fill:rgb(100%,100%,100%);fill-opacity:1;" d="M 211.007812 234.648438 C 205.886719 239.726562 198.800781 242.316406 191.609375 241.738281 C 187.558594 241.371094 183.863281 239.863281 180.304688 237.957031 C 176.625 235.988281 173.066406 233.632812 168.996094 232.535156 C 165.429688 231.574219 161.203125 231.445312 158.136719 233.824219 C 157.625 234.222656 156.910156 234.242188 156.378906 233.871094 L 156.726562 231.492188 C 160.136719 229.109375 164.28125 228.742188 168.34375 229.558594 C 176.523438 231.207031 182.734375 237.964844 191.117188 238.9375 C 198.460938 239.761719 205.730469 236.84375 210.457031 231.171875 L 210.464844 231.160156 Z M 211.007812 234.648438 "/>
<path style=" stroke:none;fill-rule:nonzero;fill:rgb(80%,80%,80%);fill-opacity:1;" d="M 399.84375 339.148438 C 399.84375 339.34375 399.765625 339.535156 399.625 339.675781 C 399.484375 339.816406 399.292969 339.894531 399.097656 339.890625 L 0.796875 339.890625 C 0.382812 339.890625 0.0507812 339.558594 0.0507812 339.148438 C 0.0507812 338.734375 0.382812 338.402344 0.796875 338.402344 L 399.097656 338.402344 C 399.292969 338.402344 399.484375 338.480469 399.625 338.621094 C 399.765625 338.757812 399.84375 338.949219 399.84375 339.148438 Z M 399.84375 339.148438 "/>
<path style=" stroke:none;fill-rule:nonzero;fill:rgb(94.901961%,94.901961%,94.901961%);fill-opacity:1;" d="M 317.085938 57.171875 L 338.523438 55.316406 L 358.621094 64.492188 L 369.90625 220.40625 L 325.617188 199.949219 L 306.617188 205.199219 Z M 317.085938 57.171875 "/>
<path style=" stroke:none;fill-rule:nonzero;fill:rgb(42.352941%,38.823529%,100%);fill-opacity:1;" d="M 215.046875 53.222656 C 215.046875 55.296875 213.363281 56.980469 211.285156 56.980469 C 209.207031 56.980469 207.523438 55.296875 207.523438 53.222656 C 207.523438 51.148438 209.207031 49.464844 211.285156 49.464844 C 213.363281 49.464844 215.046875 51.148438 215.046875 53.222656 Z M 215.046875 53.222656 "/>
<path style=" stroke:none;fill-rule:nonzero;fill:rgb(42.352941%,38.823529%,100%);fill-opacity:1;" d="M 208.777344 98.929688 C 208.777344 101.007812 207.09375 102.6875 205.015625 102.6875 C 202.9375 102.6875 201.253906 101.007812 201.253906 98.929688 C 201.253906 96.855469 202.9375 95.175781 205.015625 95.175781 C 207.09375 95.175781 208.777344 96.855469 208.777344 98.929688 Z M 208.777344 98.929688 "/>
<path style=" stroke:none;fill-rule:nonzero;fill:rgb(42.352941%,38.823529%,100%);fill-opacity:1;" d="M 188.714844 125.855469 C 188.714844 127.929688 187.03125 129.613281 184.953125 129.613281 C 182.875 129.613281 181.191406 127.929688 181.191406 125.855469 C 181.191406 123.78125 182.875 122.097656 184.953125 122.097656 C 187.03125 122.097656 188.714844 123.78125 188.714844 125.855469 Z M 188.714844 125.855469 "/>
<path style=" stroke:none;fill-rule:nonzero;fill:rgb(90.196078%,90.196078%,90.196078%);fill-opacity:1;" d="M 278.863281 158.722656 L 278.863281 118.390625 C 278.863281 116.691406 280.242188 115.3125 281.945312 115.3125 L 312.441406 115.3125 C 314.144531 115.3125 315.523438 116.691406 315.527344 118.390625 L 315.527344 158.722656 C 315.523438 160.421875 314.144531 161.796875 312.441406 161.800781 L 281.945312 161.800781 C 280.242188 161.796875 278.863281 160.421875 278.863281 158.722656 Z M 278.863281 158.722656 "/>
<path style=" stroke:none;fill-rule:nonzero;fill:rgb(100%,100%,100%);fill-opacity:1;" d="M 281.203125 146.539062 L 281.203125 120.613281 C 281.203125 119.019531 282.496094 117.730469 284.089844 117.726562 L 310.300781 117.726562 C 311.894531 117.730469 313.183594 119.019531 313.1875 120.613281 L 313.1875 156.5 C 313.183594 158.089844 311.894531 159.382812 310.300781 159.382812 L 294.0625 159.382812 C 286.964844 159.375 281.210938 153.628906 281.203125 146.539062 Z M 281.203125 146.539062 "/>
<path style=" stroke:none;fill-rule:nonzero;fill:rgb(90.196078%,90.196078%,90.196078%);fill-opacity:1;" d="M 285.445312 127.847656 C 285.445312 126.289062 286.710938 125.03125 288.265625 125.027344 L 306.449219 125.027344 C 308.007812 125.027344 309.269531 126.289062 309.269531 127.847656 C 309.269531 129.402344 308.007812 130.664062 306.449219 130.664062 L 288.265625 130.664062 C 286.710938 130.660156 285.445312 129.402344 285.445312 127.847656 Z M 285.445312 127.847656 "/>
<path style=" stroke:none;fill-rule:nonzero;fill:rgb(90.196078%,90.196078%,90.196078%);fill-opacity:1;" d="M 285.445312 136.613281 C 285.445312 135.054688 286.710938 133.796875 288.265625 133.792969 L 306.449219 133.792969 C 308.007812 133.792969 309.269531 135.054688 309.269531 136.613281 C 309.269531 138.167969 308.007812 139.429688 306.449219 139.429688 L 288.265625 139.429688 C 286.710938 139.429688 285.445312 138.167969 285.445312 136.613281 Z M 285.445312 136.613281 "/>
<path style=" stroke:none;fill-rule:nonzero;fill:rgb(90.196078%,90.196078%,90.196078%);fill-opacity:1;" d="M 285.445312 145.378906 C 285.445312 143.824219 286.710938 142.5625 288.265625 142.558594 L 306.449219 142.558594 C 308.007812 142.558594 309.269531 143.820312 309.269531 145.378906 C 309.269531 146.933594 308.007812 148.195312 306.449219 148.195312 L 288.265625 148.195312 C 286.710938 148.195312 285.445312 146.933594 285.445312 145.378906 Z M 285.445312 145.378906 "/>
<path style=" stroke:none;fill-rule:nonzero;fill:rgb(100%,71.372549%,71.372549%);fill-opacity:1;" d="M 303.707031 165.679688 C 305.445312 164.960938 306.773438 163.511719 307.339844 161.722656 C 307.90625 159.929688 307.644531 157.980469 306.632812 156.398438 L 328.746094 136.335938 L 336.503906 106.367188 L 322.738281 105.226562 L 318.527344 128.742188 L 297.441406 154.664062 C 294.835938 156.578125 294.078125 160.140625 295.675781 162.949219 C 297.273438 165.761719 300.722656 166.933594 303.707031 165.679688 Z M 303.707031 165.679688 "/>
<path style=" stroke:none;fill-rule:nonzero;fill:rgb(94.901961%,94.901961%,94.901961%);fill-opacity:1;" d="M 338.625 79.304688 C 338.625 79.304688 341.980469 79.355469 340.46875 86.292969 C 339.261719 91.847656 334.667969 123.109375 331.003906 130.101562 C 332.730469 131.589844 333.226562 134.054688 332.214844 136.09375 L 316.898438 130.160156 C 315.566406 126.6875 317.804688 125.609375 319.230469 125.300781 L 318.953125 114.414062 L 321.148438 86.675781 L 336.199219 79.226562 Z M 338.625 79.304688 "/>
<path style=" stroke:none;fill-rule:nonzero;fill:rgb(100%,72.156863%,72.156863%);fill-opacity:1;" d="M 343.136719 27.949219 C 341.648438 38.785156 331.652344 46.367188 320.804688 44.890625 C 309.953125 43.417969 302.351562 33.441406 303.816406 22.605469 L 303.855469 22.324219 C 305.566406 11.640625 315.539062 4.300781 326.261719 5.835938 C 336.988281 7.371094 344.496094 17.214844 343.128906 27.949219 Z M 343.136719 27.949219 "/>
<path style=" stroke:none;fill-rule:nonzero;fill:rgb(18.431373%,18.039216%,25.490196%);fill-opacity:1;" d="M 338.085938 38.15625 C 339.105469 36.089844 340.152344 33.867188 339.867188 31.582031 C 339.578125 29.296875 337.335938 27.113281 335.128906 27.789062 C 333.8125 28.195312 332.816406 29.496094 331.4375 29.5625 C 329.542969 29.65625 328.453125 27.488281 327.863281 25.6875 L 325.460938 18.347656 C 320.789062 21.984375 314.734375 23.351562 308.949219 22.074219 C 306.71875 21.566406 304.464844 20.570312 303.15625 18.695312 C 301.847656 16.820312 301.855469 13.910156 303.648438 12.492188 C 304.53125 11.796875 305.703125 11.535156 306.542969 10.792969 C 307.613281 9.847656 307.941406 8.3125 307.34375 7.015625 C 306.746094 5.71875 305.371094 4.960938 303.953125 5.15625 L 310.003906 4.402344 L 308.203125 1.144531 C 309.5 2.167969 311.308594 2.304688 312.9375 2.011719 C 314.566406 1.71875 316.101562 1.050781 317.691406 0.605469 C 325.339844 -1.539062 334.226562 2.1875 338.046875 9.140625 C 341.097656 8.125 344.457031 9.09375 346.492188 11.574219 C 348.113281 13.628906 348.554688 16.371094 348.617188 18.984375 C 348.734375 24.136719 347.609375 29.242188 345.335938 33.871094 C 344.683594 35.339844 343.746094 36.667969 342.582031 37.773438 C 341.390625 38.886719 339.769531 39.414062 338.152344 39.21875 "/>
</g>
</svg>
