<?xml version="1.0" encoding="UTF-8"?>
<svg xmlns="http://www.w3.org/2000/svg" xmlns:xlink="http://www.w3.org/1999/xlink" width="773.97946" height="419.08428" viewBox="0 0 400 278" version="1.1">
<defs>
<filter id="alpha" filterUnits="objectBoundingBox" x="0%" y="0%" width="100%" height="100%">
  <feColorMatrix type="matrix" in="SourceGraphic" values="0 0 0 0 1 0 0 0 0 1 0 0 0 0 1 0 0 0 1 0"/>
</filter>
<mask id="mask0">
  <g filter="url(#alpha)">
<rect x="0" y="0" width="400" height="278" style="fill:rgb(0%,0%,0%);fill-opacity:0.2;stroke:none;"/>
  </g>
</mask>
<clipPath id="clip1">
  <rect x="0" y="0" width="400" height="278"/>
</clipPath>
<g id="surface5" clip-path="url(#clip1)">
<path style=" stroke:none;fill-rule:nonzero;fill:rgb(0%,0%,0%);fill-opacity:1;" d="M 189.277344 260.519531 C 189.929688 261.269531 190.289062 262.226562 190.292969 263.21875 C 190.285156 265.5 188.433594 267.347656 186.148438 267.355469 L 179.03125 267.355469 L 179.03125 267.78125 L 186.574219 267.78125 C 188.859375 267.773438 190.710938 265.925781 190.714844 263.644531 C 190.714844 262.441406 190.1875 261.300781 189.277344 260.519531 Z M 189.277344 260.519531 "/>
</g>
<mask id="mask1">
  <g filter="url(#alpha)">
<rect x="0" y="0" width="400" height="278" style="fill:rgb(0%,0%,0%);fill-opacity:0.2;stroke:none;"/>
  </g>
</mask>
<clipPath id="clip2">
  <rect x="0" y="0" width="400" height="278"/>
</clipPath>
<g id="surface8" clip-path="url(#clip2)">
<path style=" stroke:none;fill-rule:nonzero;fill:rgb(0%,0%,0%);fill-opacity:1;" d="M 218.011719 210.65625 C 217.914062 211.644531 217.460938 212.566406 216.738281 213.246094 C 215.074219 214.808594 212.457031 214.730469 210.882812 213.074219 L 206.003906 207.902344 L 205.691406 208.195312 L 210.867188 213.675781 C 212.4375 215.328125 215.054688 215.40625 216.722656 213.847656 C 217.59375 213.023438 218.066406 211.859375 218.011719 210.65625 Z M 218.011719 210.65625 "/>
</g>
<mask id="mask2">
  <g filter="url(#alpha)">
<rect x="0" y="0" width="400" height="278" style="fill:rgb(0%,0%,0%);fill-opacity:0.2;stroke:none;"/>
  </g>
</mask>
<clipPath id="clip3">
  <rect x="0" y="0" width="400" height="278"/>
</clipPath>
<g id="surface11" clip-path="url(#clip3)">
<path style=" stroke:none;fill-rule:nonzero;fill:rgb(0%,0%,0%);fill-opacity:1;" d="M 195.9375 223.703125 C 195.839844 224.691406 195.390625 225.609375 194.667969 226.292969 C 193 227.851562 190.382812 227.777344 188.8125 226.121094 L 183.929688 220.949219 L 183.621094 221.238281 L 188.792969 226.71875 C 190.367188 228.375 192.984375 228.453125 194.648438 226.890625 C 195.523438 226.066406 195.992188 224.902344 195.9375 223.703125 Z M 195.9375 223.703125 "/>
</g>
<mask id="mask3">
  <g filter="url(#alpha)">
<rect x="0" y="0" width="400" height="278" style="fill:rgb(0%,0%,0%);fill-opacity:0.2;stroke:none;"/>
  </g>
</mask>
<clipPath id="clip4">
  <rect x="0" y="0" width="400" height="278"/>
</clipPath>
<g id="surface14" clip-path="url(#clip4)">
<path style=" stroke:none;fill-rule:nonzero;fill:rgb(0%,0%,0%);fill-opacity:1;" d="M 218.011719 235.847656 C 217.914062 236.835938 217.460938 237.757812 216.738281 238.4375 C 215.074219 240 212.457031 239.921875 210.882812 238.265625 L 206.003906 233.09375 L 205.691406 233.382812 L 210.867188 238.863281 C 212.4375 240.519531 215.054688 240.597656 216.722656 239.039062 C 217.59375 238.210938 218.066406 237.046875 218.011719 235.847656 Z M 218.011719 235.847656 "/>
</g>
<mask id="mask4">
  <g filter="url(#alpha)">
<rect x="0" y="0" width="400" height="278" style="fill:rgb(0%,0%,0%);fill-opacity:0.2;stroke:none;"/>
  </g>
</mask>
<clipPath id="clip5">
  <rect x="0" y="0" width="400" height="278"/>
</clipPath>
<g id="surface17" clip-path="url(#clip5)">
<path style=" stroke:none;fill-rule:nonzero;fill:rgb(0%,0%,0%);fill-opacity:1;" d="M 206.8125 259.699219 C 205.824219 259.613281 204.898438 259.171875 204.207031 258.460938 C 202.625 256.8125 202.667969 254.199219 204.308594 252.609375 L 209.425781 247.671875 L 209.132812 247.367188 L 203.707031 252.601562 C 202.066406 254.191406 202.023438 256.804688 203.605469 258.449219 C 204.441406 259.3125 205.613281 259.769531 206.8125 259.699219 Z M 206.8125 259.699219 "/>
</g>
<mask id="mask5">
  <g filter="url(#alpha)">
<rect x="0" y="0" width="400" height="278" style="fill:rgb(0%,0%,0%);fill-opacity:0.2;stroke:none;"/>
  </g>
</mask>
<clipPath id="clip6">
  <rect x="0" y="0" width="400" height="278"/>
</clipPath>
<g id="surface20" clip-path="url(#clip6)">
<path style=" stroke:none;fill-rule:nonzero;fill:rgb(0%,0%,0%);fill-opacity:1;" d="M 177.085938 246.652344 C 176.09375 246.566406 175.167969 246.128906 174.476562 245.414062 C 172.894531 243.769531 172.9375 241.15625 174.578125 239.566406 L 179.695312 234.628906 L 179.402344 234.324219 L 173.976562 239.554688 C 172.339844 241.144531 172.292969 243.757812 173.875 245.40625 C 174.710938 246.265625 175.882812 246.722656 177.085938 246.652344 Z M 177.085938 246.652344 "/>
</g>
<mask id="mask6">
  <g filter="url(#alpha)">
<rect x="0" y="0" width="400" height="278" style="fill:rgb(0%,0%,0%);fill-opacity:0.2;stroke:none;"/>
  </g>
</mask>
<clipPath id="clip7">
  <rect x="0" y="0" width="400" height="278"/>
</clipPath>
<g id="surface23" clip-path="url(#clip7)">
<path style=" stroke:none;fill-rule:nonzero;fill:rgb(0%,0%,0%);fill-opacity:1;" d="M 219.425781 230.910156 C 218.4375 230.824219 217.511719 230.382812 216.820312 229.671875 C 215.234375 228.023438 215.28125 225.410156 216.921875 223.820312 L 222.039062 218.882812 L 221.746094 218.578125 L 216.320312 223.808594 C 214.679688 225.402344 214.636719 228.015625 216.21875 229.660156 C 217.054688 230.523438 218.226562 230.976562 219.425781 230.910156 Z M 219.425781 230.910156 "/>
</g>
<mask id="mask7">
  <g filter="url(#alpha)">
<rect x="0" y="0" width="400" height="278" style="fill:rgb(0%,0%,0%);fill-opacity:0.2;stroke:none;"/>
  </g>
</mask>
<clipPath id="clip8">
  <rect x="0" y="0" width="400" height="278"/>
</clipPath>
<g id="surface26" clip-path="url(#clip8)">
<path style=" stroke:none;fill-rule:nonzero;fill:rgb(0%,0%,0%);fill-opacity:1;" d="M 234.675781 265.539062 C 234.582031 266.527344 234.128906 267.445312 233.40625 268.128906 C 231.738281 269.6875 229.121094 269.609375 227.550781 267.953125 L 222.667969 262.78125 L 222.359375 263.074219 L 227.53125 268.554688 C 229.105469 270.210938 231.722656 270.289062 233.386719 268.726562 C 234.261719 267.902344 234.734375 266.738281 234.675781 265.539062 Z M 234.675781 265.539062 "/>
</g>
<mask id="mask8">
  <g filter="url(#alpha)">
<rect x="0" y="0" width="400" height="278" style="fill:rgb(0%,0%,0%);fill-opacity:0.2;stroke:none;"/>
  </g>
</mask>
<clipPath id="clip9">
  <rect x="0" y="0" width="400" height="278"/>
</clipPath>
<g id="surface29" clip-path="url(#clip9)">
<path style=" stroke:none;fill-rule:nonzero;fill:rgb(0%,0%,0%);fill-opacity:1;" d="M 205.398438 265.089844 C 205.300781 266.078125 204.851562 266.996094 204.128906 267.675781 C 202.460938 269.238281 199.84375 269.160156 198.269531 267.503906 L 193.390625 262.332031 L 193.082031 262.625 L 198.253906 268.105469 C 199.824219 269.761719 202.441406 269.835938 204.109375 268.277344 C 204.984375 267.453125 205.453125 266.289062 205.398438 265.089844 Z M 205.398438 265.089844 "/>
</g>
<mask id="mask9">
  <g filter="url(#alpha)">
<rect x="0" y="0" width="400" height="278" style="fill:rgb(0%,0%,0%);fill-opacity:0.2;stroke:none;"/>
  </g>
</mask>
<clipPath id="clip10">
  <rect x="0" y="0" width="400" height="278"/>
</clipPath>
<g id="surface32" clip-path="url(#clip10)">
<path style=" stroke:none;fill-rule:nonzero;fill:rgb(0%,0%,0%);fill-opacity:1;" d="M 197.542969 230.933594 L 197.542969 242.628906 C 196.753906 242.785156 195.941406 242.785156 195.152344 242.628906 L 195.152344 230.933594 C 195.941406 230.773438 196.753906 230.773438 197.542969 230.933594 Z M 197.542969 230.933594 "/>
</g>
<mask id="mask10">
  <g filter="url(#alpha)">
<rect x="0" y="0" width="400" height="278" style="fill:rgb(0%,0%,0%);fill-opacity:0.2;stroke:none;"/>
  </g>
</mask>
<clipPath id="clip11">
  <rect x="0" y="0" width="400" height="278"/>
</clipPath>
<g id="surface35" clip-path="url(#clip11)">
<path style=" stroke:none;fill-rule:nonzero;fill:rgb(0%,0%,0%);fill-opacity:1;" d="M 200.246094 207.09375 L 200.246094 218.785156 C 199.457031 218.945312 198.644531 218.945312 197.855469 218.785156 L 197.855469 207.09375 C 198.644531 206.933594 199.457031 206.933594 200.246094 207.09375 Z M 200.246094 207.09375 "/>
</g>
<mask id="mask11">
  <g filter="url(#alpha)">
<rect x="0" y="0" width="400" height="278" style="fill:rgb(0%,0%,0%);fill-opacity:0.2;stroke:none;"/>
  </g>
</mask>
<clipPath id="clip12">
  <rect x="0" y="0" width="400" height="278"/>
</clipPath>
<g id="surface38" clip-path="url(#clip12)">
<path style=" stroke:none;fill-rule:nonzero;fill:rgb(0%,0%,0%);fill-opacity:1;" d="M 200.246094 241.28125 L 200.246094 252.972656 C 199.457031 253.132812 198.644531 253.132812 197.855469 252.972656 L 197.855469 241.28125 C 198.644531 241.121094 199.457031 241.121094 200.246094 241.28125 Z M 200.246094 241.28125 "/>
</g>
<mask id="mask12">
  <g filter="url(#alpha)">
<rect x="0" y="0" width="400" height="278" style="fill:rgb(0%,0%,0%);fill-opacity:0.2;stroke:none;"/>
  </g>
</mask>
<clipPath id="clip13">
  <rect x="0" y="0" width="400" height="278"/>
</clipPath>
<g id="surface41" clip-path="url(#clip13)">
<path style=" stroke:none;fill-rule:nonzero;fill:rgb(0%,0%,0%);fill-opacity:1;" d="M 215.113281 257.925781 L 215.113281 269.617188 C 214.324219 269.777344 213.511719 269.777344 212.722656 269.617188 L 212.722656 257.925781 C 213.511719 257.765625 214.324219 257.765625 215.113281 257.925781 Z M 215.113281 257.925781 "/>
</g>
<mask id="mask13">
  <g filter="url(#alpha)">
<rect x="0" y="0" width="400" height="278" style="fill:rgb(0%,0%,0%);fill-opacity:0.2;stroke:none;"/>
  </g>
</mask>
<clipPath id="clip14">
  <rect x="0" y="0" width="400" height="278"/>
</clipPath>
<g id="surface44" clip-path="url(#clip14)">
<path style=" stroke:none;fill-rule:nonzero;fill:rgb(0%,0%,0%);fill-opacity:1;" d="M 225.488281 232.527344 L 233.921875 240.640625 C 233.488281 241.320312 232.925781 241.902344 232.261719 242.359375 L 223.832031 234.246094 C 224.265625 233.566406 224.828125 232.984375 225.488281 232.527344 Z M 225.488281 232.527344 "/>
</g>
<mask id="mask14">
  <g filter="url(#alpha)">
<rect x="0" y="0" width="400" height="278" style="fill:rgb(0%,0%,0%);fill-opacity:0.2;stroke:none;"/>
  </g>
</mask>
<clipPath id="clip15">
  <rect x="0" y="0" width="400" height="278"/>
</clipPath>
<g id="surface47" clip-path="url(#clip15)">
<path style=" stroke:none;fill-rule:nonzero;fill:rgb(0%,0%,0%);fill-opacity:1;" d="M 227.292969 245.574219 L 235.722656 253.6875 C 235.289062 254.363281 234.726562 254.949219 234.0625 255.40625 L 225.632812 247.289062 C 226.066406 246.613281 226.628906 246.027344 227.292969 245.574219 Z M 227.292969 245.574219 "/>
</g>
<mask id="mask15">
  <g filter="url(#alpha)">
<rect x="0" y="0" width="400" height="278" style="fill:rgb(0%,0%,0%);fill-opacity:0.2;stroke:none;"/>
  </g>
</mask>
<clipPath id="clip16">
  <rect x="0" y="0" width="400" height="278"/>
</clipPath>
<g id="surface50" clip-path="url(#clip16)">
<path style=" stroke:none;fill-rule:nonzero;fill:rgb(0%,0%,0%);fill-opacity:1;" d="M 173.6875 248.722656 L 182.121094 256.835938 C 181.6875 257.515625 181.121094 258.097656 180.460938 258.554688 L 172.03125 250.441406 C 172.460938 249.761719 173.027344 249.179688 173.6875 248.722656 Z M 173.6875 248.722656 "/>
</g>
<mask id="mask16">
  <g filter="url(#alpha)">
<rect x="0" y="0" width="400" height="278" style="fill:rgb(0%,0%,0%);fill-opacity:0.2;stroke:none;"/>
  </g>
</mask>
<clipPath id="clip17">
  <rect x="0" y="0" width="400" height="278"/>
</clipPath>
<g id="surface53" clip-path="url(#clip17)">
<path style=" stroke:none;fill-rule:nonzero;fill:rgb(0%,0%,0%);fill-opacity:1;" d="M 159.683594 142.195312 L 161.9375 142.195312 L 161.9375 158.839844 L 159.683594 158.839844 Z M 159.683594 142.195312 "/>
</g>
<mask id="mask17">
  <g filter="url(#alpha)">
<rect x="0" y="0" width="400" height="278" style="fill:rgb(0%,0%,0%);fill-opacity:0.2;stroke:none;"/>
  </g>
</mask>
<clipPath id="clip18">
  <rect x="0" y="0" width="400" height="278"/>
</clipPath>
<g id="surface56" clip-path="url(#clip18)">
<path style=" stroke:none;fill-rule:nonzero;fill:rgb(0%,0%,0%);fill-opacity:1;" d="M 172.746094 142.195312 L 175 142.195312 L 175 158.839844 L 172.746094 158.839844 Z M 172.746094 142.195312 "/>
</g>
<mask id="mask18">
  <g filter="url(#alpha)">
<rect x="0" y="0" width="400" height="278" style="fill:rgb(0%,0%,0%);fill-opacity:0.2;stroke:none;"/>
  </g>
</mask>
<clipPath id="clip19">
  <rect x="0" y="0" width="400" height="278"/>
</clipPath>
<g id="surface59" clip-path="url(#clip19)">
<path style=" stroke:none;fill-rule:nonzero;fill:rgb(0%,0%,0%);fill-opacity:1;" d="M 185.8125 142.195312 L 188.0625 142.195312 L 188.0625 158.839844 L 185.8125 158.839844 Z M 185.8125 142.195312 "/>
</g>
<mask id="mask19">
  <g filter="url(#alpha)">
<rect x="0" y="0" width="400" height="278" style="fill:rgb(0%,0%,0%);fill-opacity:0.2;stroke:none;"/>
  </g>
</mask>
<clipPath id="clip20">
  <rect x="0" y="0" width="400" height="278"/>
</clipPath>
<g id="surface62" clip-path="url(#clip20)">
<path style=" stroke:none;fill-rule:nonzero;fill:rgb(0%,0%,0%);fill-opacity:1;" d="M 198.875 142.195312 L 201.125 142.195312 L 201.125 158.839844 L 198.875 158.839844 Z M 198.875 142.195312 "/>
</g>
<mask id="mask20">
  <g filter="url(#alpha)">
<rect x="0" y="0" width="400" height="278" style="fill:rgb(0%,0%,0%);fill-opacity:0.2;stroke:none;"/>
  </g>
</mask>
<clipPath id="clip21">
  <rect x="0" y="0" width="400" height="278"/>
</clipPath>
<g id="surface65" clip-path="url(#clip21)">
<path style=" stroke:none;fill-rule:nonzero;fill:rgb(0%,0%,0%);fill-opacity:1;" d="M 211.9375 142.195312 L 214.1875 142.195312 L 214.1875 158.839844 L 211.9375 158.839844 Z M 211.9375 142.195312 "/>
</g>
<mask id="mask21">
  <g filter="url(#alpha)">
<rect x="0" y="0" width="400" height="278" style="fill:rgb(0%,0%,0%);fill-opacity:0.2;stroke:none;"/>
  </g>
</mask>
<clipPath id="clip22">
  <rect x="0" y="0" width="400" height="278"/>
</clipPath>
<g id="surface68" clip-path="url(#clip22)">
<path style=" stroke:none;fill-rule:nonzero;fill:rgb(0%,0%,0%);fill-opacity:1;" d="M 225 142.195312 L 227.253906 142.195312 L 227.253906 158.839844 L 225 158.839844 Z M 225 142.195312 "/>
</g>
<mask id="mask22">
  <g filter="url(#alpha)">
<rect x="0" y="0" width="400" height="278" style="fill:rgb(0%,0%,0%);fill-opacity:0.2;stroke:none;"/>
  </g>
</mask>
<clipPath id="clip23">
  <rect x="0" y="0" width="400" height="278"/>
</clipPath>
<g id="surface71" clip-path="url(#clip23)">
<path style=" stroke:none;fill-rule:nonzero;fill:rgb(0%,0%,0%);fill-opacity:1;" d="M 238.0625 142.195312 L 240.316406 142.195312 L 240.316406 158.839844 L 238.0625 158.839844 Z M 238.0625 142.195312 "/>
</g>
</defs>
<g id="surface1">
<path style=" stroke:none;fill-rule:nonzero;fill:rgb(18.431373%,18.039216%,25.490196%);fill-opacity:1;" d="M 334.214844 42.753906 L 303.359375 43.054688 C 301.90625 35.921875 297.035156 17.214844 301.421875 12.109375 C 301.839844 8.121094 305.324219 5.164062 309.335938 5.398438 C 314.117188 -2.078125 322.082031 -0.953125 327.46875 3.714844 C 332.886719 5.582031 334.929688 8.898438 334.214844 13.402344 C 338.226562 16.910156 338.96875 21.175781 337.167969 26.035156 Z M 334.214844 42.753906 "/>
<path style=" stroke:none;fill-rule:nonzero;fill:rgb(100%,72.54902%,72.54902%);fill-opacity:1;" d="M 331.246094 61.738281 L 308.980469 58.660156 L 304.53125 52.160156 C 310.664062 48.097656 312.832031 42.421875 310.007812 34.714844 L 325.421875 34.375 C 324.699219 41.238281 326.972656 46.550781 333.300781 49.765625 Z M 331.246094 61.738281 "/>
<path style=" stroke:none;fill-rule:nonzero;fill:rgb(90.196078%,90.196078%,90.196078%);fill-opacity:1;" d="M 303.71875 262.265625 L 302.867188 273.886719 C 302.789062 274.949219 303.175781 275.996094 303.925781 276.753906 C 304.675781 277.515625 305.71875 277.914062 306.785156 277.847656 L 312.761719 277.488281 C 313.324219 277.453125 313.839844 277.171875 314.171875 276.71875 C 314.503906 276.265625 314.617188 275.691406 314.480469 275.144531 L 311.164062 261.890625 Z M 303.71875 262.265625 "/>
<path style=" stroke:none;fill-rule:nonzero;fill:rgb(90.196078%,90.196078%,90.196078%);fill-opacity:1;" d="M 323.070312 261.894531 L 319.753906 275.144531 C 319.617188 275.691406 319.730469 276.265625 320.0625 276.71875 C 320.394531 277.171875 320.910156 277.453125 321.472656 277.488281 L 327.449219 277.847656 C 328.515625 277.914062 329.558594 277.515625 330.308594 276.753906 C 331.058594 275.996094 331.445312 274.949219 331.367188 273.886719 L 330.515625 262.265625 Z M 323.070312 261.894531 "/>
<path style=" stroke:none;fill-rule:nonzero;fill:rgb(42.352941%,38.823529%,100%);fill-opacity:1;" d="M 330.902344 263.878906 L 322.835938 263.070312 L 314.804688 177.34375 L 311.769531 262.792969 L 303.84375 262.511719 L 290.488281 144.167969 L 341.519531 144.167969 Z M 330.902344 263.878906 "/>
<path style=" stroke:none;fill-rule:nonzero;fill:rgb(100%,72.54902%,72.54902%);fill-opacity:1;" d="M 333.984375 24.796875 C 333.984375 33.296875 327.082031 40.1875 318.570312 40.1875 C 310.058594 40.1875 303.160156 33.296875 303.160156 24.796875 C 303.160156 16.296875 310.058594 9.40625 318.570312 9.40625 C 327.082031 9.40625 333.984375 16.296875 333.984375 24.796875 Z M 333.984375 24.796875 "/>
<path style=" stroke:none;fill-rule:nonzero;fill:rgb(42.352941%,38.823529%,100%);fill-opacity:1;" d="M 349.054688 146.902344 L 286.71875 147.585938 C 295.96875 112.417969 301.503906 79.75 291.855469 57.289062 L 307.269531 49.765625 C 314.699219 57.507812 322.976562 56.707031 331.929688 49.082031 L 346.65625 52.84375 C 344.132812 82.296875 345.265625 113.839844 349.054688 146.902344 Z M 349.054688 146.902344 "/>
<path style=" stroke:none;fill-rule:nonzero;fill:rgb(100%,72.54902%,72.54902%);fill-opacity:1;" d="M 269.59375 110.648438 L 308.296875 126.039062 L 316.949219 128.582031 C 317.730469 128.808594 318.574219 128.710938 319.28125 128.308594 C 319.988281 127.902344 320.5 127.226562 320.699219 126.4375 C 321.050781 125.023438 320.332031 123.558594 318.992188 122.972656 L 310.007812 120.222656 L 282.953125 104.492188 L 288.601562 89.613281 L 276.785156 83.285156 Z M 269.59375 110.648438 "/>
<path style=" stroke:none;fill-rule:nonzero;fill:rgb(42.352941%,38.823529%,100%);fill-opacity:1;" d="M 269.9375 82.601562 C 277.300781 85.46875 283.15625 90.367188 287.746094 96.964844 L 302.132812 76.101562 L 291.855469 57.289062 Z M 269.9375 82.601562 "/>
<path style=" stroke:none;fill-rule:nonzero;fill:rgb(18.431373%,18.039216%,25.490196%);fill-opacity:1;" d="M 335.941406 22.304688 C 329.6875 20.691406 323.535156 20.472656 317.558594 22.515625 C 313.75 24.355469 309.175781 24.1875 304.089844 22.667969 L 304.089844 7.3125 L 331.550781 8.042969 Z M 335.941406 22.304688 "/>
<path style=" stroke:none;fill-rule:nonzero;fill:rgb(24.705882%,23.921569%,33.72549%);fill-opacity:1;" d="M 308.167969 92.714844 C 305.648438 92.71875 303.605469 94.757812 303.605469 97.273438 L 305.40625 134.9375 C 305.410156 137.457031 307.449219 139.496094 309.96875 139.496094 L 330.570312 139.496094 C 333.089844 139.496094 335.132812 137.457031 335.136719 134.9375 L 336.9375 97.273438 C 336.933594 94.757812 334.890625 92.71875 332.371094 92.714844 Z M 308.167969 92.714844 "/>
<path style=" stroke:none;fill-rule:nonzero;fill:rgb(100%,72.54902%,72.54902%);fill-opacity:1;" d="M 366.617188 107.800781 L 332.882812 121.214844 L 330.335938 122.226562 C 330.257812 122.257812 330.175781 122.285156 330.089844 122.3125 L 321.5625 124.820312 C 320.472656 125.140625 318.964844 123.671875 318.082031 122.660156 C 317.179688 121.652344 317.148438 120.136719 318.007812 119.09375 C 318.125 118.957031 318.257812 118.832031 318.394531 118.71875 C 318.726562 118.464844 319.113281 118.292969 319.523438 118.226562 L 328.039062 116.550781 C 328.347656 116.492188 328.640625 116.382812 328.910156 116.226562 L 332.882812 113.914062 L 353.507812 101.921875 C 354.695312 101.234375 355.207031 99.792969 354.722656 98.511719 L 350.785156 88.144531 C 350.285156 86.832031 350.835938 85.351562 352.078125 84.6875 L 358.597656 81.199219 C 359.355469 80.792969 360.253906 80.757812 361.039062 81.097656 C 361.824219 81.441406 362.410156 82.125 362.625 82.953125 L 368.289062 104.492188 C 368.648438 105.859375 367.929688 107.277344 366.617188 107.800781 Z M 366.617188 107.800781 "/>
<path style=" stroke:none;fill-rule:nonzero;fill:rgb(42.352941%,38.823529%,100%);fill-opacity:1;" d="M 368.578125 78.839844 C 361.214844 81.707031 355.355469 86.601562 350.765625 93.203125 L 336.382812 72.339844 L 346.65625 52.84375 Z M 368.578125 78.839844 "/>
<path style=" stroke:none;fill-rule:nonzero;fill:rgb(100%,100%,100%);fill-opacity:1;" d="M 328.828125 38.496094 C 322.085938 41.296875 315.015625 41.183594 307.65625 38.496094 C 309.800781 34.847656 306.597656 31.988281 304.953125 28.304688 L 332.433594 27.488281 C 330.332031 30.6875 327.230469 34.46875 328.828125 38.496094 Z M 328.828125 38.496094 "/>
<path style=" stroke:none;fill-rule:nonzero;fill:rgb(100%,100%,100%);fill-opacity:1;" d="M 332.140625 28.097656 L 331.824219 27.777344 L 332.273438 27.328125 L 334.964844 24.191406 L 335.304688 24.484375 L 332.605469 27.632812 Z M 332.140625 28.097656 "/>
<path style=" stroke:none;fill-rule:nonzero;fill:rgb(100%,100%,100%);fill-opacity:1;" d="M 302.785156 26.535156 L 303.070312 26.191406 L 305.773438 28.441406 L 305.488281 28.785156 Z M 302.785156 26.535156 "/>
<path style=" stroke:none;fill-rule:nonzero;fill:rgb(100%,100%,100%);fill-opacity:1;" d="M 328.1875 38.164062 L 332.917969 30.742188 L 333.296875 30.984375 L 328.566406 38.40625 Z M 328.1875 38.164062 "/>
<path style=" stroke:none;fill-rule:nonzero;fill:rgb(100%,100%,100%);fill-opacity:1;" d="M 303.1875 30.984375 L 303.570312 30.742188 L 308.296875 38.164062 L 307.917969 38.40625 Z M 303.1875 30.984375 "/>
<path style=" stroke:none;fill-rule:nonzero;fill:rgb(100%,100%,100%);fill-opacity:1;" d="M 333.785156 113.277344 L 333.785156 121.429688 L 330.941406 122.558594 C 330.851562 122.59375 330.761719 122.625 330.667969 122.652344 L 321.148438 125.449219 C 319.929688 125.808594 318.246094 124.171875 317.261719 123.039062 C 316.253906 121.914062 316.21875 120.222656 317.179688 119.058594 C 317.3125 118.90625 317.457031 118.765625 317.613281 118.640625 C 317.980469 118.355469 318.414062 118.167969 318.871094 118.089844 L 328.378906 116.222656 C 328.71875 116.15625 329.046875 116.03125 329.347656 115.859375 Z M 333.785156 113.277344 "/>
<path style=" stroke:none;fill-rule:nonzero;fill:rgb(24.705882%,23.921569%,33.72549%);fill-opacity:1;" d="M 337.902344 84.210938 L 336.273438 84.210938 C 336.273438 61.21875 331.53125 45.195312 326.914062 45.195312 L 326.507812 43.570312 C 330.648438 43.570312 333.289062 50.238281 334.777344 55.832031 C 336.792969 63.417969 337.902344 73.496094 337.902344 84.210938 Z M 337.902344 84.210938 "/>
<path style=" stroke:none;fill-rule:nonzero;fill:rgb(24.705882%,23.921569%,33.72549%);fill-opacity:1;" d="M 300.460938 78.519531 L 298.832031 78.519531 C 298.832031 57.464844 303.605469 44.382812 310.636719 44.382812 L 310.226562 46.007812 C 305.367188 46.007812 300.460938 56.0625 300.460938 78.519531 Z M 300.460938 78.519531 "/>
<path style=" stroke:none;fill-rule:nonzero;fill:rgb(24.705882%,23.921569%,33.72549%);fill-opacity:1;" d="M 341.15625 84.617188 C 341.15625 86.863281 339.335938 88.679688 337.085938 88.679688 C 334.839844 88.679688 333.015625 86.863281 333.015625 84.617188 C 333.015625 82.371094 334.839844 80.554688 337.085938 80.554688 C 339.335938 80.554688 341.15625 82.371094 341.15625 84.617188 Z M 341.15625 84.617188 "/>
<path style=" stroke:none;fill-rule:nonzero;fill:rgb(24.705882%,23.921569%,33.72549%);fill-opacity:1;" d="M 293.949219 88.273438 L 292.324219 88.273438 C 292.324219 82.449219 295.609375 77.707031 299.648438 77.707031 L 299.648438 79.332031 C 296.507812 79.332031 293.949219 83.34375 293.949219 88.273438 Z M 293.949219 88.273438 "/>
<path style=" stroke:none;fill-rule:nonzero;fill:rgb(24.705882%,23.921569%,33.72549%);fill-opacity:1;" d="M 306.972656 88.273438 L 305.34375 88.273438 C 305.34375 83.34375 302.789062 79.332031 299.648438 79.332031 L 299.648438 77.707031 C 303.6875 77.707031 306.972656 82.449219 306.972656 88.273438 Z M 306.972656 88.273438 "/>
<path style=" stroke:none;fill-rule:nonzero;fill:rgb(24.705882%,23.921569%,33.72549%);fill-opacity:1;" d="M 307.785156 88.679688 C 307.785156 89.578125 307.058594 90.304688 306.160156 90.304688 C 305.261719 90.304688 304.53125 89.578125 304.53125 88.679688 C 304.53125 87.78125 305.261719 87.054688 306.160156 87.054688 C 307.058594 87.054688 307.785156 87.78125 307.785156 88.679688 Z M 307.785156 88.679688 "/>
<path style=" stroke:none;fill-rule:nonzero;fill:rgb(24.705882%,23.921569%,33.72549%);fill-opacity:1;" d="M 294.765625 88.679688 C 294.765625 89.578125 294.035156 90.304688 293.136719 90.304688 C 292.238281 90.304688 291.507812 89.578125 291.507812 88.679688 C 291.507812 87.78125 292.238281 87.054688 293.136719 87.054688 C 294.035156 87.054688 294.765625 87.78125 294.765625 88.679688 Z M 294.765625 88.679688 "/>
<path style=" stroke:none;fill-rule:nonzero;fill:rgb(18.431373%,18.039216%,25.490196%);fill-opacity:1;" d="M 96.96875 34.050781 L 68.378906 38.886719 C 66.917969 39.136719 65.503906 38.238281 65.105469 36.8125 C 63.039062 29.367188 58.722656 19.65625 62.914062 14.78125 C 63.359375 10.519531 67.082031 7.359375 71.363281 7.613281 C 76.46875 -0.371094 84.976562 0.828125 90.726562 5.8125 C 96.511719 7.808594 98.695312 11.351562 97.929688 16.15625 C 100.429688 18.339844 101.742188 20.804688 102.015625 23.503906 C 102.28125 26.546875 101.222656 29.554688 99.109375 31.757812 Z M 96.96875 34.050781 "/>
<path style=" stroke:none;fill-rule:nonzero;fill:rgb(62.352941%,38.039216%,41.568627%);fill-opacity:1;" d="M 92.523438 56.527344 L 70.363281 55.226562 C 72.535156 50.246094 73.402344 45.453125 72.535156 40.90625 L 89.046875 40.90625 C 89.011719 44.398438 90.75 50.4375 92.523438 56.527344 Z M 92.523438 56.527344 "/>
<path style=" stroke:none;fill-rule:nonzero;fill:rgb(90.196078%,90.196078%,90.196078%);fill-opacity:1;" d="M 65.847656 261.035156 L 64.9375 273.445312 C 64.855469 274.582031 65.265625 275.699219 66.070312 276.511719 C 66.871094 277.320312 67.984375 277.746094 69.121094 277.675781 L 75.503906 277.292969 C 76.105469 277.253906 76.65625 276.953125 77.011719 276.472656 C 77.363281 275.988281 77.484375 275.371094 77.339844 274.792969 L 73.796875 260.640625 Z M 65.847656 261.035156 "/>
<path style=" stroke:none;fill-rule:nonzero;fill:rgb(90.196078%,90.196078%,90.196078%);fill-opacity:1;" d="M 86.511719 260.640625 L 82.96875 274.792969 C 82.824219 275.371094 82.945312 275.988281 83.296875 276.472656 C 83.652344 276.953125 84.203125 277.253906 84.804688 277.292969 L 91.1875 277.675781 C 92.324219 277.746094 93.4375 277.320312 94.238281 276.511719 C 95.042969 275.699219 95.453125 274.582031 95.371094 273.445312 L 94.460938 261.035156 Z M 86.511719 260.640625 "/>
<path style=" stroke:none;fill-rule:nonzero;fill:rgb(42.352941%,38.823529%,100%);fill-opacity:1;" d="M 94.875 262.757812 L 86.261719 261.894531 L 77.683594 170.355469 L 74.445312 261.601562 L 65.980469 261.296875 L 51.71875 134.925781 L 106.210938 134.925781 Z M 94.875 262.757812 "/>
<path style=" stroke:none;fill-rule:nonzero;fill:rgb(62.352941%,38.039216%,41.568627%);fill-opacity:1;" d="M 97.683594 29.738281 C 97.683594 38.816406 90.316406 46.171875 81.226562 46.171875 C 72.136719 46.171875 64.769531 38.816406 64.769531 29.738281 C 64.769531 20.660156 72.136719 13.300781 81.226562 13.300781 C 90.316406 13.300781 97.683594 20.660156 97.683594 29.738281 Z M 97.683594 29.738281 "/>
<path style=" stroke:none;fill-rule:nonzero;fill:rgb(18.431373%,18.039216%,25.490196%);fill-opacity:1;" d="M 99.777344 21.886719 C 93.097656 20.722656 86.527344 20.566406 80.144531 22.039062 C 76.078125 23.367188 71.195312 23.246094 65.761719 22.148438 L 65.761719 11.066406 L 95.085938 11.59375 Z M 99.777344 21.886719 "/>
<path style=" stroke:none;fill-rule:nonzero;fill:rgb(100%,100%,100%);fill-opacity:1;" d="M 92.179688 42.925781 C 84.980469 45.914062 77.429688 45.792969 69.570312 42.925781 C 71.859375 39.027344 68.441406 35.976562 66.6875 32.039062 L 96.027344 31.167969 C 93.785156 34.585938 90.472656 38.625 92.179688 42.925781 Z M 92.179688 42.925781 "/>
<path style=" stroke:none;fill-rule:nonzero;fill:rgb(100%,100%,100%);fill-opacity:1;" d="M 64.378906 30.140625 L 64.664062 29.796875 L 67.550781 32.199219 L 67.261719 32.542969 Z M 64.378906 30.140625 "/>
<path style=" stroke:none;fill-rule:nonzero;fill:rgb(100%,100%,100%);fill-opacity:1;" d="M 91.507812 42.578125 L 96.558594 34.652344 L 96.9375 34.894531 L 91.886719 42.820312 Z M 91.507812 42.578125 "/>
<path style=" stroke:none;fill-rule:nonzero;fill:rgb(100%,100%,100%);fill-opacity:1;" d="M 64.8125 34.894531 L 65.191406 34.652344 L 70.242188 42.578125 L 69.863281 42.820312 Z M 64.8125 34.894531 "/>
<path style=" stroke:none;fill-rule:nonzero;fill:rgb(42.352941%,38.823529%,100%);fill-opacity:1;" d="M 49.9375 104.699219 L 37.335938 96.886719 L 48.082031 65.453125 C 49.28125 62.207031 51.578125 59.484375 54.574219 57.753906 L 58.195312 55.660156 L 58.507812 87.371094 Z M 49.9375 104.699219 "/>
<path style=" stroke:none;fill-rule:nonzero;fill:rgb(42.352941%,38.823529%,100%);fill-opacity:1;" d="M 104.410156 119.964844 L 102.546875 104.015625 C 102.445312 95.597656 103.878906 87.460938 107.300781 79.960938 L 109.039062 56.527344 L 89.917969 48.714844 C 89.859375 49.105469 89.808594 49.496094 89.753906 49.882812 L 80.789062 54.359375 L 72.050781 52.375 L 72.101562 49.585938 L 54.71875 57.394531 C 60.464844 84.082031 57.332031 111.796875 47.445312 144.535156 L 70.34375 150.785156 L 70.535156 139.804688 L 90.945312 138.351562 C 91.152344 141.914062 91.324219 145.410156 91.421875 148.832031 C 102.9375 153.066406 103.332031 152.996094 113.824219 146.933594 C 109.648438 138.160156 106.339844 129.03125 104.410156 119.964844 Z M 104.410156 119.964844 "/>
<path style=" stroke:none;fill-rule:nonzero;fill:rgb(42.352941%,38.823529%,100%);fill-opacity:1;" d="M 133.808594 100.792969 L 122.074219 96.886719 L 103.304688 75.066406 L 109.035156 56.527344 L 135.109375 92.980469 Z M 133.808594 100.792969 "/>
<path style=" stroke:none;fill-rule:nonzero;fill:rgb(90.196078%,90.196078%,90.196078%);fill-opacity:1;" d="M 97.035156 117.683594 C 97.433594 119.433594 99.179688 120.535156 100.933594 120.140625 L 110.894531 117.886719 L 109.453125 111.539062 L 99.496094 113.789062 C 97.738281 114.1875 96.636719 115.929688 97.035156 117.683594 Z M 97.035156 117.683594 "/>
<path style=" stroke:none;fill-rule:nonzero;fill:rgb(42.352941%,38.823529%,100%);fill-opacity:1;" d="M 105.996094 110.339844 L 111.644531 120.753906 C 121.144531 118.109375 129.382812 109.765625 137.285156 99.925781 L 135.109375 92.980469 L 121.640625 96.453125 Z M 105.996094 110.339844 "/>
<path style=" stroke:none;fill-rule:nonzero;fill:rgb(90.196078%,90.196078%,90.196078%);fill-opacity:1;" d="M 32.335938 77.667969 L 43.183594 79.601562 L 67.972656 114.800781 L 54.800781 111.707031 Z M 32.335938 77.667969 "/>
<path style=" stroke:none;fill-rule:nonzero;fill:rgb(24.705882%,23.921569%,33.72549%);fill-opacity:1;" d="M 30.414062 77.238281 C 30.078125 77.242188 29.769531 77.429688 29.613281 77.730469 C 29.457031 78.027344 29.472656 78.386719 29.65625 78.664062 L 52.828125 113.773438 C 52.957031 113.96875 53.15625 114.109375 53.386719 114.164062 L 64.167969 116.695312 C 64.539062 116.785156 64.925781 116.632812 65.140625 116.316406 C 65.355469 116 65.351562 115.585938 65.132812 115.273438 L 39.691406 79.148438 C 39.550781 78.949219 39.339844 78.8125 39.101562 78.773438 L 30.589844 77.253906 C 30.53125 77.242188 30.472656 77.238281 30.414062 77.238281 Z M 30.414062 77.238281 "/>
<path style=" stroke:none;fill-rule:nonzero;fill:rgb(90.196078%,90.196078%,90.196078%);fill-opacity:1;" d="M 44.867188 102.339844 L 45.511719 108.816406 L 55.675781 107.8125 C 57.464844 107.632812 58.773438 106.039062 58.597656 104.25 C 58.417969 102.460938 56.820312 101.15625 55.03125 101.332031 Z M 44.867188 102.339844 "/>
<path style=" stroke:none;fill-rule:nonzero;fill:rgb(42.352941%,38.823529%,100%);fill-opacity:1;" d="M 36.03125 101.589844 C 36.0625 106.1875 39.800781 109.898438 44.40625 109.90625 L 46.074219 109.90625 L 47.292969 99.78125 L 37.21875 96.160156 Z M 36.03125 101.589844 "/>
<path style=" stroke:none;fill-rule:nonzero;fill:rgb(100%,100%,100%);fill-opacity:1;" d="M 95.226562 32.289062 L 94.90625 31.972656 L 95.386719 31.492188 L 98.261719 28.140625 L 98.605469 28.433594 L 95.71875 31.796875 Z M 95.226562 32.289062 "/>
<path style=" stroke:none;fill-rule:nonzero;fill:rgb(24.705882%,23.921569%,33.72549%);fill-opacity:1;" d="M 0 277.148438 L 400 277.148438 L 400 278.046875 L 0 278.046875 Z M 0 277.148438 "/>
<path style=" stroke:none;fill-rule:nonzero;fill:rgb(90.196078%,90.196078%,90.196078%);fill-opacity:1;" d="M 152.703125 276.699219 L 247.296875 276.699219 L 247.296875 162.117188 C 247.296875 156.050781 241.3125 151.113281 233.957031 151.113281 L 166.042969 151.113281 C 158.6875 151.113281 152.703125 156.050781 152.703125 162.117188 Z M 152.703125 276.699219 "/>
<path style=" stroke:none;fill-rule:nonzero;fill:rgb(100%,100%,100%);fill-opacity:1;" d="M 159.910156 271.960938 L 240.089844 271.960938 L 240.089844 174.839844 C 240.089844 169.695312 235.019531 165.511719 228.78125 165.511719 L 171.21875 165.511719 C 164.980469 165.511719 159.910156 169.695312 159.910156 174.839844 Z M 159.910156 271.960938 "/>
<path style=" stroke:none;fill-rule:nonzero;fill:rgb(24.705882%,23.921569%,33.72549%);fill-opacity:1;" d="M 151.988281 142.195312 C 149.648438 142.195312 147.746094 143.765625 147.746094 145.695312 L 147.746094 155.789062 C 147.746094 157.71875 149.648438 159.289062 151.988281 159.289062 L 248.011719 159.289062 C 250.351562 159.289062 252.253906 157.71875 252.253906 155.789062 L 252.253906 145.695312 C 252.253906 143.765625 250.351562 142.195312 248.011719 142.195312 Z M 151.988281 142.195312 "/>
<path style=" stroke:none;fill-rule:nonzero;fill:rgb(24.705882%,23.921569%,33.72549%);fill-opacity:1;" d="M 171.703125 259.507812 C 169.417969 259.511719 167.566406 261.363281 167.558594 263.644531 C 167.566406 265.925781 169.417969 267.773438 171.703125 267.78125 L 179.457031 267.78125 L 179.457031 259.507812 Z M 171.703125 259.507812 "/>
<path style=" stroke:none;fill-rule:nonzero;fill:rgb(42.352941%,38.823529%,100%);fill-opacity:1;" d="M 186.574219 259.507812 L 179.03125 259.507812 L 179.03125 267.78125 L 186.574219 267.78125 C 188.859375 267.773438 190.710938 265.925781 190.714844 263.644531 C 190.710938 261.363281 188.859375 259.511719 186.574219 259.507812 Z M 186.574219 259.507812 "/>
<use xlink:href="#surface5" mask="url(#mask0)"/>
<path style=" stroke:none;fill-rule:nonzero;fill:rgb(24.705882%,23.921569%,33.72549%);fill-opacity:1;" d="M 206.695312 197.191406 C 205.121094 195.535156 202.503906 195.460938 200.839844 197.019531 C 199.179688 198.589844 199.101562 201.203125 200.664062 202.867188 L 205.984375 208.503906 L 212.011719 202.828125 Z M 206.695312 197.191406 "/>
<path style=" stroke:none;fill-rule:nonzero;fill:rgb(42.352941%,38.823529%,100%);fill-opacity:1;" d="M 216.894531 208 L 211.722656 202.519531 L 205.691406 208.195312 L 210.867188 213.675781 C 212.4375 215.328125 215.054688 215.40625 216.722656 213.847656 C 218.378906 212.277344 218.457031 209.664062 216.894531 208 Z M 216.894531 208 "/>
<use xlink:href="#surface8" mask="url(#mask1)"/>
<path style=" stroke:none;fill-rule:nonzero;fill:rgb(24.705882%,23.921569%,33.72549%);fill-opacity:1;" d="M 184.621094 210.238281 C 183.050781 208.582031 180.433594 208.503906 178.765625 210.066406 C 177.109375 211.636719 177.03125 214.246094 178.59375 215.914062 L 183.914062 221.546875 L 189.941406 215.871094 Z M 184.621094 210.238281 "/>
<path style=" stroke:none;fill-rule:nonzero;fill:rgb(42.352941%,38.823529%,100%);fill-opacity:1;" d="M 194.824219 221.042969 L 189.648438 215.5625 L 183.621094 221.238281 L 188.792969 226.71875 C 190.367188 228.375 192.984375 228.453125 194.648438 226.890625 C 196.308594 225.320312 196.386719 222.710938 194.824219 221.042969 Z M 194.824219 221.042969 "/>
<use xlink:href="#surface11" mask="url(#mask2)"/>
<path style=" stroke:none;fill-rule:nonzero;fill:rgb(24.705882%,23.921569%,33.72549%);fill-opacity:1;" d="M 206.695312 222.382812 C 205.121094 220.726562 202.503906 220.648438 200.839844 222.210938 C 199.179688 223.78125 199.101562 226.394531 200.664062 228.058594 L 205.984375 233.691406 L 212.011719 228.019531 Z M 206.695312 222.382812 "/>
<path style=" stroke:none;fill-rule:nonzero;fill:rgb(42.352941%,38.823529%,100%);fill-opacity:1;" d="M 216.894531 233.191406 L 211.722656 227.710938 L 205.691406 233.382812 L 210.867188 238.863281 C 212.4375 240.519531 215.054688 240.597656 216.722656 239.039062 C 218.378906 237.46875 218.457031 234.855469 216.894531 233.191406 Z M 216.894531 233.191406 "/>
<use xlink:href="#surface14" mask="url(#mask3)"/>
<path style=" stroke:none;fill-rule:nonzero;fill:rgb(24.705882%,23.921569%,33.72549%);fill-opacity:1;" d="M 220.160156 248.234375 C 221.796875 246.644531 221.84375 244.03125 220.261719 242.382812 C 218.667969 240.746094 216.050781 240.703125 214.402344 242.28125 L 208.824219 247.664062 L 214.582031 253.613281 Z M 220.160156 248.234375 "/>
<path style=" stroke:none;fill-rule:nonzero;fill:rgb(42.352941%,38.823529%,100%);fill-opacity:1;" d="M 209.464844 258.550781 L 214.886719 253.320312 L 209.132812 247.367188 L 203.707031 252.601562 C 202.066406 254.191406 202.023438 256.804688 203.605469 258.449219 C 205.199219 260.085938 207.816406 260.132812 209.464844 258.550781 Z M 209.464844 258.550781 "/>
<use xlink:href="#surface17" mask="url(#mask4)"/>
<path style=" stroke:none;fill-rule:nonzero;fill:rgb(24.705882%,23.921569%,33.72549%);fill-opacity:1;" d="M 190.429688 235.1875 C 192.070312 233.597656 192.113281 230.984375 190.53125 229.339844 C 188.9375 227.703125 186.320312 227.65625 184.671875 229.238281 L 179.097656 234.617188 L 184.851562 240.570312 Z M 190.429688 235.1875 "/>
<path style=" stroke:none;fill-rule:nonzero;fill:rgb(42.352941%,38.823529%,100%);fill-opacity:1;" d="M 179.734375 245.507812 L 185.15625 240.273438 L 179.402344 234.324219 L 173.976562 239.554688 C 172.339844 241.144531 172.292969 243.757812 173.875 245.40625 C 175.46875 247.042969 178.085938 247.085938 179.734375 245.507812 Z M 179.734375 245.507812 "/>
<use xlink:href="#surface20" mask="url(#mask5)"/>
<path style=" stroke:none;fill-rule:nonzero;fill:rgb(24.705882%,23.921569%,33.72549%);fill-opacity:1;" d="M 232.773438 219.445312 C 234.410156 217.855469 234.457031 215.242188 232.875 213.59375 C 231.28125 211.957031 228.664062 211.914062 227.015625 213.492188 L 221.4375 218.871094 L 227.195312 224.824219 Z M 232.773438 219.445312 "/>
<path style=" stroke:none;fill-rule:nonzero;fill:rgb(42.352941%,38.823529%,100%);fill-opacity:1;" d="M 222.074219 229.761719 L 227.5 224.527344 L 221.746094 218.578125 L 216.320312 223.808594 C 214.679688 225.402344 214.636719 228.015625 216.21875 229.660156 C 217.808594 231.296875 220.425781 231.34375 222.074219 229.761719 Z M 222.074219 229.761719 "/>
<use xlink:href="#surface23" mask="url(#mask6)"/>
<path style=" stroke:none;fill-rule:nonzero;fill:rgb(24.705882%,23.921569%,33.72549%);fill-opacity:1;" d="M 223.359375 252.074219 C 221.789062 250.417969 219.171875 250.339844 217.503906 251.898438 C 215.847656 253.46875 215.769531 256.082031 217.332031 257.746094 L 222.652344 263.382812 L 228.679688 257.707031 Z M 223.359375 252.074219 "/>
<path style=" stroke:none;fill-rule:nonzero;fill:rgb(42.352941%,38.823529%,100%);fill-opacity:1;" d="M 233.5625 262.878906 L 228.386719 257.398438 L 222.359375 263.074219 L 227.53125 268.554688 C 229.105469 270.210938 231.722656 270.289062 233.386719 268.726562 C 235.046875 267.15625 235.125 264.542969 233.5625 262.878906 Z M 233.5625 262.878906 "/>
<use xlink:href="#surface26" mask="url(#mask7)"/>
<path style=" stroke:none;fill-rule:nonzero;fill:rgb(24.705882%,23.921569%,33.72549%);fill-opacity:1;" d="M 194.082031 251.621094 C 192.507812 249.964844 189.894531 249.890625 188.226562 251.449219 C 186.566406 253.019531 186.488281 255.632812 188.054688 257.296875 L 193.371094 262.933594 L 199.402344 257.257812 Z M 194.082031 251.621094 "/>
<path style=" stroke:none;fill-rule:nonzero;fill:rgb(42.352941%,38.823529%,100%);fill-opacity:1;" d="M 204.28125 262.429688 L 199.109375 256.949219 L 193.082031 262.625 L 198.253906 268.105469 C 199.824219 269.761719 202.441406 269.835938 204.109375 268.277344 C 205.765625 266.707031 205.84375 264.09375 204.28125 262.429688 Z M 204.28125 262.429688 "/>
<use xlink:href="#surface29" mask="url(#mask8)"/>
<path style=" stroke:none;fill-rule:nonzero;fill:rgb(42.352941%,38.823529%,100%);fill-opacity:1;" d="M 202.324219 236.78125 C 202.324219 239.617188 200.324219 242.0625 197.542969 242.628906 C 196.753906 242.785156 195.941406 242.785156 195.152344 242.628906 C 192.371094 242.058594 190.375 239.617188 190.375 236.78125 C 190.375 233.945312 192.371094 231.5 195.152344 230.933594 C 195.941406 230.773438 196.753906 230.773438 197.542969 230.933594 C 200.324219 231.5 202.324219 233.945312 202.324219 236.78125 Z M 202.324219 236.78125 "/>
<use xlink:href="#surface32" mask="url(#mask9)"/>
<path style=" stroke:none;fill-rule:nonzero;fill:rgb(42.352941%,38.823529%,100%);fill-opacity:1;" d="M 205.027344 212.941406 C 205.027344 215.773438 203.027344 218.21875 200.246094 218.785156 C 199.457031 218.945312 198.644531 218.945312 197.855469 218.785156 C 195.074219 218.21875 193.078125 215.773438 193.078125 212.941406 C 193.078125 210.105469 195.074219 207.660156 197.855469 207.09375 C 198.644531 206.933594 199.457031 206.933594 200.246094 207.09375 C 203.027344 207.660156 205.027344 210.105469 205.027344 212.941406 Z M 205.027344 212.941406 "/>
<use xlink:href="#surface35" mask="url(#mask10)"/>
<path style=" stroke:none;fill-rule:nonzero;fill:rgb(42.352941%,38.823529%,100%);fill-opacity:1;" d="M 205.027344 247.128906 C 205.027344 249.960938 203.027344 252.40625 200.246094 252.972656 C 199.457031 253.132812 198.644531 253.132812 197.855469 252.972656 C 195.074219 252.40625 193.078125 249.960938 193.078125 247.128906 C 193.078125 244.292969 195.074219 241.847656 197.855469 241.28125 C 198.644531 241.121094 199.457031 241.121094 200.246094 241.28125 C 203.027344 241.847656 205.027344 244.292969 205.027344 247.128906 Z M 205.027344 247.128906 "/>
<use xlink:href="#surface38" mask="url(#mask11)"/>
<path style=" stroke:none;fill-rule:nonzero;fill:rgb(42.352941%,38.823529%,100%);fill-opacity:1;" d="M 219.890625 263.769531 C 219.890625 266.605469 217.894531 269.050781 215.113281 269.617188 C 214.324219 269.777344 213.511719 269.777344 212.722656 269.617188 C 209.941406 269.050781 207.941406 266.605469 207.941406 263.769531 C 207.941406 260.9375 209.941406 258.492188 212.722656 257.925781 C 213.511719 257.765625 214.324219 257.765625 215.113281 257.925781 C 217.894531 258.492188 219.890625 260.9375 219.890625 263.769531 Z M 219.890625 263.769531 "/>
<use xlink:href="#surface41" mask="url(#mask12)"/>
<path style=" stroke:none;fill-rule:nonzero;fill:rgb(42.352941%,38.823529%,100%);fill-opacity:1;" d="M 233.023438 233.148438 C 235.066406 235.117188 235.441406 238.25 233.921875 240.640625 C 233.488281 241.320312 232.925781 241.902344 232.261719 242.359375 C 229.921875 243.96875 226.773438 243.707031 224.730469 241.738281 C 222.6875 239.773438 222.308594 236.640625 223.832031 234.246094 C 224.265625 233.566406 224.828125 232.984375 225.488281 232.527344 C 227.828125 230.921875 230.976562 231.179688 233.023438 233.148438 Z M 233.023438 233.148438 "/>
<use xlink:href="#surface44" mask="url(#mask13)"/>
<path style=" stroke:none;fill-rule:nonzero;fill:rgb(42.352941%,38.823529%,100%);fill-opacity:1;" d="M 234.824219 246.195312 C 236.867188 248.160156 237.246094 251.292969 235.722656 253.6875 C 235.289062 254.363281 234.726562 254.949219 234.0625 255.40625 C 231.726562 257.011719 228.578125 256.753906 226.53125 254.785156 C 224.488281 252.816406 224.113281 249.683594 225.632812 247.289062 C 226.066406 246.613281 226.628906 246.027344 227.292969 245.574219 C 229.632812 243.964844 232.78125 244.226562 234.824219 246.195312 Z M 234.824219 246.195312 "/>
<use xlink:href="#surface47" mask="url(#mask14)"/>
<path style=" stroke:none;fill-rule:nonzero;fill:rgb(42.352941%,38.823529%,100%);fill-opacity:1;" d="M 181.21875 249.34375 C 183.265625 251.308594 183.640625 254.441406 182.121094 256.835938 C 181.6875 257.515625 181.121094 258.097656 180.460938 258.554688 C 178.121094 260.160156 174.972656 259.902344 172.929688 257.933594 C 170.882812 255.964844 170.507812 252.832031 172.03125 250.441406 C 172.460938 249.761719 173.027344 249.179688 173.6875 248.722656 C 176.027344 247.113281 179.175781 247.375 181.21875 249.34375 Z M 181.21875 249.34375 "/>
<use xlink:href="#surface50" mask="url(#mask15)"/>
<use xlink:href="#surface53" mask="url(#mask16)"/>
<use xlink:href="#surface56" mask="url(#mask17)"/>
<use xlink:href="#surface59" mask="url(#mask18)"/>
<use xlink:href="#surface62" mask="url(#mask19)"/>
<use xlink:href="#surface65" mask="url(#mask20)"/>
<use xlink:href="#surface68" mask="url(#mask21)"/>
<use xlink:href="#surface71" mask="url(#mask22)"/>
</g>
</svg>
