<?xml version="1.0" encoding="UTF-8"?>
<svg xmlns="http://www.w3.org/2000/svg" xmlns:xlink="http://www.w3.org/1999/xlink" width="773.97946" height="419.08428" viewBox="0 0 400 324" version="1.1">
<g id="surface1">
<path style=" stroke:none;fill-rule:nonzero;fill:rgb(94.901961%,94.901961%,94.901961%);fill-opacity:1;" d="M 319.191406 59.046875 C 317.113281 81.925781 311.195312 106.046875 301.917969 129.324219 C 290.441406 158.105469 274.761719 183.457031 256.574219 202.636719 L 255.566406 201.753906 C 273.664062 182.667969 289.273438 157.429688 300.699219 128.765625 C 311.027344 102.863281 317.171875 75.90625 318.472656 50.824219 L 319.761719 51.042969 C 319.625 53.691406 319.4375 56.359375 319.191406 59.046875 Z M 319.191406 59.046875 "/>
<path style=" stroke:none;fill-rule:nonzero;fill:rgb(94.901961%,94.901961%,94.901961%);fill-opacity:1;" d="M 327.464844 191.914062 C 301.917969 232.539062 270.925781 261.566406 240.195312 273.648438 L 239.574219 272.507812 C 270.089844 260.511719 300.902344 231.632812 326.332031 191.191406 Z M 327.464844 191.914062 "/>
<path style=" stroke:none;fill-rule:nonzero;fill:rgb(94.901961%,94.901961%,94.901961%);fill-opacity:1;" d="M 318.570312 87.53125 C 316.496094 110.40625 310.578125 134.53125 301.296875 157.804688 C 289.820312 186.585938 274.140625 211.9375 255.953125 231.117188 L 254.945312 230.238281 C 273.046875 211.152344 288.652344 185.910156 300.082031 157.25 C 310.410156 131.34375 316.550781 104.390625 317.855469 79.308594 L 319.144531 79.523438 C 319.007812 82.171875 318.816406 84.84375 318.570312 87.53125 Z M 318.570312 87.53125 "/>
<path style=" stroke:none;fill-rule:nonzero;fill:rgb(90.196078%,90.196078%,90.196078%);fill-opacity:1;" d="M 31.792969 146.261719 L 15.03125 146.261719 C 14.304688 146.265625 13.621094 145.933594 13.167969 145.367188 C 12.722656 144.8125 12.554688 144.085938 12.714844 143.390625 C 14.308594 136.351562 14.210938 129.03125 12.421875 122.035156 C 12.191406 121.09375 12.554688 120.105469 13.34375 119.539062 C 21.960938 113.34375 28.75 113.523438 33.515625 120.074219 C 33.730469 120.375 33.875 120.71875 33.933594 121.082031 C 35.207031 128.738281 35.277344 136.546875 34.144531 144.222656 C 33.980469 145.394531 32.976562 146.265625 31.792969 146.261719 Z M 31.792969 146.261719 "/>
<path style=" stroke:none;fill-rule:nonzero;fill:rgb(100%,100%,100%);fill-opacity:1;" d="M 26.597656 129.484375 L 20.832031 129.484375 C 20.167969 129.484375 19.628906 128.945312 19.628906 128.28125 C 19.628906 127.617188 20.167969 127.078125 20.832031 127.078125 L 26.597656 127.078125 C 27.257812 127.082031 27.796875 127.617188 27.796875 128.28125 C 27.796875 128.945312 27.257812 129.480469 26.597656 129.484375 Z M 26.597656 129.484375 "/>
<path style=" stroke:none;fill-rule:nonzero;fill:rgb(100%,100%,100%);fill-opacity:1;" d="M 26.597656 133.699219 L 20.832031 133.699219 C 20.167969 133.699219 19.628906 133.160156 19.628906 132.496094 C 19.628906 131.832031 20.167969 131.292969 20.832031 131.292969 L 26.597656 131.292969 C 27.257812 131.296875 27.796875 131.832031 27.796875 132.496094 C 27.796875 133.160156 27.257812 133.695312 26.597656 133.699219 Z M 26.597656 133.699219 "/>
<path style=" stroke:none;fill-rule:nonzero;fill:rgb(100%,100%,100%);fill-opacity:1;" d="M 26.597656 137.914062 L 20.832031 137.914062 C 20.167969 137.914062 19.628906 137.375 19.628906 136.710938 C 19.628906 136.046875 20.167969 135.507812 20.832031 135.507812 L 26.597656 135.507812 C 27.257812 135.511719 27.796875 136.046875 27.796875 136.710938 C 27.796875 137.375 27.257812 137.910156 26.597656 137.914062 Z M 26.597656 137.914062 "/>
<path style=" stroke:none;fill-rule:nonzero;fill:rgb(90.196078%,90.196078%,90.196078%);fill-opacity:1;" d="M 336.402344 221.070312 L 319.644531 221.070312 C 318.917969 221.074219 318.230469 220.742188 317.78125 220.175781 C 317.335938 219.621094 317.167969 218.894531 317.324219 218.203125 C 318.921875 211.160156 318.820312 203.839844 317.03125 196.847656 C 316.800781 195.902344 317.167969 194.914062 317.953125 194.351562 C 326.574219 188.152344 333.359375 188.332031 338.128906 194.886719 C 338.34375 195.183594 338.484375 195.527344 338.546875 195.890625 C 339.820312 203.546875 339.890625 211.355469 338.753906 219.03125 C 338.589844 220.203125 337.585938 221.074219 336.402344 221.070312 Z M 336.402344 221.070312 "/>
<path style=" stroke:none;fill-rule:nonzero;fill:rgb(100%,100%,100%);fill-opacity:1;" d="M 331.207031 204.292969 L 325.441406 204.292969 C 324.777344 204.292969 324.242188 203.753906 324.242188 203.089844 C 324.242188 202.429688 324.777344 201.890625 325.441406 201.890625 L 331.207031 201.890625 C 331.871094 201.890625 332.410156 202.429688 332.410156 203.089844 C 332.410156 203.753906 331.871094 204.292969 331.207031 204.292969 Z M 331.207031 204.292969 "/>
<path style=" stroke:none;fill-rule:nonzero;fill:rgb(100%,100%,100%);fill-opacity:1;" d="M 331.207031 208.507812 L 325.441406 208.507812 C 324.777344 208.507812 324.242188 207.96875 324.242188 207.304688 C 324.242188 206.644531 324.777344 206.105469 325.441406 206.105469 L 331.207031 206.105469 C 331.871094 206.105469 332.410156 206.640625 332.410156 207.304688 C 332.410156 207.96875 331.871094 208.507812 331.207031 208.507812 Z M 331.207031 208.507812 "/>
<path style=" stroke:none;fill-rule:nonzero;fill:rgb(100%,100%,100%);fill-opacity:1;" d="M 331.207031 212.722656 L 325.441406 212.722656 C 324.777344 212.722656 324.242188 212.183594 324.242188 211.519531 C 324.242188 210.859375 324.777344 210.320312 325.441406 210.320312 L 331.207031 210.320312 C 331.871094 210.320312 332.410156 210.855469 332.410156 211.519531 C 332.410156 212.183594 331.871094 212.722656 331.207031 212.722656 Z M 331.207031 212.722656 "/>
<path style=" stroke:none;fill-rule:nonzero;fill:rgb(80%,80%,80%);fill-opacity:1;" d="M 399.824219 323.546875 C 399.828125 323.710938 399.761719 323.871094 399.644531 323.988281 C 399.523438 324.105469 399.367188 324.171875 399.199219 324.171875 L 0.628906 324.171875 C 0.28125 324.171875 0 323.890625 0 323.546875 C 0 323.199219 0.28125 322.917969 0.628906 322.917969 L 399.199219 322.917969 C 399.367188 322.917969 399.523438 322.984375 399.644531 323.101562 C 399.761719 323.21875 399.828125 323.378906 399.824219 323.546875 Z M 399.824219 323.546875 "/>
<path style=" stroke:none;fill-rule:nonzero;fill:rgb(94.901961%,94.901961%,94.901961%);fill-opacity:1;" d="M 105.140625 285.160156 L 104.09375 270.625 C 97.246094 267.203125 89.667969 265.503906 82.015625 265.675781 C 92.78125 273.996094 91.917969 290.625 99.375 302.003906 C 104.144531 309.160156 111.90625 313.757812 120.472656 314.503906 L 129.433594 319.65625 C 131.507812 305.949219 127.472656 292.023438 118.394531 281.542969 C 115.847656 278.664062 112.949219 276.113281 109.769531 273.957031 C 107.808594 279.582031 105.140625 285.160156 105.140625 285.160156 Z M 105.140625 285.160156 "/>
<path style=" stroke:none;fill-rule:nonzero;fill:rgb(94.901961%,94.901961%,94.901961%);fill-opacity:1;" d="M 294.6875 287.265625 L 295.730469 272.734375 C 302.578125 269.3125 310.160156 267.613281 317.8125 267.78125 C 307.042969 276.101562 307.90625 292.730469 300.449219 304.113281 C 295.683594 311.265625 287.921875 315.867188 279.355469 316.609375 L 270.394531 321.765625 C 268.320312 308.058594 272.351562 294.128906 281.429688 283.648438 C 283.976562 280.769531 286.875 278.222656 290.058594 276.066406 C 292.015625 281.6875 294.6875 287.265625 294.6875 287.265625 Z M 294.6875 287.265625 "/>
<path style=" stroke:none;fill-rule:nonzero;fill:rgb(42.352941%,38.823529%,100%);fill-opacity:1;" d="M 205.183594 113.238281 C 205.183594 118.765625 200.699219 123.246094 195.171875 123.246094 C 189.640625 123.246094 185.15625 118.765625 185.15625 113.238281 C 185.15625 107.710938 189.640625 103.226562 195.171875 103.226562 C 200.699219 103.226562 205.183594 107.710938 205.183594 113.238281 Z M 205.183594 113.238281 "/>
<path style=" stroke:none;fill-rule:nonzero;fill:rgb(100%,100%,100%);fill-opacity:1;" d="M 200.308594 109.066406 C 199.996094 108.769531 199.503906 108.769531 199.191406 109.066406 C 197.066406 110.761719 195.160156 112.707031 193.511719 114.867188 C 193.105469 114.085938 192.699219 113.300781 192.296875 112.519531 C 191.828125 111.613281 190.464844 112.414062 190.929688 113.316406 C 191.523438 114.460938 192.113281 115.605469 192.707031 116.753906 C 192.851562 116.992188 193.109375 117.136719 193.390625 117.136719 C 193.667969 117.136719 193.925781 116.992188 194.070312 116.753906 C 195.828125 114.277344 197.929688 112.066406 200.308594 110.183594 C 200.617188 109.875 200.617188 109.375 200.308594 109.066406 Z M 200.308594 109.066406 "/>
<path style=" stroke:none;fill-rule:nonzero;fill:rgb(62.745098%,38.039216%,41.568627%);fill-opacity:1;" d="M 150.367188 141.621094 L 135.265625 117.917969 L 152.75 108.554688 L 157.339844 126.640625 L 189.675781 144.109375 C 193.234375 142.828125 197.164062 144.609375 198.550781 148.128906 C 199.933594 151.644531 198.269531 155.625 194.789062 157.113281 C 191.3125 158.597656 187.285156 157.050781 185.695312 153.617188 Z M 150.367188 141.621094 "/>
<path style=" stroke:none;fill-rule:nonzero;fill:rgb(24.705882%,23.921569%,33.72549%);fill-opacity:1;" d="M 124.234375 89.484375 C 119.492188 96.449219 136.351562 121.761719 136.351562 121.761719 C 137.171875 119.988281 145.023438 139.863281 146.339844 138.691406 C 150.078125 135.355469 155.925781 126.058594 159.179688 125.644531 C 161.039062 125.410156 154.867188 112.222656 154.867188 112.222656 C 154.867188 112.222656 152.042969 104.4375 148.214844 94.488281 C 146.121094 88.734375 141.222656 84.453125 135.238281 83.144531 C 135.238281 83.144531 128.980469 82.523438 124.234375 89.484375 Z M 124.234375 89.484375 "/>
<path style=" stroke:none;fill-rule:nonzero;fill:rgb(62.745098%,38.039216%,41.568627%);fill-opacity:1;" d="M 124.464844 316.355469 L 131.636719 316.355469 L 135.046875 288.703125 L 124.464844 288.707031 Z M 124.464844 316.355469 "/>
<path style=" stroke:none;fill-rule:nonzero;fill:rgb(18.431373%,18.039216%,25.490196%);fill-opacity:1;" d="M 122.636719 314.015625 L 124.65625 314.015625 L 132.535156 310.8125 L 136.757812 314.015625 L 136.761719 314.015625 C 141.730469 314.015625 145.757812 318.042969 145.761719 323.011719 L 145.761719 323.304688 L 122.636719 323.304688 Z M 122.636719 314.015625 "/>
<path style=" stroke:none;fill-rule:nonzero;fill:rgb(62.745098%,38.039216%,41.568627%);fill-opacity:1;" d="M 157.78125 316.355469 L 164.953125 316.355469 L 168.363281 288.703125 L 157.78125 288.707031 Z M 157.78125 316.355469 "/>
<path style=" stroke:none;fill-rule:nonzero;fill:rgb(18.431373%,18.039216%,25.490196%);fill-opacity:1;" d="M 155.953125 314.015625 L 157.972656 314.015625 L 165.851562 310.8125 L 170.074219 314.015625 C 175.046875 314.015625 179.074219 318.042969 179.074219 323.011719 L 179.074219 323.304688 L 155.953125 323.304688 Z M 155.953125 314.015625 "/>
<path style=" stroke:none;fill-rule:nonzero;fill:rgb(18.431373%,18.039216%,25.490196%);fill-opacity:1;" d="M 160.886719 165.1875 L 114.242188 166.355469 C 105.382812 171.164062 105.25 181.574219 108.152344 193.933594 C 108.152344 193.933594 107.171875 201.28125 109.132812 203.242188 C 111.089844 205.199219 112.070312 205.199219 111.089844 208.628906 C 110.109375 212.054688 115.289062 217.65625 114.660156 218.285156 C 114.03125 218.914062 112.5625 222.339844 112.5625 222.339844 L 117.460938 250.257812 C 117.460938 250.257812 120.890625 298.746094 121.871094 299.726562 C 122.847656 300.703125 123.828125 299.726562 122.847656 302.171875 C 121.871094 304.621094 120.890625 303.644531 121.871094 304.621094 C 122.738281 305.558594 123.554688 306.539062 124.320312 307.5625 L 136.164062 307.5625 C 136.164062 307.5625 137.058594 302.664062 137.058594 302.171875 C 137.058594 301.683594 138.039062 298.746094 138.039062 298.253906 C 138.039062 297.765625 137.171875 296.898438 137.171875 296.898438 C 136.871094 295.90625 136.667969 294.882812 136.566406 293.847656 C 136.566406 292.867188 133.628906 255.15625 133.628906 255.15625 L 139.507812 206.179688 L 153.714844 254.175781 C 153.714844 254.175781 153.714844 296.296875 154.695312 297.277344 C 155.675781 298.253906 155.675781 297.765625 155.183594 299.726562 C 154.695312 301.683594 152.734375 301.195312 154.207031 302.664062 C 155.675781 304.132812 156.164062 301.683594 155.675781 304.132812 L 155.183594 306.582031 L 169.882812 306.792969 C 169.882812 306.792969 171.84375 302.664062 170.863281 301.195312 C 169.882812 299.726562 169.941406 300.125 171.136719 297.722656 C 172.332031 295.316406 172.824219 294.828125 172.332031 294.335938 C 171.84375 293.847656 171.84375 291.242188 171.84375 291.242188 L 169.394531 244.382812 C 169.394531 244.382812 168.902344 194.914062 168.902344 193.445312 C 168.867188 192.6875 169.003906 191.933594 169.308594 191.242188 L 169.308594 189.246094 L 167.433594 182.179688 Z M 160.886719 165.1875 "/>
<path style=" stroke:none;fill-rule:nonzero;fill:rgb(62.745098%,38.039216%,41.568627%);fill-opacity:1;" d="M 147.359375 53.746094 C 147.359375 61.746094 140.871094 68.230469 132.867188 68.230469 C 124.863281 68.230469 118.375 61.746094 118.375 53.746094 C 118.375 45.742188 124.863281 39.257812 132.867188 39.257812 C 140.871094 39.257812 147.359375 45.742188 147.359375 53.746094 Z M 147.359375 53.746094 "/>
<path style=" stroke:none;fill-rule:nonzero;fill:rgb(24.705882%,23.921569%,33.72549%);fill-opacity:1;" d="M 140.113281 77.808594 C 143.234375 79.664062 145.101562 83.074219 146.175781 86.542969 C 148.160156 92.964844 149.355469 99.605469 149.734375 106.316406 L 150.863281 126.410156 L 164.890625 169.195312 C 152.734375 179.480469 107.046875 171.535156 107.046875 171.535156 C 107.046875 171.535156 105.644531 171.066406 107.046875 169.664062 C 108.449219 168.261719 109.8125 169.503906 108.410156 168.101562 C 107.007812 166.699219 107.976562 168.261719 108.441406 166.859375 C 108.910156 165.457031 108.441406 166.394531 107.976562 165.925781 C 107.507812 165.457031 111.59375 161.253906 111.59375 161.253906 L 107.855469 136.691406 L 103.179688 87.15625 C 108.789062 80.144531 120.074219 76.011719 120.074219 76.011719 L 122.988281 70.765625 L 137.5625 71.933594 Z M 140.113281 77.808594 "/>
<path style=" stroke:none;fill-rule:nonzero;fill:rgb(18.431373%,18.039216%,25.490196%);fill-opacity:1;" d="M 144.8125 46.046875 C 145.9375 46.886719 146.773438 48.058594 147.199219 49.398438 C 147.363281 47.210938 147.371094 45.011719 147.230469 42.824219 C 147.058594 41.285156 145.976562 40.9375 144.722656 40.539062 C 143.589844 40.175781 142.304688 39.765625 141.960938 38.273438 C 137.40625 33.84375 129.476562 34.066406 124.046875 35.613281 C 121.0625 36.460938 119.34375 37.554688 119.191406 38.195312 L 119.15625 38.328125 L 119.035156 38.386719 C 116.734375 39.539062 116.285156 43.171875 116.316406 46.015625 C 116.371094 51.378906 118.222656 57.464844 119.265625 57.960938 C 119.320312 57.988281 119.335938 57.976562 119.359375 57.957031 C 120.929688 56.703125 122.847656 58.050781 123.6875 58.785156 C 124.710938 51.929688 130.28125 46.65625 137.183594 46.003906 C 138.28125 45.898438 139.367188 45.71875 140.4375 45.460938 C 140.980469 45.320312 141.539062 45.246094 142.101562 45.242188 C 143.066406 45.226562 144.011719 45.507812 144.8125 46.046875 Z M 144.8125 46.046875 "/>
<path style=" stroke:none;fill-rule:nonzero;fill:rgb(100%,72.156863%,72.156863%);fill-opacity:1;" d="M 234.78125 176.730469 L 262.660156 148.433594 L 270.003906 125.796875 L 258.183594 121.019531 C 252.328125 126.921875 246.300781 144.996094 246.300781 144.996094 L 227.273438 170.527344 C 227.121094 170.582031 226.972656 170.640625 226.820312 170.714844 C 224.402344 171.855469 223.121094 174.539062 223.753906 177.136719 C 224.386719 179.734375 226.761719 181.527344 229.433594 181.429688 C 232.105469 181.332031 234.339844 179.371094 234.78125 176.730469 Z M 234.78125 176.730469 "/>
<path style=" stroke:none;fill-rule:nonzero;fill:rgb(42.352941%,38.823529%,100%);fill-opacity:1;" d="M 254.960938 123.609375 L 269.910156 127.929688 L 269.964844 127.917969 C 275.457031 126.851562 279.804688 117.726562 282.484375 110.253906 C 284.3125 105.144531 281.867188 99.488281 276.890625 97.316406 C 273.269531 95.769531 269.082031 96.40625 266.085938 98.964844 L 258.636719 105.378906 Z M 254.960938 123.609375 "/>
<path style=" stroke:none;fill-rule:nonzero;fill:rgb(100%,72.156863%,72.156863%);fill-opacity:1;" d="M 242.171875 315.515625 L 234.132812 315.515625 L 230.308594 284.519531 L 242.171875 284.519531 Z M 242.171875 315.515625 "/>
<path style=" stroke:none;fill-rule:nonzero;fill:rgb(18.431373%,18.039216%,25.490196%);fill-opacity:1;" d="M 244.222656 312.890625 L 241.960938 312.890625 L 233.125 309.300781 L 228.390625 312.890625 C 222.820312 312.890625 218.300781 317.40625 218.300781 322.976562 L 218.300781 323.304688 L 244.222656 323.304688 Z M 244.222656 312.890625 "/>
<path style=" stroke:none;fill-rule:nonzero;fill:rgb(100%,72.156863%,72.156863%);fill-opacity:1;" d="M 277.839844 315.515625 L 269.800781 315.515625 L 265.976562 284.519531 L 277.84375 284.519531 Z M 277.839844 315.515625 "/>
<path style=" stroke:none;fill-rule:nonzero;fill:rgb(18.431373%,18.039216%,25.490196%);fill-opacity:1;" d="M 279.890625 312.890625 L 277.628906 312.890625 L 268.796875 309.300781 L 264.0625 312.890625 L 264.058594 312.890625 C 258.488281 312.890625 253.972656 317.40625 253.972656 322.976562 L 253.972656 323.304688 L 279.890625 323.304688 Z M 279.890625 312.890625 "/>
<path style=" stroke:none;fill-rule:nonzero;fill:rgb(18.431373%,18.039216%,25.490196%);fill-opacity:1;" d="M 290.097656 182.003906 C 290.097656 182.003906 291.039062 193.265625 288.691406 204.054688 C 286.34375 214.847656 286.34375 245.238281 286.34375 245.238281 L 281.183594 304.457031 L 265.695312 303.050781 L 261.46875 204.054688 L 246.449219 237.367188 L 247.859375 242.058594 L 245.984375 243.230469 C 245.984375 243.230469 247.390625 252.378906 246.449219 252.378906 C 245.511719 252.378906 243.164062 253.789062 243.164062 253.789062 L 245.042969 302.113281 L 229.085938 301.644531 L 223.453125 233.613281 L 229.554688 194.671875 L 230.023438 187.164062 L 232.136719 187.25 L 233.210938 184.113281 L 235.1875 178.71875 Z M 290.097656 182.003906 "/>
<path style=" stroke:none;fill-rule:nonzero;fill:rgb(42.352941%,38.823529%,100%);fill-opacity:1;" d="M 290.910156 184.367188 L 290.992188 184.25 C 295.460938 178 288.742188 162.976562 287.730469 160.796875 L 291.996094 159.414062 L 291.035156 151.246094 L 290.582031 147.605469 L 293.84375 144.34375 L 293.851562 144.261719 L 295.730469 127.839844 L 298.460938 116.933594 C 300.554688 108.539062 297.953125 99.667969 291.660156 93.726562 L 285.351562 87.78125 L 277.683594 76.4375 L 265.316406 76.4375 L 261.078125 84.445312 C 252.59375 86.402344 246.726562 94.144531 247.132812 102.839844 L 248.09375 123.835938 L 244.332031 149.980469 L 244.328125 154.710938 L 240.097656 159.414062 L 241.019531 164.035156 L 237.796875 165.414062 L 236.375 172.050781 C 235.789062 172.828125 231.902344 178.007812 231.902344 179.421875 C 231.902344 179.636719 232.058594 179.839844 232.394531 180.070312 C 235.042969 181.863281 249.679688 185.515625 256.160156 182.925781 C 263.058594 180.167969 290.492188 184.304688 290.769531 184.347656 Z M 290.910156 184.367188 "/>
<path style=" stroke:none;fill-rule:nonzero;fill:rgb(100%,72.156863%,72.156863%);fill-opacity:1;" d="M 286.28125 56.40625 C 286.28125 65.449219 278.949219 72.777344 269.902344 72.777344 C 260.859375 72.777344 253.527344 65.449219 253.527344 56.40625 C 253.527344 47.363281 260.859375 40.035156 269.902344 40.035156 C 278.949219 40.035156 286.28125 47.363281 286.28125 56.40625 Z M 286.28125 56.40625 "/>
<path style=" stroke:none;fill-rule:nonzero;fill:rgb(18.431373%,18.039216%,25.490196%);fill-opacity:1;" d="M 268.332031 73.042969 C 270.871094 73.015625 273.398438 72.773438 275.894531 72.316406 C 278.363281 71.75 283.8125 67.535156 285.300781 65.046875 C 286.402344 63.199219 287.066406 60.339844 287.425781 58.265625 C 288.414062 52.714844 287 47.007812 283.539062 42.558594 C 282.878906 41.636719 281.980469 40.914062 280.941406 40.457031 C 280.851562 40.425781 280.753906 40.394531 280.660156 40.371094 C 279.152344 40.015625 277.789062 39.21875 276.738281 38.082031 C 276.535156 37.855469 276.316406 37.640625 276.082031 37.441406 C 274.902344 36.496094 273.519531 35.847656 272.042969 35.542969 C 269.65625 34.96875 266.242188 35.6875 261.894531 37.675781 C 259.710938 38.679688 257.289062 38.398438 255.417969 38.042969 C 255.207031 38.007812 254.992188 38.089844 254.851562 38.253906 C 254.082031 39.015625 253.050781 39.457031 251.964844 39.492188 C 251.304688 39.539062 250.628906 40.476562 249.820312 41.695312 C 249.636719 41.972656 249.421875 42.296875 249.265625 42.492188 L 249.234375 42.121094 L 248.867188 42.546875 C 247.703125 43.898438 247.3125 45.753906 247.832031 47.464844 C 248.355469 49.171875 249.714844 50.492188 251.4375 50.964844 C 252.109375 51.125 252.796875 51.21875 253.488281 51.238281 C 253.90625 51.265625 254.339844 51.292969 254.757812 51.351562 C 257.476562 51.835938 259.742188 53.714844 260.722656 56.296875 C 260.953125 56.890625 261.445312 57.34375 262.058594 57.523438 C 262.671875 57.703125 263.332031 57.585938 263.847656 57.210938 C 264.703125 56.507812 265.855469 56.265625 266.921875 56.570312 C 267.378906 56.808594 267.742188 57.199219 267.945312 57.671875 C 268.195312 58.199219 268.59375 58.640625 269.09375 58.941406 C 270.800781 59.765625 271.015625 63.605469 270.492188 66.824219 C 269.988281 69.925781 268.894531 72.1875 267.832031 72.324219 C 267.015625 72.433594 266.921875 72.492188 266.867188 72.640625 L 266.816406 72.769531 L 266.910156 72.890625 C 267.371094 73.042969 267.855469 73.09375 268.332031 73.042969 Z M 268.332031 73.042969 "/>
<path style=" stroke:none;fill-rule:nonzero;fill:rgb(100%,72.156863%,72.156863%);fill-opacity:1;" d="M 254.746094 125.359375 L 246.875 115.332031 C 238.855469 117.539062 224.628906 130.214844 224.628906 130.214844 L 195.410156 142.890625 C 192.714844 142.4375 190.082031 143.988281 189.171875 146.566406 C 188.261719 149.140625 189.332031 152 191.714844 153.34375 C 194.09375 154.683594 197.097656 154.121094 198.832031 152.007812 L 237.105469 141.335938 Z M 254.746094 125.359375 "/>
<path style=" stroke:none;fill-rule:nonzero;fill:rgb(42.352941%,38.823529%,100%);fill-opacity:1;" d="M 252.859375 127.652344 L 265.28125 113.808594 L 265.96875 104.003906 C 266.234375 100.074219 264.242188 96.335938 260.832031 94.363281 C 256.117188 91.671875 250.121094 93.09375 247.113281 97.613281 C 242.726562 104.226562 238.003906 113.164062 240.433594 118.207031 L 240.457031 118.257812 Z M 252.859375 127.652344 "/>
<path style=" stroke:none;fill-rule:nonzero;fill:rgb(90.196078%,90.196078%,90.196078%);fill-opacity:1;" d="M 138.382812 179.675781 L 106.101562 163.148438 C 103.804688 161.972656 103.042969 158.855469 104.40625 156.195312 L 125.453125 115.113281 C 126.8125 112.457031 129.789062 111.25 132.085938 112.425781 L 164.367188 128.953125 C 166.664062 130.128906 167.425781 133.246094 166.0625 135.902344 L 145.015625 176.988281 C 143.652344 179.644531 140.679688 180.851562 138.382812 179.675781 Z M 138.382812 179.675781 "/>
<path style=" stroke:none;fill-rule:nonzero;fill:rgb(100%,100%,100%);fill-opacity:1;" d="M 132.867188 172.078125 L 110.933594 160.847656 C 108.78125 159.746094 108.070312 156.828125 109.34375 154.339844 L 126.832031 120.207031 C 128.105469 117.71875 130.894531 116.589844 133.042969 117.691406 L 159.535156 131.253906 C 161.683594 132.355469 162.398438 135.273438 161.121094 137.761719 L 151.621094 156.304688 C 145.945312 167.390625 142.445312 176.980469 132.867188 172.078125 Z M 132.867188 172.078125 "/>
<path style=" stroke:none;fill-rule:nonzero;fill:rgb(42.352941%,38.823529%,100%);fill-opacity:1;" d="M 143.710938 153.4375 L 124.285156 143.492188 C 123.792969 143.140625 123.632812 142.484375 123.90625 141.949219 C 124.183594 141.414062 124.808594 141.160156 125.378906 141.351562 L 144.804688 151.296875 C 145.296875 151.648438 145.457031 152.304688 145.183594 152.839844 C 144.90625 153.378906 144.28125 153.632812 143.710938 153.4375 Z M 143.710938 153.4375 "/>
<path style=" stroke:none;fill-rule:nonzero;fill:rgb(42.352941%,38.823529%,100%);fill-opacity:1;" d="M 126.550781 149.988281 L 122.117188 147.71875 C 121.628906 147.367188 121.46875 146.710938 121.742188 146.175781 C 122.015625 145.640625 122.644531 145.386719 123.214844 145.578125 L 127.648438 147.847656 C 128.136719 148.199219 128.300781 148.855469 128.023438 149.390625 C 127.75 149.929688 127.121094 150.183594 126.550781 149.988281 Z M 126.550781 149.988281 "/>
<path style=" stroke:none;fill-rule:nonzero;fill:rgb(42.352941%,38.823529%,100%);fill-opacity:1;" d="M 132.238281 158.234375 L 119.953125 151.945312 C 119.460938 151.59375 119.300781 150.9375 119.578125 150.402344 C 119.851562 149.867188 120.476562 149.613281 121.050781 149.804688 L 133.335938 156.09375 C 133.824219 156.445312 133.984375 157.101562 133.710938 157.636719 C 133.4375 158.175781 132.808594 158.429688 132.238281 158.234375 Z M 132.238281 158.234375 "/>
<path style=" stroke:none;fill-rule:nonzero;fill:rgb(42.352941%,38.823529%,100%);fill-opacity:1;" d="M 151.398438 138.433594 L 131.972656 128.488281 C 131.480469 128.136719 131.320312 127.480469 131.59375 126.945312 C 131.871094 126.40625 132.496094 126.152344 133.066406 126.347656 L 152.492188 136.292969 C 152.984375 136.644531 153.144531 137.300781 152.871094 137.835938 C 152.59375 138.371094 151.96875 138.625 151.398438 138.433594 Z M 151.398438 138.433594 "/>
<path style=" stroke:none;fill-rule:nonzero;fill:rgb(42.352941%,38.823529%,100%);fill-opacity:1;" d="M 134.238281 134.984375 L 129.804688 132.714844 C 129.316406 132.363281 129.15625 131.707031 129.429688 131.171875 C 129.703125 130.632812 130.332031 130.378906 130.902344 130.574219 L 135.335938 132.84375 C 135.824219 133.195312 135.984375 133.851562 135.710938 134.386719 C 135.4375 134.921875 134.808594 135.175781 134.238281 134.984375 Z M 134.238281 134.984375 "/>
<path style=" stroke:none;fill-rule:nonzero;fill:rgb(42.352941%,38.823529%,100%);fill-opacity:1;" d="M 139.925781 143.230469 L 127.640625 136.941406 C 127.148438 136.589844 126.988281 135.933594 127.265625 135.398438 C 127.539062 134.859375 128.164062 134.605469 128.738281 134.800781 L 141.023438 141.089844 C 141.511719 141.441406 141.671875 142.097656 141.398438 142.632812 C 141.125 143.167969 140.496094 143.421875 139.925781 143.230469 Z M 139.925781 143.230469 "/>
<path style=" stroke:none;fill-rule:nonzero;fill:rgb(62.745098%,38.039216%,41.568627%);fill-opacity:1;" d="M 111.632812 143.90625 L 104.339844 116.765625 L 123.828125 113.078125 L 122.777344 131.707031 L 148.386719 158.066406 C 152.164062 157.910156 155.378906 160.789062 155.644531 164.558594 C 155.910156 168.332031 153.125 171.628906 149.363281 172.003906 C 145.601562 172.378906 142.222656 169.691406 141.738281 165.941406 Z M 111.632812 143.90625 "/>
<path style=" stroke:none;fill-rule:nonzero;fill:rgb(24.705882%,23.921569%,33.72549%);fill-opacity:1;" d="M 102.34375 86.335938 C 95.730469 91.558594 104.21875 120.757812 104.21875 120.757812 C 105.535156 119.316406 107.0625 140.628906 108.667969 139.902344 C 113.234375 137.839844 121.605469 130.730469 124.832031 131.308594 C 126.675781 131.640625 124.742188 117.210938 124.742188 117.210938 C 124.742188 117.210938 124.386719 108.9375 123.71875 98.300781 C 123.449219 92.179688 120.0625 86.628906 114.742188 83.585938 C 114.742188 83.585938 108.960938 81.117188 102.34375 86.335938 Z M 102.34375 86.335938 "/>
<path style=" stroke:none;fill-rule:nonzero;fill:rgb(90.196078%,90.196078%,90.196078%);fill-opacity:1;" d="M 212.414062 204.148438 L 194.796875 195.832031 C 194.035156 195.476562 193.476562 194.785156 193.285156 193.964844 C 193.089844 193.164062 193.277344 192.316406 193.785156 191.667969 C 198.890625 185.148438 202.394531 177.523438 204.015625 169.40625 C 204.269531 168.125 205.394531 167.199219 206.699219 167.199219 C 215.683594 167.230469 222.398438 170.507812 226.65625 176.945312 C 227.113281 177.621094 227.246094 178.464844 227.019531 179.25 C 224.554688 187.742188 220.804688 195.8125 215.894531 203.171875 C 215.144531 204.320312 213.65625 204.738281 212.414062 204.148438 Z M 212.414062 204.148438 "/>
<path style=" stroke:none;fill-rule:nonzero;fill:rgb(100%,100%,100%);fill-opacity:1;" d="M 217.59375 192.484375 L 204.125 186.128906 C 203.429688 185.796875 203.128906 184.964844 203.460938 184.269531 C 203.789062 183.570312 204.621094 183.273438 205.320312 183.601562 L 218.789062 189.960938 C 219.484375 190.289062 219.785156 191.121094 219.457031 191.820312 C 219.125 192.515625 218.292969 192.816406 217.59375 192.484375 Z M 217.59375 192.484375 "/>
<path style=" stroke:none;fill-rule:nonzero;fill:rgb(100%,100%,100%);fill-opacity:1;" d="M 219.6875 188.054688 L 206.21875 181.699219 C 205.519531 181.367188 205.222656 180.535156 205.550781 179.839844 C 205.882812 179.140625 206.714844 178.84375 207.410156 179.171875 L 220.882812 185.53125 C 221.578125 185.859375 221.878906 186.691406 221.546875 187.390625 C 221.21875 188.085938 220.386719 188.386719 219.6875 188.054688 Z M 219.6875 188.054688 "/>
<path style=" stroke:none;fill-rule:nonzero;fill:rgb(94.901961%,94.901961%,94.901961%);fill-opacity:1;" d="M 201.691406 49.003906 L 200.4375 49.140625 C 194.84375 27.179688 184.011719 11.964844 169.097656 5.144531 C 150.144531 -3.53125 126.703125 2.292969 103.097656 21.542969 C 79.375 40.890625 58.371094 71.449219 43.960938 107.597656 L 42.742188 107.039062 C 57.21875 70.738281 78.328125 40.027344 102.1875 20.574219 C 126.164062 1.019531 150.082031 -4.847656 169.535156 4.054688 C 184.871094 11.070312 195.992188 26.617188 201.691406 49.003906 Z M 201.691406 49.003906 "/>
<path style=" stroke:none;fill-rule:nonzero;fill:rgb(94.901961%,94.901961%,94.901961%);fill-opacity:1;" d="M 63.363281 77.605469 C 60.085938 84.507812 56.964844 91.664062 54.09375 98.867188 C 37.566406 140.316406 29.191406 182.652344 29.875 221.292969 L 28.582031 221.152344 C 27.898438 182.371094 36.296875 139.890625 52.878906 98.308594 C 55.757812 91.085938 58.886719 83.910156 62.171875 76.988281 Z M 63.363281 77.605469 "/>
<path style=" stroke:none;fill-rule:nonzero;fill:rgb(94.901961%,94.901961%,94.901961%);fill-opacity:1;" d="M 62.742188 106.085938 C 59.464844 112.992188 56.347656 120.144531 53.472656 127.347656 C 36.945312 168.800781 28.570312 211.132812 29.253906 249.773438 L 27.964844 249.636719 C 27.277344 210.851562 35.679688 168.371094 52.257812 126.792969 C 55.136719 119.566406 58.265625 112.394531 61.554688 105.46875 Z M 62.742188 106.085938 "/>
<path style=" stroke:none;fill-rule:nonzero;fill:rgb(80%,80%,80%);fill-opacity:1;" d="M 26.136719 109.585938 C 23.667969 107.941406 20.507812 108.347656 19.078125 110.496094 C 17.652344 112.640625 18.496094 115.710938 20.96875 117.355469 C 23.4375 118.996094 26.597656 118.589844 28.027344 116.445312 C 29.453125 114.300781 28.609375 111.226562 26.136719 109.585938 Z M 26.136719 109.585938 "/>
<path style=" stroke:none;fill-rule:nonzero;fill:rgb(80%,80%,80%);fill-opacity:1;" d="M 330.191406 187.066406 C 327.722656 185.421875 324.5625 185.828125 323.132812 187.976562 C 321.707031 190.121094 322.550781 193.191406 325.019531 194.835938 C 327.492188 196.476562 330.652344 196.070312 332.078125 193.925781 C 333.507812 191.78125 332.664062 188.707031 330.191406 187.066406 Z M 330.191406 187.066406 "/>
</g>
</svg>
