<?xml version="1.0" encoding="UTF-8"?>
<svg xmlns="http://www.w3.org/2000/svg" xmlns:xlink="http://www.w3.org/1999/xlink" width="773.97946" height="419.08428" viewBox="0 0 400 385" version="1.1">
<g id="surface1">
<path style=" stroke:none;fill-rule:nonzero;fill:rgb(100%,39.607843%,51.764706%);fill-opacity:1;" d="M 115.964844 24.910156 C 115.964844 38.667969 104.789062 49.820312 91 49.820312 C 77.210938 49.820312 66.035156 38.667969 66.035156 24.910156 C 66.035156 11.152344 77.210938 0 91 0 C 104.789062 0 115.964844 11.152344 115.964844 24.910156 Z M 115.964844 24.910156 "/>
<path style=" stroke:none;fill-rule:nonzero;fill:rgb(90.196078%,90.196078%,90.196078%);fill-opacity:1;" d="M 119.09375 183.742188 C 109.335938 183.742188 99.902344 180.265625 92.488281 173.941406 C 90.015625 171.828125 87.378906 168.152344 84.652344 163.023438 C 81.132812 156.332031 80.839844 148.40625 83.859375 141.472656 C 82.421875 142.933594 80.835938 144.234375 79.121094 145.355469 L 78.253906 145.929688 L 78.203125 144.890625 C 78.171875 144.21875 78.152344 143.546875 78.152344 142.894531 C 78.152344 139.054688 81.0625 135.164062 79.722656 131.613281 C 74.066406 116.664062 56.128906 101.804688 82.125 78.667969 C 84.53125 76.527344 81.316406 72.246094 81.316406 69.007812 C 81.316406 37.269531 115.878906 -10.339844 139.015625 11.449219 C 152.519531 24.167969 180.660156 33.203125 193.796875 50.894531 L 193.96875 51.417969 L 193.457031 51.625 C 190.832031 52.726562 188.066406 53.457031 185.242188 53.804688 C 188.253906 54.417969 191.328125 54.675781 194.402344 54.570312 L 194.878906 54.554688 L 194.996094 55.015625 C 196.136719 59.59375 196.714844 64.292969 196.714844 69.007812 L 196.710938 69.519531 C 196.691406 76.761719 199.761719 83.675781 205.152344 88.527344 C 213.667969 96.273438 218.527344 107.238281 218.539062 118.738281 C 218.539062 125.464844 213.957031 134.296875 210.113281 140.523438 C 208.136719 143.734375 204.796875 145.871094 201.046875 146.316406 C 197.5 146.761719 193.933594 145.613281 191.316406 143.179688 C 193.136719 146.832031 195.507812 150.179688 198.351562 153.113281 L 198.875 153.652344 L 198.222656 154.03125 C 191.964844 157.671875 184.847656 159.589844 177.601562 159.585938 L 177.175781 159.585938 C 166.175781 159.585938 155.734375 163.839844 148.527344 171.253906 C 140.800781 179.195312 130.1875 183.699219 119.09375 183.742188 Z M 119.09375 183.742188 "/>
<path style=" stroke:none;fill-rule:nonzero;fill:rgb(80%,80%,80%);fill-opacity:1;" d="M 104.65625 247.730469 C 104.289062 247.730469 103.980469 247.460938 103.929688 247.097656 C 103.898438 246.878906 100.832031 224.832031 103.585938 195.53125 C 106.125 168.46875 114.289062 129.488281 138.734375 97.476562 C 138.980469 97.15625 139.441406 97.09375 139.765625 97.339844 C 140.089844 97.585938 140.152344 98.046875 139.90625 98.367188 C 115.667969 130.105469 107.574219 168.796875 105.050781 195.667969 C 102.316406 224.796875 105.355469 246.675781 105.386719 246.890625 C 105.417969 247.101562 105.351562 247.316406 105.214844 247.476562 C 105.074219 247.636719 104.871094 247.730469 104.65625 247.730469 Z M 104.65625 247.730469 "/>
<path style=" stroke:none;fill-rule:nonzero;fill:rgb(80%,80%,80%);fill-opacity:1;" d="M 126.980469 141.824219 C 126.660156 141.824219 126.375 141.617188 126.277344 141.316406 C 126.179688 141.011719 126.285156 140.679688 126.546875 140.492188 C 133.511719 135.789062 141.035156 131.96875 148.945312 129.117188 C 161.308594 124.601562 180.101562 120.507812 199.449219 126.652344 C 199.835938 126.773438 200.050781 127.1875 199.929688 127.574219 C 199.804688 127.960938 199.390625 128.175781 199.003906 128.050781 C 180.050781 122.035156 161.597656 126.058594 149.453125 130.496094 C 141.667969 133.296875 134.265625 137.054688 127.410156 141.683594 C 127.285156 141.773438 127.132812 141.824219 126.980469 141.824219 Z M 126.980469 141.824219 "/>
<path style=" stroke:none;fill-rule:nonzero;fill:rgb(80%,80%,80%);fill-opacity:1;" d="M 92.777344 55.058594 C 92.753906 54.742188 92.9375 54.445312 93.234375 54.324219 C 93.527344 54.203125 93.867188 54.289062 94.074219 54.53125 C 99.277344 61.125 103.640625 68.339844 107.0625 76.007812 C 112.464844 87.980469 117.910156 106.390625 113.160156 126.089844 C 113.066406 126.484375 112.667969 126.726562 112.273438 126.632812 C 111.878906 126.535156 111.632812 126.140625 111.730469 125.746094 C 116.378906 106.449219 111.027344 88.375 105.71875 76.609375 C 102.355469 69.066406 98.066406 61.96875 92.949219 55.480469 C 92.847656 55.359375 92.789062 55.214844 92.777344 55.058594 Z M 92.777344 55.058594 "/>
<path style=" stroke:none;fill-rule:nonzero;fill:rgb(79.215686%,79.215686%,79.215686%);fill-opacity:1;" d="M 272.398438 292.367188 C 221.761719 292.367188 182.890625 289.707031 155.910156 279.042969 C 90.199219 253.070312 67.921875 242.285156 67.707031 242.179688 L 68.148438 241.273438 C 68.367188 241.378906 90.621094 252.152344 156.285156 278.105469 C 195.230469 293.5 259.3125 292.128906 348.007812 290.226562 C 364.652344 289.871094 381.863281 289.503906 400.191406 289.207031 L 400.207031 290.214844 C 381.882812 290.511719 364.671875 290.878906 348.03125 291.234375 C 320.4375 291.828125 295.222656 292.367188 272.398438 292.367188 Z M 272.398438 292.367188 "/>
<path style=" stroke:none;fill-rule:nonzero;fill:rgb(79.215686%,79.215686%,79.215686%);fill-opacity:1;" d="M 58.6875 358.492188 L 57.972656 357.777344 C 82.507812 333.296875 91.964844 323.9375 93.96875 321.957031 L 21.671875 269.851562 L 22.261719 269.035156 L 95.527344 321.835938 L 95.101562 322.253906 C 95.019531 322.335938 86.644531 330.59375 58.6875 358.492188 Z M 58.6875 358.492188 "/>
<path style=" stroke:none;fill-rule:nonzero;fill:rgb(79.215686%,79.215686%,79.215686%);fill-opacity:1;" d="M 95.089844 384.839844 L 94.402344 384.101562 C 96.664062 381.992188 149.902344 332.53125 160.273438 332.53125 L 160.308594 332.53125 L 398.738281 334.953125 L 398.730469 335.960938 L 160.296875 333.539062 L 160.269531 333.539062 C 150.300781 333.539062 95.640625 384.324219 95.089844 384.839844 Z M 95.089844 384.839844 "/>
<path style=" stroke:none;fill-rule:nonzero;fill:rgb(79.215686%,79.215686%,79.215686%);fill-opacity:1;" d="M 332.445312 307.742188 L 393.683594 307.742188 L 393.683594 308.75 L 332.445312 308.75 Z M 332.445312 307.742188 "/>
<path style=" stroke:none;fill-rule:nonzero;fill:rgb(79.215686%,79.215686%,79.215686%);fill-opacity:1;" d="M 217.800781 307.742188 L 279.039062 307.742188 L 279.039062 308.75 L 217.800781 308.75 Z M 217.800781 307.742188 "/>
<path style=" stroke:none;fill-rule:nonzero;fill:rgb(24.705882%,23.921569%,33.72549%);fill-opacity:1;" d="M 214.898438 226.53125 L 179.542969 226.53125 L 179.542969 217.617188 L 192.675781 217.617188 C 194.347656 217.617188 195.703125 216.265625 195.703125 214.59375 L 195.703125 204.941406 C 195.703125 203.269531 194.347656 201.917969 192.675781 201.917969 L 179.542969 201.917969 L 179.542969 198.894531 C 179.542969 196.667969 177.734375 194.863281 175.503906 194.863281 C 173.269531 194.863281 171.460938 196.667969 171.460938 198.894531 L 171.460938 201.917969 L 122.929688 201.917969 C 122.304688 201.917969 121.691406 202.109375 121.179688 202.472656 L 114.347656 207.300781 C 113.546875 207.867188 113.070312 208.785156 113.070312 209.765625 C 113.070312 210.75 113.546875 211.667969 114.347656 212.234375 L 121.179688 217.0625 C 121.691406 217.425781 122.304688 217.617188 122.929688 217.617188 L 171.460938 217.617188 L 171.460938 226.53125 L 136.109375 226.53125 C 134.433594 226.53125 133.078125 227.882812 133.078125 229.554688 L 133.078125 239.207031 C 133.078125 240.878906 134.433594 242.230469 136.109375 242.230469 L 171.460938 242.230469 L 171.460938 275.492188 C 171.460938 277.714844 173.269531 279.523438 175.503906 279.523438 C 177.734375 279.523438 179.542969 277.714844 179.542969 275.492188 L 179.542969 242.230469 L 214.898438 242.230469 C 216.570312 242.230469 217.925781 240.878906 217.925781 239.207031 L 217.925781 229.554688 C 217.925781 227.882812 216.570312 226.53125 214.898438 226.53125 Z M 214.898438 226.53125 "/>
<path style=" stroke:none;fill-rule:nonzero;fill:rgb(42.352941%,38.823529%,100%);fill-opacity:1;" d="M 155.300781 210.230469 L 130.046875 210.230469 C 129.070312 210.230469 128.28125 209.441406 128.28125 208.46875 C 128.28125 207.492188 129.070312 206.703125 130.046875 206.703125 L 155.300781 206.703125 C 156.277344 206.703125 157.066406 207.492188 157.066406 208.46875 C 157.066406 209.441406 156.277344 210.230469 155.300781 210.230469 Z M 155.300781 210.230469 "/>
<path style=" stroke:none;fill-rule:nonzero;fill:rgb(100%,100%,100%);fill-opacity:1;" d="M 186.613281 235.933594 L 161.359375 235.933594 C 160.386719 235.933594 159.59375 235.140625 159.59375 234.167969 C 159.59375 233.195312 160.386719 232.40625 161.359375 232.40625 L 186.613281 232.40625 C 187.589844 232.40625 188.382812 233.195312 188.382812 234.167969 C 188.382812 235.140625 187.589844 235.933594 186.613281 235.933594 Z M 186.613281 235.933594 "/>
<path style=" stroke:none;fill-rule:nonzero;fill:rgb(24.705882%,23.921569%,33.72549%);fill-opacity:1;" d="M 65.402344 276.921875 L 65.402344 268.011719 L 78.53125 268.011719 C 80.207031 268.011719 81.5625 266.65625 81.5625 264.988281 L 81.5625 255.332031 C 81.5625 253.664062 80.207031 252.308594 78.53125 252.308594 L 65.402344 252.308594 L 65.402344 249.425781 C 65.429688 247.265625 63.785156 245.453125 61.628906 245.261719 C 60.515625 245.1875 59.417969 245.578125 58.601562 246.34375 C 57.785156 247.105469 57.320312 248.171875 57.320312 249.285156 L 57.320312 252.308594 L 2.972656 277.683594 C 2.523438 277.890625 2.179688 278.277344 2.027344 278.746094 C 1.597656 280.046875 0.699219 282.824219 0.0859375 285.011719 C -0.113281 285.734375 0.0429688 286.507812 0.507812 287.09375 C 0.972656 287.679688 1.6875 288.015625 2.4375 287.988281 C 5.9375 287.882812 8.242188 287.71875 9.84375 287.675781 C 10.152344 287.667969 10.453125 287.597656 10.734375 287.472656 L 57.320312 268.011719 L 57.320312 325.746094 C 57.292969 327.902344 58.9375 329.71875 61.09375 329.90625 C 62.207031 329.980469 63.304688 329.589844 64.121094 328.828125 C 64.9375 328.066406 65.402344 327 65.402344 325.882812 Z M 65.402344 276.921875 "/>
<path style=" stroke:none;fill-rule:nonzero;fill:rgb(100%,100%,100%);fill-opacity:1;" d="M 44.3125 268.167969 L 21.269531 278.472656 C 20.378906 278.871094 19.332031 278.472656 18.933594 277.585938 C 18.535156 276.695312 18.933594 275.652344 19.824219 275.253906 L 42.867188 264.949219 C 43.757812 264.550781 44.804688 264.945312 45.203125 265.835938 C 45.601562 266.726562 45.203125 267.769531 44.3125 268.167969 Z M 44.3125 268.167969 "/>
<path style=" stroke:none;fill-rule:nonzero;fill:rgb(62.745098%,38.039216%,41.568627%);fill-opacity:1;" d="M 353.125 186.0625 L 342.59375 187.128906 C 342.117188 192.527344 343.058594 197.957031 345.328125 202.878906 L 342.171875 232.242188 L 342.21875 232.242188 C 341.355469 233.730469 341.734375 235.625 343.105469 236.664062 C 344.476562 237.707031 346.410156 237.566406 347.613281 236.335938 C 348.820312 235.109375 348.921875 233.179688 347.851562 231.832031 L 354.875 205.632812 Z M 353.125 186.0625 "/>
<path style=" stroke:none;fill-rule:nonzero;fill:rgb(62.745098%,38.039216%,41.568627%);fill-opacity:1;" d="M 320.734375 314.960938 L 316.261719 314.191406 L 315.820312 300.714844 L 323.707031 297.738281 Z M 320.734375 314.960938 "/>
<path style=" stroke:none;fill-rule:nonzero;fill:rgb(18.431373%,18.039216%,25.490196%);fill-opacity:1;" d="M 320.089844 319.644531 L 306.328125 317.277344 L 306.359375 317.105469 C 306.867188 314.152344 309.679688 312.171875 312.636719 312.679688 L 315.476562 311.210938 L 319.839844 313.917969 L 321.039062 314.125 Z M 320.089844 319.644531 "/>
<path style=" stroke:none;fill-rule:nonzero;fill:rgb(62.745098%,38.039216%,41.568627%);fill-opacity:1;" d="M 365.625 305.628906 L 361.75 307.988281 L 350.777344 294.199219 L 356.5 290.714844 Z M 365.625 305.628906 "/>
<path style=" stroke:none;fill-rule:nonzero;fill:rgb(18.431373%,18.039216%,25.490196%);fill-opacity:1;" d="M 368.230469 309.578125 L 356.316406 316.839844 L 356.222656 316.691406 C 354.660156 314.132812 355.46875 310.796875 358.027344 309.234375 L 359.195312 306.261719 L 364.265625 305.433594 L 365.308594 304.800781 Z M 368.230469 309.578125 "/>
<path style=" stroke:none;fill-rule:nonzero;fill:rgb(18.431373%,18.039216%,25.490196%);fill-opacity:1;" d="M 322.265625 233 L 319.578125 243.179688 C 319.578125 243.179688 318.847656 247.398438 319.226562 247.777344 C 319.875 248.695312 320.199219 249.796875 320.15625 250.914062 C 319.984375 251.949219 318.25 251.527344 319.117188 253.0625 C 319.984375 254.601562 317.300781 277.980469 317.300781 277.980469 L 314.898438 306.734375 L 323.480469 307.742188 C 324.714844 307.019531 324.894531 306.203125 324.167969 305.296875 C 324.167969 305.296875 325.929688 303.269531 324.957031 302.484375 C 323.988281 301.695312 325.742188 301.363281 325.835938 299.351562 L 331.378906 279.609375 L 333.214844 275.195312 L 332.734375 272.890625 L 334.125 270.25 L 334.796875 263.316406 L 336.613281 281.539062 L 353.582031 300.980469 L 361.9375 296.8125 L 362.425781 295.746094 C 362.84375 294.839844 362.519531 293.765625 361.671875 293.238281 L 358.835938 290.609375 C 359.078125 289.523438 355.222656 286.808594 355.222656 286.808594 L 348.765625 274.683594 L 352.773438 240.71875 C 352.773438 240.71875 358.835938 232.65625 350.808594 225.359375 C 347.519531 222.371094 322.265625 233 322.265625 233 Z M 322.265625 233 "/>
<path style=" stroke:none;fill-rule:nonzero;fill:rgb(42.352941%,38.823529%,100%);fill-opacity:1;" d="M 348.101562 219.628906 C 349.527344 217.515625 352.945312 220.546875 351.804688 216.757812 C 350.664062 212.96875 347.78125 212.265625 350.363281 208.640625 L 354.082031 190.5625 C 354.304688 186.25 352.839844 182.015625 349.988281 178.765625 L 344.632812 172.648438 L 343.828125 170.480469 L 334.714844 170.101562 L 333.957031 172.753906 C 331.234375 176.136719 326.777344 180.480469 326.910156 186.871094 C 327.167969 199.164062 325.246094 215.523438 320.511719 236.804688 C 320.511719 236.804688 331.097656 228.558594 334.425781 232.132812 C 337.753906 235.703125 347.78125 234.734375 350.285156 232.242188 C 351.890625 230.523438 353.0625 228.445312 353.703125 226.179688 C 353.703125 226.179688 346.679688 221.738281 348.101562 219.628906 Z M 348.101562 219.628906 "/>
<path style=" stroke:none;fill-rule:nonzero;fill:rgb(18.431373%,18.039216%,25.490196%);fill-opacity:1;" d="M 353.859375 233.964844 L 333.078125 228.121094 L 319.441406 234.671875 C 325.546875 223.335938 329.261719 204.464844 328.089844 188.429688 C 327.808594 185.023438 328.476562 181.605469 330.027344 178.554688 C 331.902344 174.957031 334.832031 172.410156 339.140625 172.6875 L 344.695312 172.183594 L 348.230469 174.199219 C 353.34375 179.546875 355.359375 187.527344 354.5625 194.875 C 353.683594 202.988281 352.589844 212.84375 352.367188 213.722656 C 352.238281 214.238281 352.648438 215.148438 353.082031 216.109375 C 353.8125 217.730469 354.722656 219.75 353.457031 221.011719 C 352.683594 221.691406 352.234375 222.667969 352.21875 223.699219 C 352.285156 224.617188 352.730469 225.464844 353.449219 226.039062 C 355.0625 227.429688 353.9375 233.535156 353.890625 233.792969 Z M 353.859375 233.964844 "/>
<path style=" stroke:none;fill-rule:nonzero;fill:rgb(62.745098%,38.039216%,41.568627%);fill-opacity:1;" d="M 343.257812 193.816406 L 332.816406 192.078125 C 330.929688 197.160156 330.40625 202.648438 331.296875 207.992188 L 320.496094 235.488281 L 320.542969 235.5 C 319.316406 236.710938 319.183594 238.636719 320.234375 240 C 321.28125 241.363281 323.179688 241.738281 324.667969 240.871094 C 326.15625 240.003906 326.761719 238.167969 326.085938 236.585938 L 339.777344 213.15625 Z M 343.257812 193.816406 "/>
<path style=" stroke:none;fill-rule:nonzero;fill:rgb(42.352941%,38.823529%,100%);fill-opacity:1;" d="M 331.058594 199.398438 L 343.179688 196.878906 L 345.160156 188.101562 C 345.15625 184.335938 342.097656 181.285156 338.324219 181.285156 C 334.550781 181.285156 331.492188 184.335938 331.488281 188.101562 C 330.265625 192.984375 330.480469 194.398438 331.058594 199.398438 Z M 331.058594 199.398438 "/>
<path style=" stroke:none;fill-rule:nonzero;fill:rgb(62.745098%,38.039216%,41.568627%);fill-opacity:1;" d="M 348.386719 159.492188 C 348.386719 164.722656 344.136719 168.964844 338.894531 168.964844 C 333.648438 168.964844 329.398438 164.722656 329.398438 159.492188 C 329.398438 154.261719 333.648438 150.019531 338.894531 150.019531 C 344.136719 150.019531 348.386719 154.261719 348.386719 159.492188 Z M 348.386719 159.492188 "/>
<path style=" stroke:none;fill-rule:nonzero;fill:rgb(18.431373%,18.039216%,25.490196%);fill-opacity:1;" d="M 349.90625 152.292969 C 349.167969 150.972656 346.230469 152.660156 345.316406 151.453125 C 344.59375 150.402344 343.675781 149.5 342.609375 148.796875 C 340.816406 147.753906 338.601562 147.730469 336.78125 148.730469 C 336.128906 149.199219 335.425781 149.59375 334.6875 149.917969 C 333.921875 150.164062 332.921875 149.976562 332.589844 149.246094 C 332.824219 149.886719 333.058594 150.523438 333.292969 151.164062 C 332.003906 151.757812 330.472656 151.273438 329.769531 150.042969 C 329.726562 150.707031 329.6875 151.367188 329.644531 152.03125 C 329.53125 151.65625 329.160156 151.417969 328.773438 151.476562 C 328.292969 151.621094 327.925781 152.003906 327.800781 152.488281 C 327.203125 154.25 328.636719 156.304688 330.476562 156.597656 C 331.613281 156.78125 332.757812 156.414062 333.898438 156.261719 C 335.039062 156.105469 336.363281 156.234375 337.082031 157.132812 C 337.792969 158.011719 337.65625 159.269531 337.695312 160.394531 C 337.738281 161.523438 338.230469 162.878906 339.351562 163.027344 C 340.121094 163.132812 340.855469 162.597656 341.632812 162.640625 C 342.738281 162.707031 343.449219 163.976562 343.328125 165.074219 C 343.210938 166.175781 342.515625 167.117188 341.847656 168 C 342.953125 168.085938 344.058594 168.171875 345.164062 168.261719 L 344.734375 168.378906 C 347.4375 168.246094 349.523438 165.628906 349.847656 162.949219 C 350.171875 160.265625 351.226562 154.648438 349.90625 152.292969 Z M 349.90625 152.292969 "/>
</g>
</svg>
