<?xml version="1.0" encoding="UTF-8"?>
<svg xmlns="http://www.w3.org/2000/svg" xmlns:xlink="http://www.w3.org/1999/xlink" width="773.97946" height="419.08428" viewBox="0 0 400 216" version="1.1">
<defs>
<filter id="alpha" filterUnits="objectBoundingBox" x="0%" y="0%" width="100%" height="100%">
  <feColorMatrix type="matrix" in="SourceGraphic" values="0 0 0 0 1 0 0 0 0 1 0 0 0 0 1 0 0 0 1 0"/>
</filter>
<mask id="mask0">
  <g filter="url(#alpha)">
<rect x="0" y="0" width="400" height="216" style="fill:rgb(0%,0%,0%);fill-opacity:0.2;stroke:none;"/>
  </g>
</mask>
<clipPath id="clip1">
  <rect x="0" y="0" width="400" height="217"/>
</clipPath>
<g id="surface5" clip-path="url(#clip1)">
<path style=" stroke:none;fill-rule:nonzero;fill:rgb(0%,0%,0%);fill-opacity:1;" d="M 296.070312 55.554688 L 294.003906 80.816406 L 283.148438 107.105469 L 299.171875 81.332031 Z M 296.070312 55.554688 "/>
</g>
</defs>
<g id="surface1">
<path style=" stroke:none;fill-rule:nonzero;fill:rgb(94.901961%,94.901961%,94.901961%);fill-opacity:1;" d="M 217.054688 114.285156 L 217.054688 114.753906 C 217.054688 123.726562 209.761719 131 200.765625 131 L 16.90625 131 C 7.910156 130.996094 0.621094 123.726562 0.621094 114.753906 L 0.621094 114.285156 Z M 217.054688 114.285156 "/>
<path style=" stroke:none;fill-rule:nonzero;fill:rgb(42.352941%,38.823529%,100%);fill-opacity:1;" d="M 39.074219 36.957031 C 25.789062 40.230469 13.859375 30.035156 11.777344 20.574219 L 12.703125 20.410156 C 23.902344 17.941406 36.402344 25.925781 39.074219 36.957031 Z M 39.074219 36.957031 "/>
<path style=" stroke:none;fill-rule:nonzero;fill:rgb(94.901961%,94.901961%,94.901961%);fill-opacity:1;" d="M 360.242188 212.144531 C 356.398438 210.492188 355.527344 204.460938 358.742188 201.789062 C 361.960938 199.117188 367.746094 201.066406 368.683594 205.132812 L 365.097656 179.554688 C 364.273438 173.675781 363.617188 167.101562 367.179688 162.34375 C 370.515625 157.890625 377.03125 156.460938 382.265625 158.378906 C 387.496094 160.296875 391.363281 165.082031 393.003906 170.394531 C 394.644531 175.707031 394.257812 181.484375 392.824219 186.855469 C 391.390625 192.230469 388.957031 197.277344 386.496094 202.265625 C 383.976562 207.378906 380.914062 212.917969 375.523438 214.800781 C 370.375 216.597656 360.242188 212.144531 360.242188 212.144531 Z M 360.242188 212.144531 "/>
<path style=" stroke:none;fill-rule:nonzero;fill:rgb(100%,100%,100%);fill-opacity:1;" d="M 377.082031 157.894531 C 379.4375 165.226562 380.558594 172.898438 380.402344 180.597656 C 380.253906 188.265625 378.875 195.855469 376.3125 203.085938 C 374.855469 207.1875 373.011719 211.140625 370.800781 214.890625 C 370.601562 215.257812 370.730469 215.714844 371.089844 215.925781 C 371.453125 216.136719 371.914062 216.023438 372.136719 215.671875 C 376.105469 208.90625 378.925781 201.535156 380.484375 193.851562 C 382.0625 186.132812 382.378906 178.210938 381.421875 170.390625 C 380.878906 166.007812 379.929688 161.6875 378.578125 157.484375 C 378.273438 156.539062 376.777344 156.941406 377.082031 157.894531 Z M 377.082031 157.894531 "/>
<path style=" stroke:none;fill-rule:nonzero;fill:rgb(100%,100%,100%);fill-opacity:1;" d="M 357.964844 202.730469 L 370.234375 215.59375 C 370.925781 216.316406 372.019531 215.222656 371.332031 214.5 L 359.0625 201.636719 C 358.371094 200.914062 357.277344 202.007812 357.964844 202.730469 Z M 357.964844 202.730469 "/>
<path style=" stroke:none;fill-rule:nonzero;fill:rgb(24.705882%,23.921569%,33.72549%);fill-opacity:1;" d="M 347.539062 154.164062 C 347.101562 154.164062 346.679688 154.007812 346.351562 153.722656 C 338.773438 148.800781 332.027344 142.707031 326.371094 135.675781 C 325.652344 134.992188 325.609375 133.863281 326.273438 133.128906 L 329.992188 129.03125 L 330.757812 129.722656 L 327.039062 133.820312 C 326.746094 134.144531 326.769531 134.644531 327.09375 134.9375 L 327.148438 134.996094 C 332.753906 141.96875 339.433594 148.003906 346.941406 152.875 L 347.007812 152.925781 C 347.335938 153.21875 347.835938 153.195312 348.128906 152.871094 L 355.386719 144.878906 C 355.667969 144.570312 355.660156 144.097656 355.371094 143.796875 C 353.691406 142.882812 352.050781 141.886719 350.492188 140.835938 L 351.074219 139.980469 C 352.621094 141.027344 354.253906 142.015625 355.925781 142.925781 L 356.027344 142.996094 C 356.773438 143.671875 356.832031 144.824219 356.152344 145.570312 L 348.898438 153.5625 C 348.574219 153.921875 348.117188 154.136719 347.632812 154.160156 C 347.601562 154.164062 347.570312 154.164062 347.539062 154.164062 Z M 347.539062 154.164062 "/>
<path style=" stroke:none;fill-rule:nonzero;fill:rgb(42.352941%,38.823529%,100%);fill-opacity:1;" d="M 339.539062 140.703125 C 341.820312 142.761719 344.160156 143.890625 344.769531 143.21875 C 344.929688 142.988281 344.964844 142.695312 344.863281 142.433594 C 344.617188 141.671875 344.222656 140.96875 343.699219 140.363281 C 341.675781 138.925781 339.707031 137.375 337.792969 135.710938 C 337.195312 135.515625 336.734375 135.519531 336.511719 135.765625 C 336.480469 135.800781 336.453125 135.839844 336.433594 135.886719 C 336.050781 136.664062 337.378906 138.75 339.539062 140.703125 Z M 339.539062 140.703125 "/>
<path style=" stroke:none;fill-rule:nonzero;fill:rgb(24.705882%,23.921569%,33.72549%);fill-opacity:1;" d="M 325.804688 124.132812 C 325.824219 124.601562 326.027344 125.042969 326.371094 125.363281 C 329.433594 129.136719 332.800781 132.65625 336.433594 135.886719 C 339.09375 138.253906 341.910156 140.4375 344.863281 142.433594 C 345.355469 142.765625 345.851562 143.089844 346.351562 143.410156 C 346.679688 143.699219 347.101562 143.855469 347.539062 143.855469 C 347.570312 143.855469 347.601562 143.847656 347.632812 143.847656 C 348.117188 143.828125 348.574219 143.613281 348.898438 143.25 L 356.15625 135.261719 C 356.832031 134.511719 356.773438 133.359375 356.027344 132.683594 L 355.929688 132.609375 C 348.007812 128.34375 341.234375 122.230469 336.191406 114.789062 L 336.113281 114.695312 C 335.363281 114.023438 334.207031 114.078125 333.53125 114.824219 L 326.273438 122.816406 C 325.949219 123.175781 325.777344 123.648438 325.804688 124.132812 Z M 326.835938 124.078125 C 326.828125 123.871094 326.898438 123.667969 327.039062 123.511719 L 334.292969 115.515625 C 334.4375 115.359375 334.636719 115.265625 334.847656 115.257812 C 335.039062 115.246094 335.226562 115.304688 335.375 115.425781 C 340.492188 122.957031 347.351562 129.152344 355.371094 133.488281 C 355.660156 133.785156 355.667969 134.257812 355.390625 134.566406 L 348.128906 142.5625 C 347.988281 142.71875 347.792969 142.8125 347.582031 142.820312 C 347.371094 142.828125 347.164062 142.757812 347.007812 142.617188 L 346.941406 142.566406 C 345.84375 141.863281 344.765625 141.132812 343.699219 140.363281 C 341.675781 138.925781 339.707031 137.375 337.792969 135.710938 C 333.933594 132.351562 330.371094 128.660156 327.148438 124.6875 L 327.09375 124.632812 C 326.941406 124.488281 326.847656 124.289062 326.835938 124.078125 Z M 326.835938 124.078125 "/>
<path style=" stroke:none;fill-rule:nonzero;fill:rgb(42.352941%,38.823529%,100%);fill-opacity:1;" d="M 341.742188 127.972656 C 339.460938 125.914062 337.121094 124.785156 336.511719 125.453125 C 335.90625 126.121094 337.261719 128.335938 339.542969 130.394531 C 341.820312 132.453125 344.164062 133.582031 344.769531 132.914062 C 345.378906 132.242188 344.019531 130.03125 341.742188 127.972656 Z M 341.742188 127.972656 "/>
<path style=" stroke:none;fill-rule:nonzero;fill:rgb(100%,72.156863%,72.156863%);fill-opacity:1;" d="M 299.175781 209.582031 L 292.839844 209.582031 L 289.824219 185.203125 L 299.175781 185.203125 Z M 299.175781 209.582031 "/>
<path style=" stroke:none;fill-rule:nonzero;fill:rgb(18.431373%,18.039216%,25.490196%);fill-opacity:1;" d="M 300.792969 215.707031 L 280.363281 215.707031 L 280.363281 215.449219 C 280.363281 211.070312 283.921875 207.519531 288.3125 207.519531 L 300.792969 207.519531 Z M 300.792969 215.707031 "/>
<path style=" stroke:none;fill-rule:nonzero;fill:rgb(100%,72.156863%,72.156863%);fill-opacity:1;" d="M 317.78125 209.582031 L 311.445312 209.582031 L 308.429688 185.203125 L 317.78125 185.203125 Z M 317.78125 209.582031 "/>
<path style=" stroke:none;fill-rule:nonzero;fill:rgb(18.431373%,18.039216%,25.490196%);fill-opacity:1;" d="M 319.394531 215.707031 L 298.964844 215.707031 L 298.964844 215.449219 C 298.964844 211.070312 302.527344 207.519531 306.917969 207.519531 L 319.394531 207.519531 Z M 319.394531 215.707031 "/>
<path style=" stroke:none;fill-rule:nonzero;fill:rgb(18.431373%,18.039216%,25.490196%);fill-opacity:1;" d="M 322.03125 111.0625 L 320.519531 200.605469 C 320.507812 201.179688 320.261719 201.722656 319.832031 202.105469 C 319.40625 202.488281 318.835938 202.675781 318.265625 202.625 L 310.851562 201.953125 C 309.847656 201.859375 309.054688 201.058594 308.976562 200.058594 L 304.636719 144.203125 C 304.617188 143.929688 304.386719 143.722656 304.109375 143.726562 C 303.835938 143.734375 303.617188 143.949219 303.605469 144.222656 L 301.4375 201.355469 C 301.394531 202.464844 300.480469 203.339844 299.371094 203.339844 L 291.417969 203.339844 C 290.324219 203.339844 289.421875 202.492188 289.355469 201.402344 L 283.789062 110.546875 L 316.863281 102.300781 Z M 322.03125 111.0625 "/>
<path style=" stroke:none;fill-rule:nonzero;fill:rgb(100%,72.156863%,72.156863%);fill-opacity:1;" d="M 310.734375 14.324219 C 310.734375 21.316406 305.050781 26.984375 298.042969 26.984375 C 291.03125 26.984375 285.347656 21.316406 285.347656 14.324219 C 285.347656 7.332031 291.03125 1.660156 298.042969 1.660156 C 305.050781 1.660156 310.734375 7.332031 310.734375 14.324219 Z M 310.734375 14.324219 "/>
<path style=" stroke:none;fill-rule:nonzero;fill:rgb(24.705882%,23.921569%,33.72549%);fill-opacity:1;" d="M 282.65625 113.726562 C 282.210938 113.300781 281.957031 112.710938 281.953125 112.09375 L 281.09375 51.035156 C 280.988281 44.664062 285.015625 38.949219 291.058594 36.890625 C 292.25 31.507812 298.578125 30.835938 302.269531 30.914062 C 304.136719 30.957031 305.867188 31.902344 306.90625 33.453125 L 309.550781 37.410156 L 315.382812 40.820312 C 320.917969 44.042969 323.730469 50.464844 322.34375 56.707031 L 321.445312 60.777344 C 318.285156 75.191406 318.585938 90.144531 322.324219 104.421875 L 324.128906 111.289062 C 324.320312 112.015625 324.148438 112.789062 323.664062 113.363281 C 323.183594 113.941406 322.453125 114.25 321.703125 114.191406 L 319.605469 114.03125 C 318.480469 113.945312 317.578125 113.066406 317.46875 111.949219 L 317.121094 108.484375 C 317.109375 108.355469 316.996094 108.253906 316.863281 108.253906 C 316.730469 108.253906 316.621094 108.355469 316.605469 108.484375 L 316.269531 111.839844 C 316.152344 113.011719 315.171875 113.910156 313.992188 113.925781 L 284.3125 114.382812 C 284.300781 114.382812 284.289062 114.382812 284.277344 114.382812 C 283.671875 114.382812 283.089844 114.148438 282.65625 113.726562 Z M 282.65625 113.726562 "/>
<path style=" stroke:none;fill-rule:nonzero;fill:rgb(18.431373%,18.039216%,25.490196%);fill-opacity:1;" d="M 299.035156 21.621094 C 299.085938 23.410156 300.332031 24.445312 301.863281 25.382812 C 303.390625 26.320312 305.179688 26.730469 306.929688 27.121094 C 307.410156 27.375 307.984375 27.359375 308.449219 27.082031 C 308.914062 26.808594 309.203125 26.308594 309.207031 25.769531 L 310.8125 19.671875 C 311.382812 17.726562 311.796875 15.738281 312.050781 13.726562 C 312.4375 9.855469 311.515625 5.691406 308.808594 2.890625 C 306.101562 0.09375 301.402344 -0.902344 298.15625 1.253906 C 294.304688 -3.652344 276.699219 7.1875 281.039062 10.601562 C 281.8125 11.210938 282.996094 10.441406 283.976562 10.367188 C 284.957031 10.292969 286.054688 10.464844 286.679688 11.222656 C 287.492188 12.214844 287.136719 13.691406 287.472656 14.929688 C 287.753906 15.808594 288.375 16.542969 289.199219 16.960938 C 290.019531 17.382812 290.976562 17.457031 291.859375 17.171875 C 292.667969 16.773438 293.429688 16.285156 294.132812 15.714844 C 294.882812 15.214844 295.835938 14.84375 296.679688 15.160156 C 297.796875 15.574219 298.195312 16.9375 298.292969 18.121094 C 298.464844 19.304688 298.710938 20.472656 299.035156 21.621094 Z M 299.035156 21.621094 "/>
<use xlink:href="#surface5" mask="url(#mask0)"/>
<path style=" stroke:none;fill-rule:nonzero;fill:rgb(100%,72.156863%,72.156863%);fill-opacity:1;" d="M 280.613281 116.898438 C 281.8125 115.9375 282.523438 114.496094 282.554688 112.960938 C 282.585938 111.429688 281.933594 109.960938 280.777344 108.949219 L 287.691406 91.867188 L 278.285156 93.761719 L 273.160156 109.695312 C 271.554688 111.792969 271.777344 114.761719 273.679688 116.597656 C 275.582031 118.4375 278.558594 118.566406 280.613281 116.898438 Z M 280.613281 116.898438 "/>
<path style=" stroke:none;fill-rule:nonzero;fill:rgb(24.705882%,23.921569%,33.72549%);fill-opacity:1;" d="M 280.109375 109.363281 L 274.785156 107.449219 C 273.648438 107.035156 273.015625 105.824219 273.328125 104.65625 L 282.113281 72.582031 L 283.453125 43.59375 C 283.5625 41.210938 284.949219 39.074219 287.082031 38 C 289.214844 36.921875 291.765625 37.078125 293.75 38.402344 C 295.738281 39.726562 296.855469 42.015625 296.675781 44.390625 L 294.285156 76.132812 L 283.09375 107.949219 C 282.742188 108.9375 281.773438 109.570312 280.726562 109.496094 C 280.515625 109.480469 280.308594 109.4375 280.109375 109.363281 Z M 280.109375 109.363281 "/>
<path style=" stroke:none;fill-rule:nonzero;fill:rgb(100%,72.156863%,72.156863%);fill-opacity:1;" d="M 334.984375 118.574219 C 335.722656 117.226562 335.820312 115.621094 335.257812 114.195312 C 334.695312 112.769531 333.527344 111.664062 332.066406 111.175781 L 331.851562 92.757812 L 323.902344 98.121094 L 325.328125 114.789062 C 324.65625 117.34375 326.007812 119.996094 328.472656 120.960938 C 330.9375 121.925781 333.734375 120.902344 334.984375 118.574219 Z M 334.984375 118.574219 "/>
<path style=" stroke:none;fill-rule:nonzero;fill:rgb(24.705882%,23.921569%,33.72549%);fill-opacity:1;" d="M 331.609375 111.816406 L 325.957031 112.09375 C 324.75 112.148438 323.699219 111.273438 323.535156 110.074219 L 319.253906 77.101562 L 309.292969 49.835938 C 308.472656 47.597656 308.929688 45.089844 310.480469 43.277344 C 312.035156 41.464844 314.445312 40.628906 316.789062 41.085938 C 319.136719 41.546875 321.050781 43.230469 321.804688 45.492188 L 331.855469 75.703125 L 333.816406 109.363281 C 333.878906 110.410156 333.226562 111.367188 332.234375 111.699219 C 332.03125 111.765625 331.824219 111.804688 331.609375 111.816406 Z M 331.609375 111.816406 "/>
<path style=" stroke:none;fill-rule:nonzero;fill:rgb(24.705882%,23.921569%,33.72549%);fill-opacity:1;" d="M 399.472656 215.96875 L 202.574219 215.96875 C 202.289062 215.96875 202.054688 215.738281 202.054688 215.453125 C 202.054688 215.167969 202.289062 214.9375 202.574219 214.9375 L 399.472656 214.9375 C 399.757812 214.9375 399.988281 215.167969 399.988281 215.453125 C 399.988281 215.738281 399.757812 215.96875 399.472656 215.96875 Z M 399.472656 215.96875 "/>
<path style=" stroke:none;fill-rule:nonzero;fill:rgb(24.705882%,23.921569%,33.72549%);fill-opacity:1;" d="M 167.039062 104.671875 C 164.070312 104.671875 161.710938 103.789062 160.023438 102.054688 C 156.207031 98.128906 156.445312 90.5625 156.636719 84.480469 C 156.695312 82.710938 156.746094 81.042969 156.691406 79.640625 L 156.691406 79.621094 C 156.71875 73.929688 161.335938 69.324219 167.042969 69.292969 L 191.648438 69.292969 C 194.613281 69.292969 196.972656 70.171875 198.660156 71.90625 C 202.472656 75.828125 202.238281 83.394531 202.046875 89.472656 C 201.992188 91.242188 201.941406 92.917969 201.996094 94.320312 C 201.972656 100.019531 197.355469 104.640625 191.640625 104.671875 Z M 157.726562 79.613281 C 157.78125 81.046875 157.726562 82.730469 157.671875 84.515625 C 157.484375 90.398438 157.253906 97.722656 160.761719 101.335938 C 162.269531 102.886719 164.324219 103.640625 167.039062 103.640625 L 191.636719 103.640625 C 196.777344 103.613281 200.933594 99.464844 200.960938 94.339844 C 200.90625 92.921875 200.957031 91.230469 201.015625 89.4375 C 201.199219 83.554688 201.425781 76.230469 197.917969 72.625 C 196.410156 71.074219 194.363281 70.324219 191.648438 70.324219 L 167.042969 70.324219 C 161.910156 70.351562 157.757812 74.492188 157.726562 79.613281 Z M 157.726562 79.613281 "/>
<path style=" stroke:none;fill-rule:nonzero;fill:rgb(24.705882%,23.921569%,33.72549%);fill-opacity:1;" d="M 33.636719 37.90625 C 29.324219 37.882812 25.101562 36.648438 21.457031 34.347656 C 16.113281 31.035156 12.078125 25.730469 10.925781 20.507812 L 10.8125 19.980469 L 12.253906 19.722656 C 23.621094 17.222656 36.476562 25.285156 39.230469 36.652344 L 39.351562 37.152344 L 38.851562 37.273438 C 37.148438 37.695312 35.394531 37.90625 33.636719 37.90625 Z M 12.0625 20.804688 C 13.300781 25.601562 17.066406 30.414062 22 33.472656 C 26.773438 36.519531 32.554688 37.566406 38.097656 36.390625 C 35.214844 25.800781 23.148438 18.371094 12.46875 20.734375 Z M 12.0625 20.804688 "/>
<path style=" stroke:none;fill-rule:nonzero;fill:rgb(24.705882%,23.921569%,33.72549%);fill-opacity:1;" d="M 19.300781 96.492188 C 15.921875 96.492188 13.171875 94.980469 11.558594 92.230469 C 9.722656 88.972656 9.71875 84.992188 11.558594 81.734375 C 13.195312 78.933594 16.007812 77.414062 19.480469 77.46875 L 52.269531 77.46875 C 55.730469 77.421875 58.546875 78.9375 60.183594 81.738281 C 62.019531 84.996094 62.019531 88.976562 60.183594 92.234375 C 58.542969 95.03125 55.730469 96.523438 52.261719 96.488281 L 19.472656 96.488281 C 19.414062 96.492188 19.359375 96.492188 19.300781 96.492188 Z M 19.320312 78.496094 C 16.304688 78.496094 13.871094 79.828125 12.449219 82.253906 C 10.796875 85.191406 10.796875 88.773438 12.453125 91.707031 C 13.894531 94.171875 16.382812 95.507812 19.464844 95.460938 L 52.269531 95.460938 C 55.355469 95.507812 57.847656 94.175781 59.292969 91.710938 C 60.945312 88.777344 60.945312 85.195312 59.292969 82.257812 C 57.847656 79.789062 55.355469 78.460938 52.277344 78.5 L 19.46875 78.5 C 19.421875 78.496094 19.371094 78.496094 19.320312 78.496094 Z M 19.320312 78.496094 "/>
<path style=" stroke:none;fill-rule:nonzero;fill:rgb(42.352941%,38.823529%,100%);fill-opacity:1;" d="M 175.453125 81.550781 L 165.117188 81.550781 C 163.6875 81.550781 162.53125 80.394531 162.53125 78.972656 C 162.53125 77.550781 163.6875 76.394531 165.117188 76.394531 L 175.453125 76.394531 C 176.878906 76.394531 178.035156 77.550781 178.035156 78.972656 C 178.035156 80.394531 176.878906 81.550781 175.453125 81.550781 Z M 175.453125 81.550781 "/>
<path style=" stroke:none;fill-rule:nonzero;fill:rgb(42.352941%,38.823529%,100%);fill-opacity:1;" d="M 175.453125 89.796875 L 165.117188 89.796875 C 163.6875 89.796875 162.53125 88.644531 162.53125 87.222656 C 162.53125 85.796875 163.6875 84.644531 165.117188 84.644531 L 175.453125 84.644531 C 176.878906 84.644531 178.035156 85.796875 178.035156 87.222656 C 178.035156 88.644531 176.878906 89.796875 175.453125 89.796875 Z M 175.453125 89.796875 "/>
<path style=" stroke:none;fill-rule:nonzero;fill:rgb(42.352941%,38.823529%,100%);fill-opacity:1;" d="M 175.453125 98.046875 L 165.117188 98.046875 C 163.6875 98.046875 162.53125 96.894531 162.53125 95.46875 C 162.53125 94.046875 163.6875 92.890625 165.117188 92.890625 L 175.453125 92.890625 C 176.878906 92.890625 178.035156 94.046875 178.035156 95.46875 C 178.035156 96.894531 176.878906 98.046875 175.453125 98.046875 Z M 175.453125 98.046875 "/>
<path style=" stroke:none;fill-rule:nonzero;fill:rgb(42.352941%,38.823529%,100%);fill-opacity:1;" d="M 193.539062 81.550781 L 183.203125 81.550781 C 181.777344 81.550781 180.621094 80.394531 180.621094 78.972656 C 180.621094 77.550781 181.777344 76.394531 183.203125 76.394531 L 193.539062 76.394531 C 194.96875 76.394531 196.125 77.550781 196.125 78.972656 C 196.125 80.394531 194.96875 81.550781 193.539062 81.550781 Z M 193.539062 81.550781 "/>
<path style=" stroke:none;fill-rule:nonzero;fill:rgb(42.352941%,38.823529%,100%);fill-opacity:1;" d="M 193.539062 89.796875 L 183.203125 89.796875 C 181.777344 89.796875 180.621094 88.644531 180.621094 87.222656 C 180.621094 85.796875 181.777344 84.644531 183.203125 84.644531 L 193.539062 84.644531 C 194.96875 84.644531 196.125 85.796875 196.125 87.222656 C 196.125 88.644531 194.96875 89.796875 193.539062 89.796875 Z M 193.539062 89.796875 "/>
<path style=" stroke:none;fill-rule:nonzero;fill:rgb(42.352941%,38.823529%,100%);fill-opacity:1;" d="M 193.539062 98.046875 L 183.203125 98.046875 C 181.777344 98.046875 180.621094 96.894531 180.621094 95.46875 C 180.621094 94.046875 181.777344 92.890625 183.203125 92.890625 L 193.539062 92.890625 C 194.96875 92.890625 196.125 94.046875 196.125 95.46875 C 196.125 96.894531 194.96875 98.046875 193.539062 98.046875 Z M 193.539062 98.046875 "/>
<path style=" stroke:none;fill-rule:nonzero;fill:rgb(24.705882%,23.921569%,33.72549%);fill-opacity:1;" d="M 0.621094 44.917969 L 217.054688 44.917969 L 217.054688 45.949219 L 0.621094 45.949219 Z M 0.621094 44.917969 "/>
<path style=" stroke:none;fill-rule:nonzero;fill:rgb(24.705882%,23.921569%,33.72549%);fill-opacity:1;" d="M 200 131.296875 L 17.054688 131.296875 C 7.640625 131.285156 0.0117188 123.675781 0 114.285156 L 0 25.617188 C 0.0117188 16.226562 7.640625 8.617188 17.054688 8.605469 L 200 8.605469 C 209.414062 8.617188 217.042969 16.226562 217.054688 25.617188 L 217.054688 114.285156 C 217.042969 123.675781 209.414062 131.285156 200 131.296875 Z M 17.054688 9.636719 C 8.210938 9.644531 1.042969 16.796875 1.035156 25.617188 L 1.035156 114.285156 C 1.042969 123.109375 8.210938 130.257812 17.054688 130.265625 L 200 130.265625 C 208.84375 130.257812 216.011719 123.109375 216.019531 114.285156 L 216.019531 25.617188 C 216.011719 16.796875 208.84375 9.644531 200 9.636719 Z M 17.054688 9.636719 "/>
</g>
</svg>
