<svg id="approval" enable-background="new 0 0 49.91 58.9" height="512" viewBox="0 0 49.91 58.9" width="512" xmlns="http://www.w3.org/2000/svg"><path d="m49.91 10.52-7.96 32.08c-.05-.06-.1-.1-.16-.15l-1.86-1.5-1.83 2.28v-35.64z" fill="#008cb7"/><path d="m12.5 4.11c.07.34.1.67.1 1.03v9.17c0 2.12-1.63 3.84-3.63 3.84s-3.63-1.72-3.63-3.84l.01-5.31c0-1.41 1.04-2.55 2.33-2.55 1.28 0 2.33 1.14 2.33 2.55v4.46h-2v-4.46c0-.34-.2-.55-.33-.55-.14 0-.33.21-.33.55l-.01 5.31c0 1.01.73 1.84 1.63 1.84s1.63-.83 1.63-1.84v-9.17c0-.36-.06-.71-.16-1.03h-10.44v54.79h38.1v-7.66l-.97 1.21c-.91 1.12-2.55 1.3-3.67.4l-1.87-1.49 6.51-8.13v-39.12zm13.35 3.78c2.58 0 4.78 1.59 5.67 3.84.17.42.3.86.36 1.32.06.31.08.63.08.95 0 2.97-2.11 5.43-4.91 5.99-.39.08-.79.12-1.2.12-3.38 0-6.11-2.73-6.11-6.11s2.73-6.11 6.11-6.11z" fill="#3ca8ce"/><path d="m31.52 11.73c.29.7.44 1.47.44 2.27 0 3.38-2.73 6.11-6.11 6.11s-6.11-2.73-6.11-6.11 2.73-6.11 6.11-6.11c2.58 0 4.78 1.59 5.67 3.84z" fill="#57c48a"/><path d="m12.6 5.14v9.17c0 2.12-1.63 3.84-3.63 3.84s-3.63-1.72-3.63-3.84l.01-5.31c0-1.41 1.04-2.55 2.33-2.55 1.28 0 2.33 1.14 2.33 2.55v4.46h-2v-4.46c0-.34-.2-.55-.33-.55-.14 0-.33.21-.33.55l-.01 5.31c0 1.01.73 1.84 1.63 1.84s1.63-.83 1.63-1.84v-9.17c0-.36-.06-.71-.16-1.03h2.06c.07.34.1.67.1 1.03z" fill="#183b6d"/><path d="m12.48 4.01c.01.03.01.07.02.1h-2.06c-.01-.03-.02-.07-.03-.1-.41-1.18-1.44-2.01-2.63-2.01-1.17 0-2.22.8-2.63 2.01h-2.05c.01-.23.09-.47.09-.47.65-2.12 2.49-3.54 4.59-3.54 2.3 0 4.22 1.72 4.7 4.01z" fill="#183b6d"/><g fill="#f9f9f9"><path d="m3.02 22.1h18.83v2h-18.83z"/><path d="m3.02 26.1h32v2h-32z"/><path d="m3.02 30.1h32v2h-32z"/><path d="m3.02 34.1h14v2h-14z"/><path d="m26.32 17.35c-.033 0-.066-.002-.101-.005-.278-.028-.531-.172-.699-.396l-2.819-3.76 1.6-1.199 2.168 2.891 7.646-6.798 1.33 1.494-8.461 7.521c-.184.163-.421.252-.664.252z"/></g><path d="m24.07 4.11h-8l.46-1.87z" fill="#008cb7"/><path d="m17.85 47h13v2h-13z" fill="#f9f9f9"/><path d="m29.33 41.87-.22.13c-.5.32-1 .64-1.48.95-.04.02-.08.05-.12.07-.02-.03-.03-.08-.05-.12-.03-.17-.04-.34-.06-.51-.02-.31-.05-.66-.16-1.01-.28-.93-1.19-1.75-2.23-1.51-.46.1-.87.39-1.17.82-.34.45-.53.94-.67 1.42-.03-.28-.06-.56-.13-.86-.27-1.11-.93-1.93-1.82-2.25-1.1-.39-2.43.09-3.09 1.11-.54.81-.68 1.89-.39 2.95.25.92.79 1.7 1.23 2.28l1.59-1.22c-.35-.45-.73-1-.89-1.59-.14-.49-.09-.99.13-1.32.17-.26.51-.41.74-.33.24.09.45.42.55.83.08.35.1.73.12 1.14.02.26.03.52.06.8.04.34.12.79.42 1.24.35.45.85.7 1.34.7.14 0 .28-.02.41-.06.38-.11.89-.4 1.17-1.21.14-.36.24-.72.33-1.09.12-.47.22-.88.41-1.2.03.15.04.33.06.52.02.27.05.53.11.81.26 1.03 1.08 1.7 1.98 1.72.49-.02.87-.24 1.2-.44.5-.32.99-.63 1.48-.95l.22-.14z" fill="#f9f9f9"/><path d="m48.56 52.56c1.3 1.04 1.51 2.93.47 4.22-1.04 1.3-2.92 1.51-4.22.47-.92-.74-1.29-1.91-1.05-2.99l-3.93-3.14-1-.8 1.66-2.08.05.04 4.88 3.91c1-.47 2.22-.36 3.14.37z" fill="#39a871"/><path d="m41.95 42.6c.99.91 1.11 2.45.25 3.51l-1.62 2.02-.09.11-1.66 2.08-.73.92-.97 1.21c-.91 1.12-2.55 1.3-3.67.4l-1.87-1.49 6.51-8.13 1.83-2.28 1.86 1.5c.06.05.11.09.16.15z" fill="#39a871"/></svg>