<svg height="512" viewBox="0 0 512 512" width="512" xmlns="http://www.w3.org/2000/svg" xmlns:xlink="http://www.w3.org/1999/xlink"><linearGradient id="New_Gradient_Swatch_17" gradientUnits="userSpaceOnUse" x1="68.929" x2="187.071" y1="467.071" y2="348.929"><stop offset="0" stop-color="#8177b8"/><stop offset="1" stop-color="#aba4d0"/></linearGradient><linearGradient id="New_Gradient_Swatch_22" gradientUnits="userSpaceOnUse" x1="20" x2="92" y1="444" y2="372"><stop offset="0" stop-color="#9d95c8"/><stop offset="1" stop-color="#d5d2e7"/></linearGradient><linearGradient id="New_Gradient_Swatch_22-2" x1="164" x2="236" xlink:href="#New_Gradient_Swatch_22" y2="372"/><linearGradient id="New_Gradient_Swatch_19" gradientUnits="userSpaceOnUse" x1="69.179" x2="186.821" y1="402.321" y2="284.679"><stop offset="0" stop-color="#8f86c0"/><stop offset="1" stop-color="#c7c3df"/></linearGradient><linearGradient id="New_Gradient_Swatch_25" gradientUnits="userSpaceOnUse" x1="341.717" x2="439.18" y1="196.283" y2="98.819"><stop offset="0" stop-color="#60bbc1"/><stop offset="1" stop-color="#a7d9dd"/></linearGradient><linearGradient id="New_Gradient_Swatch_16" gradientUnits="userSpaceOnUse" x1="276" x2="348" y1="190" y2="118"><stop offset="0" stop-color="#b8e1e3"/><stop offset="1" stop-color="#edf7f8"/></linearGradient><linearGradient id="New_Gradient_Swatch_16-2" x1="420" x2="492" xlink:href="#New_Gradient_Swatch_16" y1="190" y2="118"/><linearGradient id="New_Gradient_Swatch_24" gradientUnits="userSpaceOnUse" x1="357.011" x2="435.287" y1="116.489" y2="38.213"><stop offset="0" stop-color="#95d1d6"/><stop offset="1" stop-color="#dcf0f1"/></linearGradient><g id="_13-transfer" data-name="13-transfer"><g id="gradient-2" data-name="gradient"><rect fill="url(#New_Gradient_Swatch_17)" height="132" rx="10" width="116" x="70" y="342"/><path d="m40 352h32v112h-32z" fill="url(#New_Gradient_Swatch_22)"/><path d="m184 352h32v112h-32z" fill="url(#New_Gradient_Swatch_22-2)"/><path d="m224 474h-192a10 10 0 0 1 0-20h192a10 10 0 0 1 0 20z" fill="#c7c3df"/><path d="m240 506h-224a10 10 0 0 1 0-20h224a10 10 0 0 1 0 20z" fill="#d5d2e7"/><path d="m229.547 327.68-96-64a10 10 0 0 0 -11.094 0l-96 64a10 10 0 0 0 -4.453 8.32v15a10 10 0 0 0 10 10h192a10 10 0 0 0 10-10v-15a10 10 0 0 0 -4.453-8.32z" fill="url(#New_Gradient_Swatch_19)"/><rect fill="url(#New_Gradient_Swatch_25)" height="132" rx="10" width="116" x="326" y="88"/><path d="m296 98h32v112h-32z" fill="url(#New_Gradient_Swatch_16)"/><path d="m440 98h32v112h-32z" fill="url(#New_Gradient_Swatch_16-2)"/><path d="m480 220h-192a10 10 0 0 1 0-20h192a10 10 0 0 1 0 20z" fill="#b8e1e3"/><path d="m496 252h-224a10 10 0 0 1 0-20h224a10 10 0 0 1 0 20z" fill="#dcf0f1"/><path d="m485.547 73.68-96-64a10 10 0 0 0 -11.094 0l-96 64a10 10 0 0 0 -4.453 8.32v15a10 10 0 0 0 10 10h192a10 10 0 0 0 10-10v-15a10 10 0 0 0 -4.453-8.32z" fill="url(#New_Gradient_Swatch_24)"/><g fill="#f6d084"><path d="m429.129 289.2a10 10 0 0 0 -12.136 7.26 165.381 165.381 0 0 1 -118.932 120.147l12.247-22.894a10 10 0 0 0 -17.635-9.434l-22.642 42.321a10 10 0 0 0 4.285 13.631l42.8 21.76a10 10 0 1 0 9.065-17.828l-18.6-9.457a185.863 185.863 0 0 0 128.809-133.367 10 10 0 0 0 -7.261-12.139z"/><path d="m242.691 77.68a10 10 0 0 0 -5.007-5.915l-42.8-21.76a10 10 0 1 0 -9.065 17.828l18.6 9.457a185.86 185.86 0 0 0 -128.808 133.371 10 10 0 1 0 19.4 4.875 165.383 165.383 0 0 1 118.928-120.143l-12.247 22.894a10 10 0 1 0 17.635 9.434l22.642-42.321a10 10 0 0 0 .722-7.72z"/></g></g></g></svg>