<svg id="Icons" height="512" viewBox="0 0 60 60" width="512" xmlns="http://www.w3.org/2000/svg"><path d="m59 44.246a2.222 2.222 0 0 1 -.8 1.709l-14.64 11.77a5.848 5.848 0 0 1 -5.47.969l-12.746-4.461a4.02 4.02 0 0 0 -1.344-.233h-4v-10h4a4 4 0 0 0 2.4-.8l1.653-1.24a4.793 4.793 0 0 1 3.67-.889l15.607 2.615a2.251 2.251 0 0 1 1.929 2.079 2.18 2.18 0 0 1 -2.169 2.235h-10.09l4.49 3.8a.856.856 0 0 0 1.05.04l12.87-9.376a2.271 2.271 0 0 1 3.59 1.782z" fill="#8f5c4a"/><path d="m15 43h5a1 1 0 0 1 1 1v10a1 1 0 0 1 -1 1h-5a0 0 0 0 1 0 0v-12a0 0 0 0 1 0 0z" fill="#d5d8db"/><path d="m1.933 56.062 12.567.838a1.406 1.406 0 0 0 1.5-1.4v-12.5a1 1 0 0 0 -1-1h-13a1 1 0 0 0 -1 1v12.064a1 1 0 0 0 .933.998z" fill="#262472"/><path d="m19 5a4 4 0 0 0 -8 0v24a4 4 0 0 0 4 4h37a2.006 2.006 0 0 0 2-2v-2z" fill="#262472"/><path d="m59 7v20a2.006 2.006 0 0 1 -2 2h-37.25a.819.819 0 0 1 -.75-.5v-23.5h38a2.006 2.006 0 0 1 2 2z" fill="#f0f1f2"/><path d="m19 5v23.5a.6.6 0 0 1 -.06-.19 4.009 4.009 0 0 0 -4.88-3.2 3.96 3.96 0 0 0 -2.95 2.95 4.379 4.379 0 0 0 -.11.94v-24a4 4 0 0 1 8 0z" fill="#363699"/><rect fill="#50ad80" height="4" rx="1" width="20" x="34" y="9"/><path d="m49.25 46a2.091 2.091 0 0 1 -.63 1.36 2.121 2.121 0 0 1 -1.53.64h-14.09a1 1 0 0 1 0-2z" fill="#7c4e40"/><path d="m30 16a3 3 0 0 0 -3-3 1 1 0 1 1 .867-1.5 1 1 0 0 0 1.731-1 2.993 2.993 0 0 0 -1.598-1.3v-.2a1 1 0 0 0 -2 0v.184a2.993 2.993 0 0 0 1 5.816 1 1 0 1 1 -.867 1.5 1 1 0 0 0 -1.731 1 2.993 2.993 0 0 0 1.6 1.3v.2a1 1 0 0 0 2 0v-.184a3 3 0 0 0 1.998-2.816z" fill="#50ad80"/><path d="m54 26h-30a1 1 0 0 1 0-2h30a1 1 0 0 1 0 2z" fill="#505068"/><g fill="#b5b8bc"><path d="m54 22h-20a1 1 0 0 1 0-2h20a1 1 0 0 1 0 2z"/><path d="m54 18h-20a1 1 0 0 1 0-2h20a1 1 0 0 1 0 2z"/></g></svg>