<?xml version="1.0" encoding="iso-8859-1"?>
<!-- Generator: Adobe Illustrator 21.0.0, SVG Export Plug-In . SVG Version: 6.00 Build 0)  -->
<svg version="1.1" id="Capa_1" xmlns="http://www.w3.org/2000/svg" xmlns:xlink="http://www.w3.org/1999/xlink" x="0px" y="0px"
	 viewBox="0 0 512 512" style="enable-background:new 0 0 512 512;" xml:space="preserve">
<path style="fill:#FCB038;" d="M487.381,364.54h-158.28c-7.079,0-12.818-5.739-12.818-12.818V12.818
	C316.283,5.739,322.022,0,329.101,0h158.28c7.079,0,12.818,5.739,12.818,12.818v338.905
	C500.198,358.801,494.46,364.54,487.381,364.54z"/>
<path style="fill:#FD8F31;" d="M487.381,0h-43.876v364.54h43.876c7.079,0,12.818-5.739,12.818-12.818V12.818
	C500.198,5.739,494.46,0,487.381,0z"/>
<path style="fill:#464C50;" d="M421.188,314.467h-22.555c-6.642,0-12.027-5.385-12.027-12.027V56.834
	c0-6.642,5.385-12.027,12.027-12.027h22.555c6.642,0,12.027,5.385,12.027,12.027V302.44
	C433.215,309.083,427.83,314.467,421.188,314.467z"/>
<path style="fill:#FFE285;" d="M433.215,84.567c-26.77-3.126-54.658,5.577-75.195,26.115c-35.649,35.649-35.649,93.448,0,129.097
	c20.537,20.537,48.426,29.24,75.195,26.115V84.567z"/>
<path style="fill:#FCD7C3;" d="M315.717,254.835c-12.757,12.757-27.244,27.247-35.229,35.237c-3.907,3.909-9.203,6.104-14.797,6.104
	h-0.288c-9.231,0-20.042-8.938-22.422-17.856l-0.006-80.755l29.751-24.482l33.83-5.192c0,0,57.375-11.362,74.468-19.383
	c4.285-2.011,13.368-30.258-8.761-32.489c-25.828-2.353-85.191-9.403-100.683-11.258c-10.628-1.273-21.313,1.87-29.56,8.693
	l-75.499,62.459c-10.884,9.004-18.729,21.137-22.488,34.753c-8.419,30.496-24.534,86.06-35.789,107.511l-56.227,56.227
	l97.344,97.344l27.073-27.073c5.088-5.088,11.381-8.807,18.292-10.811l56.542-19.039c17.762-6.094,33.399-17.165,45.046-31.896
	l28.619-36.194l83.659-83.659c9.641-9.641,13.74-21.173,4.099-30.813C397.496,213.393,342.028,228.524,315.717,254.835z"/>
<path style="fill:#FFE285;" d="M372.262,116.019c-4.86-0.443-10.908-1.052-17.627-1.761c-12.508,13.912-19.99,30.74-22.446,48.144
	c17.581-3.993,39.375-9.455,48.834-13.893C385.309,146.497,394.391,118.25,372.262,116.019z"/>
<path style="fill:#FFCDAC;" d="M296.314,382.928l28.619-36.194l83.659-83.659c9.641-9.641,13.74-21.173,4.099-30.813
	c-4.115-5.11-11.184-7.725-19.828-8.3c-15.362-1.022-30.357,5.023-41.243,15.909l-66.776,66.776l-28.619,36.194
	c-11.647,14.73-27.284,25.802-45.046,31.896l-56.542,19.039c-6.911,2.004-13.203,5.723-18.292,10.811l-27.073,27.073l40.088,40.088
	l27.073-27.073c5.088-5.088,11.381-8.807,18.292-10.811l56.542-19.039C269.03,408.73,284.666,397.659,296.314,382.928z"/>
<path style="fill:#EFEFEF;" d="M405.285,260.47c-11.103-11.103-29.105-11.103-40.208,0l-12.631,12.631
	c-5.716,5.716-5.716,14.983,0,20.699l12.71,12.71l43.085-43.085L405.285,260.47z"/>
<path style="fill:#464C50;" d="M127.6,508.868L14.933,396.202c-4.175-4.175-4.175-10.945,0-15.12l31.103-31.103
	c4.175-4.175,10.945-4.175,15.12,0l112.667,112.667c4.175,4.175,4.175,10.945,0,15.12l-31.103,31.103
	C138.545,513.044,131.775,513.044,127.6,508.868z"/>
<path style="fill:#33393A;" d="M173.823,462.646l-32.528-32.528L95.072,476.34l32.528,32.528c4.175,4.175,10.945,4.175,15.12,0
	l31.103-31.103C177.998,473.59,177.998,466.821,173.823,462.646z"/>
<g>
</g>
<g>
</g>
<g>
</g>
<g>
</g>
<g>
</g>
<g>
</g>
<g>
</g>
<g>
</g>
<g>
</g>
<g>
</g>
<g>
</g>
<g>
</g>
<g>
</g>
<g>
</g>
<g>
</g>
</svg>
