<svg id="Icons" height="512" viewBox="0 0 60 60" width="512" xmlns="http://www.w3.org/2000/svg"><path d="m31.05 55h-28.05a2.006 2.006 0 0 1 -2-2v-50a2.006 2.006 0 0 1 2-2h30.59a.984.984 0 0 1 .7.29l6.42 6.42a.984.984 0 0 1 .29.7v16.62z" fill="#e1efff"/><rect fill="#5abab7" height="4" rx="2" width="18" x="12" y="8"/><circle cx="42" cy="42" fill="#cd4c60" r="17"/><path d="m49.41 46.59a1.994 1.994 0 1 1 -2.82 2.82l-4.59-4.59-4.59 4.59a1.994 1.994 0 0 1 -2.82-2.82l4.59-4.59-4.59-4.59a1.994 1.994 0 0 1 2.82-2.82l4.59 4.59 4.59-4.59a1.994 1.994 0 0 1 2.82 2.82l-4.59 4.59z" fill="#fff"/><path d="m40.91 8h-4.91a2.006 2.006 0 0 1 -2-2v-4.91a1.078 1.078 0 0 1 .29.2l6.42 6.42a1.078 1.078 0 0 1 .2.29z" fill="#9ebbce"/><g fill="#b0ccdd"><path d="m35 19h-28a1 1 0 0 1 0-2h28a1 1 0 0 1 0 2z"/><path d="m32 24h-25a1 1 0 0 1 0-2h25a1 1 0 0 1 0 2z"/><path d="m27 29h-5a1 1 0 0 1 0-2h5a1 1 0 0 1 0 2z"/><path d="m18 29h-11a1 1 0 0 1 0-2h11a1 1 0 0 1 0 2z"/><path d="m23 34h-9a1 1 0 0 1 0-2h9a1 1 0 0 1 0 2z"/><path d="m10 34h-3a1 1 0 0 1 0-2h3a1 1 0 0 1 0 2z"/><path d="m21 39h-14a1 1 0 0 1 0-2h14a1 1 0 0 1 0 2z"/><path d="m19 44h-12a1 1 0 0 1 0-2h12a1 1 0 0 1 0 2z"/><path d="m18 49h-11a1 1 0 0 1 0-2h11a1 1 0 0 1 0 2z"/></g></svg>