<svg id="Capa_1" enable-background="new 0 0 512 512" height="512" viewBox="0 0 512 512" width="512" xmlns="http://www.w3.org/2000/svg"><g><g><path d="m391 0v30l-30 60.025v164.975c0 8.399-6.599 15-15 15h-180c-8.401 0-15-6.601-15-15v-210c0-24.901 20.099-45 45-45z" fill="#e6f7ff"/></g><path d="m256 270h90c8.401 0 15-6.601 15-15v-164.976l30-60.024v-30h-135z" fill="#cce6ff"/><g id="Filtering_Data_1_"><g><path d="m301 75c0 8.291-6.709 15-15 15h-60c-8.291 0-15-6.709-15-15s6.709-15 15-15h60c8.291 0 15 6.709 15 15z" fill="#4d4d99"/></g><g><path d="m301 135c0 8.291-6.709 15-15 15h-60c-8.291 0-15-6.709-15-15s6.709-15 15-15h60c8.291 0 15 6.709 15 15z" fill="#4d4d99"/></g><g><path d="m301 195c0 8.291-6.709 15-15 15h-60c-8.291 0-15-6.709-15-15s6.709-15 15-15h60c8.291 0 15 6.709 15 15z" fill="#4d4d99"/></g><g><path d="m106 210c-8.291 0-15-6.709-15-15v-60c0-8.291 6.709-15 15-15s15 6.709 15 15v60c0 8.291-6.709 15-15 15z" fill="#59abff"/></g><g><path d="m406 210c-8.291 0-15-6.709-15-15v-60c0-8.291 6.709-15 15-15s15 6.709 15 15v60c0 8.291-6.709 15-15 15z" fill="#4d87ff"/></g></g><path d="m421 75c0 8.284-6.716 15-15 15h-45v-60c0-16.569 13.431-30 30-30 16.569 0 30 13.431 30 30z" fill="#b5c9f2"/><g fill="#292966"><path d="m286 180h-30v30h30c8.291 0 15-6.709 15-15s-6.709-15-15-15z"/><path d="m301 135c0-8.291-6.709-15-15-15h-30v30h30c8.291 0 15-6.709 15-15z"/><path d="m301 75c0-8.291-6.709-15-15-15h-30v30h30c8.291 0 15-6.709 15-15z"/></g><g><path d="m279.291 510.418-60-30c-5.068-2.549-8.291-7.734-8.291-13.418v-81.849l-140.566-56.22c-5.713-2.285-9.434-7.793-9.434-13.931v-60c0-8.291 6.709-15 15-15h360c8.291 0 15 6.709 15 15v60c0 6.138-3.721 11.646-9.434 13.931l-140.566 56.22v111.849c0 5.2-2.695 10.02-7.119 12.759-4.426 2.752-9.975 2.966-14.59.659z" fill="#ffe566"/></g><path d="m451 255c0-8.291-6.709-15-15-15h-180v258.772l23.291 11.646c4.614 2.307 10.164 2.093 14.59-.659 4.424-2.739 7.119-7.559 7.119-12.759v-111.849l140.566-56.221c5.713-2.284 9.434-7.792 9.434-13.93z" fill="#ffc24d"/></g></svg>