<svg height="512" viewBox="0 0 64 64" width="512" xmlns="http://www.w3.org/2000/svg"><g id="Layer_21" data-name="Layer 21"><path d="m62 36v-8l-4.466-.893a25.85 25.85 0 0 0 -4.017-9.7l2.525-3.788-5.657-5.661-3.785 2.525a25.85 25.85 0 0 0 -9.7-4.017l-.9-4.466h-8l-.893 4.466a25.85 25.85 0 0 0 -9.7 4.017l-3.792-2.525-5.657 5.657 2.525 3.785a25.85 25.85 0 0 0 -4.017 9.7l-4.466.9v8l4.466.893a25.85 25.85 0 0 0 4.017 9.7l-2.525 3.792 5.657 5.657 3.785-2.525a25.85 25.85 0 0 0 9.7 4.017l.9 4.466h8l.893-4.466a25.85 25.85 0 0 0 9.7-4.017l3.788 2.525 5.657-5.657-2.521-3.785a25.85 25.85 0 0 0 4.017-9.7z" fill="#ccc"/><circle cx="32" cy="32" fill="#4d8c28" r="17"/><circle cx="32" cy="32" fill="#e2e7f6" r="12"/><path d="m32 20a11.988 11.988 0 0 0 -9.419 19.419 11.988 11.988 0 0 0 16.838-16.838 11.93 11.93 0 0 0 -7.419-2.581z" fill="#f2f2f2"/><path d="m24 33 6 6 10-10-3-3-7 7-3-3z" fill="#559b2d"/></g></svg>