<svg height="512" viewBox="0 0 64 64" width="512" xmlns="http://www.w3.org/2000/svg"><g id="Layer_27" data-name="Layer 27"><path d="m62 36v-8l-4.466-.893a25.85 25.85 0 0 0 -4.017-9.7l2.525-3.788-5.657-5.661-3.785 2.525a25.85 25.85 0 0 0 -9.7-4.017l-.9-4.466h-8l-.893 4.466a25.85 25.85 0 0 0 -9.7 4.017l-3.792-2.525-5.657 5.657 2.525 3.785a25.85 25.85 0 0 0 -4.017 9.7l-4.466.9v8l4.466.893a25.85 25.85 0 0 0 4.017 9.7l-2.525 3.792 5.657 5.657 3.785-2.525a25.85 25.85 0 0 0 9.7 4.017l.9 4.466h8l.893-4.466a25.85 25.85 0 0 0 9.7-4.017l3.788 2.525 5.657-5.657-2.521-3.785a25.85 25.85 0 0 0 4.017-9.7z" fill="#b5b5b5"/><circle cx="32" cy="32" fill="#b52f28" r="17"/><circle cx="32" cy="32" fill="#e2e7f6" r="12"/><path d="m42 31a11.979 11.979 0 0 0 -5.673-10.183 11.988 11.988 0 0 0 -10.654 21.366 11.979 11.979 0 0 0 16.327-11.183z" fill="#f2f2f2"/><path d="m39 28-3-3-4 4-4-4-3 3 4 4-4 4 3 3 4-4 4 4 3-3-4-4z" fill="#d23f34"/></g></svg>