<svg id="Layer_1_1_" enable-background="new 0 0 64 64" height="512" viewBox="0 0 64 64" width="512" xmlns="http://www.w3.org/2000/svg"><path d="m5.528 53.149 4.425 8.851 4.425-8.851c1.643-3.284-.745-7.149-4.418-7.149h-.014c-3.672 0-6.06 3.865-4.418 7.149z" fill="#ff8088"/><path d="m49.528 53.149 4.425 8.851 4.425-8.851c1.643-3.284-.745-7.149-4.418-7.149h-.014c-3.672 0-6.06 3.865-4.418 7.149z" fill="#ff8088"/><circle cx="9.953" cy="51" fill="#eaeaea" r="2"/><circle cx="53.953" cy="51" fill="#eaeaea" r="2"/><g fill="#526273"><path d="m62 32-5-4v2h-7v4h7v2z"/><path d="m2 32 5-4v2h7v4h-7v2z"/><path d="m42.982 15c0-.488-.043-.966-.104-1.437l2.086-.678-1.236-3.804-2.075.674c-.462-.85-1.04-1.626-1.701-2.322l1.289-1.774-3.236-2.351-1.29 1.775c-.857-.41-1.772-.715-2.734-.892v-2.191h-4v2.19c-.962.177-1.877.482-2.734.892l-1.29-1.775-3.236 2.351 1.289 1.774c-.661.696-1.239 1.472-1.701 2.322l-2.075-.674-1.234 3.805 2.086.678c-.062.472-.104.949-.104 1.437s.043.966.104 1.437l-2.086.678 1.236 3.804 2.075-.674c.462.85 1.04 1.626 1.701 2.322l-1.289 1.774 3.236 2.351 1.29-1.775c.857.41 1.772.715 2.734.892v2.191h4v-2.19c.962-.177 1.877-.482 2.734-.892l1.29 1.775 3.236-2.351-1.289-1.774c.661-.696 1.239-1.472 1.701-2.322l2.075.674 1.236-3.804-2.086-.678c.059-.472.102-.95.102-1.438z"/></g><circle cx="32" cy="15" fill="#cfcfcf" r="7"/><path d="m33.168 18.555-2-3c-.109-.164-.168-.358-.168-.555v-5h2v4.697l1.832 2.748z" fill="#495766"/><path d="m39 61h-14v-11c0-2.209 1.791-4 4-4h6c2.209 0 4 1.791 4 4z" fill="#759acc"/><path d="m32 46-2 8 2 3 2-3z" fill="#eaeaea"/><circle cx="32" cy="41" fill="#ffdbac" r="5"/><path d="m32 36c-2.761 0-5 2.239-5 5 0 .207.036.405.061.606 1.071-1.572 2.886-2.606 4.939-2.606.652 0 1.28.104 1.867.297 1.148.376 2.054 1.121 3.071 2.311.025-.202.062-.4.062-.608 0-2.761-2.239-5-5-5z" fill="#526273"/></svg>