<svg id="Capa_1" enable-background="new 0 0 512 512" height="512" viewBox="0 0 512 512" width="512" xmlns="http://www.w3.org/2000/svg"><g><path d="m512 398.904v28.258c0 7.963-6.459 14.422-14.422 14.422h-180.889l-20.315-28.543 20.315-28.55h180.889c7.963.001 14.422 6.45 14.422 14.413z" fill="#918291"/><path d="m298.041 249.338c3.681-1.149 6.059-4.604 6.059-8.876l-.604-62.392c-.041-4.241-3.492-7.651-7.724-7.651-.025 0-.051 0-.076.001-4.267.041-7.692 3.534-7.651 7.801l.392 40.472-30.95-44.817c-1.922-2.782-5.429-3.992-8.657-2.986-3.228 1.007-5.427 3.995-5.427 7.376v64.447c0 4.267 3.459 7.726 7.726 7.726s7.726-3.459 7.726-7.726v-39.661l29.493 42.707c2.284 3.299 6.09 4.706 9.693 3.579z" fill="#8795de"/><path d="m215.665 178.145v64.567c0 4.267 3.459 7.726 7.726 7.726s7.726-3.459 7.726-7.726v-64.567c0-4.267-3.459-7.726-7.726-7.726s-7.726 3.459-7.726 7.726z" fill="#8795de"/><path d="m359.602 150.429c4.267 0 7.726-3.459 7.726-7.726v-17.53l23.934 23.09c1.499 1.447 3.433 2.166 5.364 2.166 2.024 0 4.045-.79 5.561-2.362 2.963-3.071 2.875-7.962-.196-10.925l-29.054-28.03 26.626-24.474c3.141-2.888 3.347-7.775.459-10.917-2.886-3.141-7.774-3.347-10.917-.46l-21.777 20.017v-15.143c0-4.267-3.459-7.726-7.726-7.726s-7.726 3.459-7.726 7.726v64.567c-.001 4.268 3.459 7.727 7.726 7.727z" fill="#6c7fd8"/><path d="m128.136 143.232c.072.366.172.727.296 1.079 1.297 3.663 4.772 6.118 8.654 6.118h.031c3.902-.014 7.382-2.501 8.66-6.189.028-.081.055-.163.08-.245l12.256-39.611 12.208 39.623c.032.103.065.205.102.306 1.299 3.666 4.77 6.116 8.652 6.116h.066c3.91-.028 7.38-2.536 8.633-6.242.107-.317.194-.64.259-.968l12.63-63.46c.833-4.185-1.885-8.253-6.07-9.086s-8.253 1.885-9.086 6.069l-7.748 38.928-12.266-39.808c-1.125-3.653-4.749-5.933-8.534-5.365-3.247.489-5.767 2.954-6.414 6.062l-12.108 39.131-7.724-39.055c-.83-4.186-4.896-6.905-9.082-6.076-4.186.83-6.906 4.896-6.076 9.082z" fill="#6c7fd8"/><path d="m341.854 94.916c0-13.513-11.42-24.507-25.456-24.507h-17.158c-4.267 0-7.726 3.459-7.726 7.726v33.635 30.932c0 4.267 3.459 7.726 7.726 7.726s7.726-3.459 7.726-7.726v-19.166l21.361 24.271c1.527 1.735 3.659 2.622 5.803 2.622 1.813 0 3.634-.635 5.102-1.926 3.203-2.819 3.515-7.702.695-10.905l-16.774-19.058c10.767-2.858 18.701-12.363 18.701-23.624zm-25.457 9.054c-2.184 0-5.967.016-9.431.032v-18.14h9.431c5.423 0 10.004 4.146 10.004 9.054s-4.581 9.054-10.004 9.054z" fill="#6c7fd8"/><path d="m242.876 150.429c22.061 0 40.01-17.949 40.01-40.01 0-22.062-17.949-40.01-40.01-40.01s-40.01 17.949-40.01 40.01c0 22.062 17.948 40.01 40.01 40.01zm0-64.567c13.541 0 24.557 11.016 24.557 24.557s-11.017 24.557-24.557 24.557-24.557-11.016-24.557-24.557 11.016-24.557 24.557-24.557z" fill="#6c7fd8"/><g fill="#8795de"><path d="m384.482 286.47c4.267 0 7.726-3.459 7.726-7.726s-3.459-7.726-7.726-7.726h-26.958c-4.267 0-7.726 3.459-7.726 7.726v63.978c0 4.267 3.459 7.726 7.726 7.726h26.958c4.267 0 7.726-3.459 7.726-7.726s-3.459-7.726-7.726-7.726h-19.232v-16.536h17.244c4.267 0 7.726-3.459 7.726-7.726s-3.459-7.726-7.726-7.726h-17.244v-16.538z"/><path d="m275.315 302.712h-19.315c-4.267 0-7.726 3.459-7.726 7.726s3.459 7.726 7.726 7.726h10.747c-2.002 8.863-7.763 16.831-19.3 16.831-13.541 0-24.557-11.017-24.557-24.557 0-13.541 11.017-24.557 24.557-24.557 4.922 0 9.668 1.449 13.724 4.189 3.536 2.388 8.34 1.458 10.728-2.077 2.389-3.536 1.459-8.339-2.077-10.728-6.621-4.473-14.358-6.837-22.375-6.837-22.062 0-40.01 17.948-40.01 40.01s17.948 40.01 40.01 40.01c20.958 0 35.595-16.453 35.595-40.01 0-4.267-3.459-7.726-7.727-7.726z"/><path d="m118.303 294.935c0-13.513-11.42-24.507-25.456-24.507h-17.158c-4.267 0-7.726 3.459-7.726 7.726v64.567c0 4.267 3.459 7.726 7.726 7.726s7.726-3.459 7.726-7.726v-19.167l21.362 24.271c1.527 1.735 3.659 2.622 5.803 2.622 1.813 0 3.634-.634 5.102-1.927 3.203-2.819 3.515-7.701.695-10.904l-16.774-19.058c10.767-2.857 18.7-12.362 18.7-23.623zm-25.456 9.054c-2.184 0-5.967.016-9.432.032v-18.14h9.432c5.423 0 10.004 4.146 10.004 9.054s-4.582 9.054-10.004 9.054z"/><path d="m341.518 294.935c0-13.513-11.42-24.507-25.456-24.507h-17.158c-4.267 0-7.726 3.459-7.726 7.726v64.567c0 4.267 3.459 7.726 7.726 7.726s7.726-3.459 7.726-7.726v-19.166l21.362 24.271c1.527 1.735 3.659 2.622 5.803 2.622 1.813 0 3.634-.634 5.102-1.927 3.203-2.819 3.515-7.701.695-10.904l-16.774-19.058c10.766-2.857 18.7-12.363 18.7-23.624zm-25.457 9.054c-2.184 0-5.967.016-9.432.032v-18.14h9.432c5.423 0 10.004 4.146 10.004 9.054s-4.581 9.054-10.004 9.054z"/><path d="m34.157 270.428h-17.944c-4.267 0-7.726 3.459-7.726 7.726v36.522 28.045c0 4.267 3.459 7.726 7.726 7.726s7.726-3.459 7.726-7.726v-20.361c3.709-.019 7.857-.037 10.218-.037 14.504 0 26.304-11.64 26.304-25.947 0-14.308-11.8-25.948-26.304-25.948zm0 36.442c-2.362 0-6.504.018-10.218.037v-21.026h10.218c5.882 0 10.852 4.806 10.852 10.495s-4.97 10.494-10.852 10.494z"/><path d="m161.37 270.428c-22.062 0-40.01 17.948-40.01 40.01s17.948 40.01 40.01 40.01 40.01-17.948 40.01-40.01-17.948-40.01-40.01-40.01zm0 64.567c-13.541 0-24.557-11.017-24.557-24.557 0-13.541 11.017-24.557 24.557-24.557 13.541 0 24.557 11.016 24.557 24.557s-11.016 24.557-24.557 24.557z"/><path d="m431.323 303.698c-2.183-.805-4.246-1.514-6.067-2.139-6.092-2.093-10.117-3.475-12.73-6.179-1.179-1.221-.885-2.971-.703-3.668.618-2.371 2.673-4.295 5.495-5.145 9.296-2.8 17.878 4.004 18.088 4.173 3.267 2.709 8.112 2.278 10.847-.976 2.745-3.266 2.323-8.14-.943-10.886-.604-.507-14.984-12.367-32.449-7.107-8.025 2.418-14.003 8.415-15.991 16.043-1.748 6.707-.049 13.549 4.544 18.303 5.193 5.374 11.509 7.544 18.822 10.056 1.829.628 3.72 1.278 5.739 2.023 2.913 1.074 9.589 4.118 8.686 9.174-.669 3.748-5.198 7.625-11.618 7.625-6.513 0-12.784-2.629-16.775-7.033-2.865-3.162-7.751-3.402-10.914-.537-3.162 2.866-3.402 7.752-.537 10.914 6.871 7.583 17.423 12.109 28.226 12.109 13.44 0 24.724-8.563 26.831-20.362 1.582-8.865-2.46-20.453-18.551-26.388z"/><path d="m492.404 303.698c-2.183-.805-4.247-1.514-6.067-2.139-6.092-2.093-10.117-3.475-12.729-6.179-1.18-1.221-.885-2.971-.703-3.668.618-2.371 2.673-4.295 5.495-5.145 9.297-2.8 17.879 4.004 18.088 4.173 3.266 2.709 8.112 2.278 10.847-.976 2.745-3.266 2.323-8.14-.943-10.886-.603-.507-14.985-12.367-32.449-7.107-8.025 2.418-14.003 8.416-15.991 16.044-1.748 6.707-.049 13.548 4.544 18.302 5.193 5.375 11.509 7.544 18.822 10.056 1.829.628 3.72 1.278 5.74 2.023 2.912 1.074 9.589 4.118 8.686 9.174-.669 3.748-5.198 7.625-11.618 7.625-6.513 0-12.784-2.629-16.775-7.033-2.865-3.162-7.751-3.402-10.914-.537-3.162 2.866-3.402 7.752-.537 10.914 6.871 7.583 17.423 12.109 28.225 12.109 13.44 0 24.724-8.563 26.831-20.362 1.581-8.865-2.461-20.453-18.552-26.388z"/></g><path d="m316.686 384.489v57.092h-302.264c-7.963.001-14.422-6.458-14.422-14.422v-28.258c0-7.963 6.459-14.412 14.422-14.412z" fill="#fe646f"/><path d="m83.457 441.591 30.076-57.099h57.705l-30.076 57.099" fill="#fd8087"/><path d="m55.825 384.489-30.061 57.092h-11.342c-7.963.001-14.422-6.458-14.422-14.422v-28.258c0-7.963 6.459-14.412 14.422-14.412z" fill="#fd8087"/><path d="m198.866 441.591 30.077-57.099h57.704l-30.076 57.099" fill="#fd8087"/></g></svg>