<?xml version="1.0" encoding="UTF-8"?>
<svg width="100px" height="30px" viewBox="0 0 100 30" version="1.1" xmlns="http://www.w3.org/2000/svg" xmlns:xlink="http://www.w3.org/1999/xlink">
    <title>Group 501</title>
    <defs>
        <polygon id="path-1" points="0 0 8.31644295 0 8.31644295 9.27865708 0 9.27865708"></polygon>
        <polygon id="path-3" points="0 0 12.2702498 0 12.2702498 19.7880758 0 19.7880758"></polygon>
        <polygon id="path-5" points="0 0 7.54019547 0 7.54019547 11.0989119 0 11.0989119"></polygon>
    </defs>
    <g id="[EN]-User-" stroke="none" stroke-width="1" fill="none" fill-rule="evenodd">
        <g id="[EN]-Profile-1" transform="translate(-22.000000, -968.000000)">
            <g id="Group-50" transform="translate(22.000000, 968.000000)">
                <g id="Group-3" transform="translate(8.734032, 20.721343)">
                    <mask id="mask-2" fill="white">
                        <use xlink:href="#path-1"></use>
                    </mask>
                    <g id="Clip-2"></g>
                    <path d="M0.472202342,0 L7.8440585,0 C8.10501722,0 8.31644295,0.214650514 8.31644295,0.479817917 L8.31644295,8.79882066 C8.31644295,9.06380301 8.10501722,9.27882362 7.8440585,9.27882362 L0.472202342,9.27882362 C0.211425731,9.27882362 0,9.06380301 0,8.79882066 L0,0.479817917 C0,0.214650514 0.211425731,0 0.472202342,0" id="Fill-1" fill="#E6E7E9" mask="url(#mask-2)"></path>
                </g>
                <path d="M0.675761069,5.61229676 L6.25568855,5.61229676 C6.54086745,5.61229676 6.77196069,5.84730207 6.77196069,6.13689522 L6.77196069,9.56501197 C6.77196069,9.85479016 6.54086745,10.0894254 6.25568855,10.0894254 L0.675761069,10.0894254 C0.390764283,10.0894254 0.159671043,9.85479016 0.159671043,9.56501197 L0.159671043,6.13689522 C0.159671043,5.84730207 0.390764283,5.61229676 0.675761069,5.61229676" id="Fill-4" fill="#E6E7E9"></path>
                <path d="M8.23611574,0.0382114924 L16.7767319,0.0382114924 C17.0376906,0.0382114924 17.2489342,0.252862007 17.2489342,0.51802941 L17.2489342,4.11490587 C17.2489342,4.38007328 17.0376906,4.59490884 16.7767319,4.59490884 L8.23611574,4.59490884 C7.97533913,4.59490884 7.7639134,4.38007328 7.7639134,4.11490587 L7.7639134,0.51802941 C7.7639134,0.252862007 7.97533913,0.0382114924 8.23611574,0.0382114924" id="Fill-6" fill="#E6E7E9"></path>
                <path d="M18.9422522,0.0217611211 L21.9896236,0.0217611211 C22.2748025,0.0217611211 22.5058957,0.256766426 22.5058957,0.546359577 L22.5058957,10.3238756 C22.5058957,10.6134687 22.2748025,10.848289 21.9896236,10.848289 L18.9422522,10.848289 C18.6570733,10.848289 18.4259801,10.6134687 18.4259801,10.3238756 L18.4259801,0.546359577 C18.4259801,0.256766426 18.6570733,0.0217611211 18.9422522,0.0217611211" id="Fill-8" fill="#E6E7E9"></path>
                <path d="M24.2774102,12.1977745 L29.0562509,12.1977745 C29.3412477,12.1977745 29.5723409,12.4327798 29.5723409,12.722373 L29.5723409,18.7736671 C29.5723409,19.0636303 29.3412477,19.2982655 29.0562509,19.2982655 L24.2774102,19.2982655 C23.9922313,19.2982655 23.7611381,19.0636303 23.7611381,18.7736671 L23.7611381,12.722373 C23.7611381,12.4327798 23.9922313,12.1977745 24.2774102,12.1977745" id="Fill-10" fill="#E6E7E9"></path>
                <path d="M29.0720213,20.4652797 L18.7604188,20.4652797 C18.565929,20.4652797 18.3799981,20.3840455 18.2461498,20.2404518 L17.2489342,19.1703449 C17.1243733,19.0365584 17.0549907,18.8594718 17.0549907,18.6755385 L17.0549907,12.5091473 C17.0549907,12.2439799 16.843565,12.0291444 16.5827884,12.0291444 L9.28122536,12.0291444 C9.02063085,12.0291444 8.80902302,12.2439799 8.80902302,12.5091473 C8.80902302,12.5091473 8.81029776,17.5027325 8.81066198,18.7625089 C8.81066198,18.9462572 8.74146148,19.1227887 8.61708269,19.2562051 L7.31866283,20.649583 C7.18554292,20.7924367 7.00161529,20.8731156 6.80821811,20.8729306 C5.51580776,20.8723755 0.515889709,20.8707101 0.515889709,20.8707101 C0.255113097,20.8707101 0.0438694733,21.0855456 0.0438694733,21.350528 L0.0438694733,29.3706854 C0.0438694733,29.6358528 0.255113097,29.8505033 0.515889709,29.8505033 L7.0852022,29.8505033 C7.34597881,29.8505033 7.55740454,29.6358528 7.55740454,29.3706854 L7.55740454,21.6647319 C7.55740454,21.4806136 7.62678715,21.3035269 7.75134804,21.1699255 L9.08728186,19.7362081 C9.22113019,19.5926143 9.407061,19.5113802 9.60173293,19.5113802 L16.3444109,19.5113802 C16.5389007,19.5113802 16.7250136,19.5926143 16.8586798,19.7363931 L17.8985084,20.8520207 C18.0230693,20.9858072 18.0924519,21.1628938 18.0924519,21.3468271 L18.0924519,29.4485887 C18.0924519,29.7137561 18.3038776,29.9285917 18.5646542,29.9285917 L29.0720213,29.9285917 C29.3327979,29.9285917 29.5442237,29.7137561 29.5442237,29.4485887 L29.5442237,20.9450976 C29.5442237,20.6801152 29.3327979,20.4652797 29.0720213,20.4652797" id="Fill-12" fill="#0083CC"></path>
                <g id="Group-16">
                    <mask id="mask-4" fill="white">
                        <use xlink:href="#path-3"></use>
                    </mask>
                    <g id="Clip-15"></g>
                    <path d="M11.7980475,5.75233772 L8.64013738,5.75233772 C8.44546546,5.75233772 8.25953464,5.6711036 8.12568631,5.52732476 L6.7953978,4.09952876 C6.67083691,3.96592731 6.6012722,3.78902568 6.6012722,3.60490735 L6.6012722,0.479891935 C6.6012722,0.214724532 6.39002857,-0.000111026128 6.12925196,-0.000111026128 L0.472293396,-0.000111026128 C0.211516784,-0.000111026128 -9.10532862e-05,0.214724532 -9.10532862e-05,0.479891935 L-9.10532862e-05,3.98628211 C-9.10532862e-05,4.25126446 0.211516784,4.46610002 0.472293396,4.46610002 C0.472293396,4.46610002 4.72156816,4.46332437 5.90744616,4.4596235 C6.10284651,4.45888332 6.28841311,4.54030248 6.42262565,4.68445141 L7.64893131,6.00029607 C7.77258167,6.13297229 7.84123585,6.30746836 7.84123585,6.49010634 C7.84068953,7.29486072 7.83941478,9.57681774 7.83905057,10.1996743 C7.83905057,10.3036688 7.80590717,10.4035923 7.74471936,10.4864918 L7.31549417,11.0678986 C7.22626195,11.1887321 7.08640411,11.2597888 6.93780514,11.2597888 L0.575547822,11.2597888 C0.314589104,11.2597888 0.10334548,11.4746244 0.10334548,11.7394217 L0.10334548,19.3082579 C0.10334548,19.5730552 0.314589104,19.7880758 0.575547822,19.7880758 L7.2885424,19.7880758 C7.54931901,19.7880758 7.76074474,19.5730552 7.76074474,19.3082579 C7.76074474,19.3082579 7.75473523,12.8776245 7.745812,11.7762453 C7.74490147,11.6709556 7.77804487,11.5695517 7.84014321,11.4853569 L8.16647819,11.0434729 C8.25534619,10.9230095 8.39374719,10.852508 8.54179983,10.852508 C9.32412967,10.852508 11.7980475,10.852693 11.7980475,10.852693 C12.0588241,10.852693 12.2702498,10.6378574 12.2702498,10.3728751 L12.2702498,6.23215563 C12.2702498,5.96698823 12.0588241,5.75233772 11.7980475,5.75233772" id="Fill-14" fill="#6CCBFF" mask="url(#mask-4)"></path>
                </g>
                <path d="M29.1377436,0.0217611211 L24.1895438,0.0217611211 C23.9287672,0.0217611211 23.7173415,0.236596679 23.7173415,0.501764082 L23.7173415,10.5568454 L22.2890796,12.0897461 L19.0645185,12.0897461 C18.8698466,12.0897461 18.6839158,12.008327 18.5500675,11.8647332 L17.3851317,10.614579 C17.2602066,10.4804224 17.190824,10.3038908 17.1910061,10.1192174 C17.1933735,9.18900348 17.1957409,6.30843058 17.1957409,6.30843058 C17.1957409,6.04344822 16.9843152,5.82861267 16.7237207,5.82861267 L13.9269279,5.82861267 C13.6661513,5.82861267 13.4545435,6.04344822 13.4545435,6.30843058 L13.4545435,10.3458957 C13.4545435,10.6108781 13.6661513,10.8257137 13.9269279,10.8257137 L16.3595075,10.8257137 C16.5539973,10.8257137 16.7401102,10.9069478 16.8737765,11.0505416 L18.0563766,12.3195702 C18.1809374,12.4533567 18.2503201,12.6304434 18.2503201,12.8143766 L18.2503201,18.8027559 C18.2503201,19.0677383 18.4617458,19.2823888 18.7225224,19.2823888 L22.209499,19.2823888 C22.4702757,19.2823888 22.6815193,19.0677383 22.6815193,18.8027559 L22.6815193,12.6530187 L24.1931859,11.0307419 L29.1377436,11.0307419 C29.3985202,11.0307419 29.6099459,10.8159063 29.6099459,10.550924 L29.6099459,0.501764082 C29.6099459,0.236596679 29.3985202,0.0217611211 29.1377436,0.0217611211" id="Fill-17" fill="#41A6F4"></path>
                <path d="M42.0621384,13.7897967 L40.9769653,17.8141238 L44.1620093,17.8141238 L43.1050627,13.7897967 C42.9641123,13.2742654 42.9499079,13.2026535 42.555283,13.2026535 C42.2313154,13.2026535 42.2029068,13.2742654 42.0621384,13.7897967 M44.7682421,13.3170104 L47.2066491,22.4398423 C47.2346935,22.6117478 47.1922627,22.6689263 47.03729,22.6689263 L45.5997407,22.6689263 C45.4728124,22.6689263 45.444768,22.6117478 45.4025193,22.4398423 L44.5708385,19.3607177 L40.5539318,19.3607177 L39.708411,22.4398423 C39.6661622,22.6117478 39.6379357,22.6689263 39.5252117,22.6689263 L38.0736403,22.6689263 C37.9184855,22.6689263 37.8762367,22.6117478 37.9042811,22.4398423 L40.4131634,13.3170104 C40.8358327,11.8133466 41.0896893,11.6416262 42.555283,11.6416262 C44.1339649,11.6416262 44.3594128,11.8133466 44.7682421,13.3170104" id="Fill-19" fill="#0071BE"></path>
                <path d="M50.1373448,11.713127 C50.2782953,11.713127 50.3487705,11.7847388 50.3487705,11.9279625 L50.3487705,21.0650428 L55.2254024,21.0650428 C55.3663529,21.0650428 55.4368281,21.1366547 55.4368281,21.2798784 L55.4368281,22.4541647 C55.4368281,22.5973884 55.3663529,22.6690003 55.2254024,22.6690003 L48.7422263,22.6690003 C48.6010937,22.6690003 48.5306185,22.5973884 48.5306185,22.4541647 L48.5306185,11.9279625 C48.5306185,11.7847388 48.6010937,11.713127 48.7422263,11.713127 L50.1373448,11.713127 Z" id="Fill-21" fill="#0071BE"></path>
                <path d="M63.6109184,11.713127 C63.7516868,11.713127 63.8363663,11.7847388 63.8363663,11.9279625 L63.8363663,13.1024339 C63.8363663,13.2454726 63.7516868,13.3170845 63.6109184,13.3170845 L58.5510873,13.3170845 L58.5510873,16.5251844 L63.1596583,16.5251844 C63.3007909,16.5251844 63.3712661,16.5967963 63.3712661,16.74002 L63.3712661,17.8711912 C63.3712661,18.0145999 63.3007909,18.0862118 63.1596583,18.0862118 L58.5510873,18.0862118 L58.5510873,22.4541647 C58.5510873,22.5973884 58.480612,22.6690003 58.3396615,22.6690003 L56.9445431,22.6690003 C56.8035926,22.6690003 56.7329352,22.5973884 56.7329352,22.4541647 L56.7329352,11.9279625 C56.7329352,11.7847388 56.8035926,11.713127 56.9445431,11.713127 L63.6109184,11.713127 Z" id="Fill-23" fill="#0071BE"></path>
                <path d="M67.9516106,13.7897967 L66.8664376,17.8141238 L70.0514815,17.8141238 L68.9947171,13.7897967 C68.8535845,13.2742654 68.8395623,13.2026535 68.4449373,13.2026535 C68.1209698,13.2026535 68.092379,13.2742654 67.9516106,13.7897967 M70.6577143,13.3170104 L73.0959392,22.4398423 C73.1241657,22.6117478 73.081917,22.6689263 72.9267622,22.6689263 L71.489395,22.6689263 C71.3622846,22.6689263 71.3342402,22.6117478 71.2919915,22.4398423 L70.4603108,19.3607177 L66.4435861,19.3607177 L65.5978832,22.4398423 C65.5556345,22.6117478 65.5274079,22.6689263 65.414684,22.6689263 L63.9631125,22.6689263 C63.8081398,22.6689263 63.7658911,22.6117478 63.7939355,22.4398423 L66.3026356,13.3170104 C66.7254871,11.8133466 66.9791615,11.6416262 68.4449373,11.6416262 C70.0234371,11.6416262 70.2488851,11.8133466 70.6577143,13.3170104" id="Fill-25" fill="#0071BE"></path>
                <path d="M76.2385159,13.2455096 L76.2385159,17.1695431 L77.8310379,17.1695431 C79.832207,17.1695431 80.3537602,16.9976376 80.3537602,15.2504564 C80.3537602,13.5463904 79.832207,13.2455096 77.8310379,13.2455096 L76.2385159,13.2455096 Z M82.1861166,15.2077114 C82.1861166,17.4417421 81.593906,18.2581543 79.9451131,18.5157349 L82.327067,22.3825899 C82.4399731,22.5400619 82.3693158,22.6690373 82.15789,22.6690373 L80.8470869,22.6690373 C80.5229372,22.6690373 80.4242355,22.5689287 80.2834671,22.3540932 L77.9577841,18.6304619 L76.2385159,18.6447102 L76.2385159,22.4542017 C76.2385159,22.6259221 76.1962672,22.6690373 76.0269081,22.6690373 L74.6316075,22.6690373 C74.4624305,22.6690373 74.4201818,22.6259221 74.4201818,22.4542017 L74.4201818,11.9566813 C74.4201818,11.7992092 74.4624305,11.7703425 74.6316075,11.7560941 C75.7592114,11.6702339 77.0277658,11.6415521 78.0002149,11.6415521 C81.1289879,11.6415521 82.1861166,12.3003072 82.1861166,15.2077114 L82.1861166,15.2077114 Z" id="Fill-27" fill="#0071BE"></path>
                <path d="M90.9804436,11.713127 C91.1213941,11.713127 91.2058915,11.7847388 91.2058915,11.9279625 L91.2058915,13.1024339 C91.2058915,13.2454726 91.1213941,13.3170845 90.9804436,13.3170845 L85.7654577,13.3170845 L85.7654577,16.5251844 L90.5295477,16.5251844 C90.6704982,16.5251844 90.7407913,16.5967963 90.7407913,16.74002 L90.7407913,17.8711912 C90.7407913,18.0145999 90.6704982,18.0862118 90.5295477,18.0862118 L85.7654577,18.0862118 L85.7654577,21.0650428 L90.9804436,21.0650428 C91.1213941,21.0650428 91.2058915,21.1366547 91.2058915,21.2798784 L91.2058915,22.4541647 C91.2058915,22.5973884 91.1213941,22.6690003 90.9804436,22.6690003 L84.1589135,22.6690003 C84.0181451,22.6690003 83.9474877,22.5973884 83.9474877,22.4541647 L83.9474877,11.9279625 C83.9474877,11.7847388 84.0181451,11.713127 84.1589135,11.713127 L90.9804436,11.713127 Z" id="Fill-29" fill="#0071BE"></path>
                <g id="Group-33" transform="translate(92.459805, 11.641645)">
                    <mask id="mask-6" fill="white">
                        <use xlink:href="#path-5"></use>
                    </mask>
                    <g id="Clip-32"></g>
                    <path d="M6.77928137,0.243332264 C6.94845838,0.272014014 7.00472931,0.343625867 7.00472931,0.472601219 L7.00472931,1.36044016 C7.00472931,1.51809726 6.93425406,1.60395746 6.79330358,1.60395746 L3.53742017,1.60395746 C2.48065573,1.60395746 1.9589204,1.94758333 1.9589204,2.706817 L1.9589204,2.93590092 C1.9589204,3.53729244 2.15632392,3.89535171 2.90350719,4.21029582 L5.76458355,5.37051886 C7.08922676,5.91454689 7.54030474,6.65953221 7.54030474,8.04865412 L7.54030474,8.49257359 C7.54030474,10.6407441 5.87712541,11.0989119 3.66453056,11.0989119 C2.56497107,11.0989119 1.4517536,11.0273001 0.197039311,10.8411463 C0.0562709309,10.8124645 0,10.7408527 0,10.5833806 L0,9.72422343 C0,9.56675138 0.0702931369,9.49495448 0.225630043,9.49495448 L4.15767515,9.49495448 C5.2007816,9.49495448 5.72215272,9.17982532 5.72215272,8.42077669 L5.72215272,8.17744443 C5.72215272,7.51850435 5.48250047,7.13213343 4.67922838,6.80257087 L1.63495281,5.58535442 C0.493144598,5.1556833 0.140950487,4.29634107 0.140950487,2.92146752 L0.140950487,2.59209001 C0.140950487,0.443919469 1.70524594,0 3.94606732,0 C5.11610205,0 5.66569968,0.0714268091 6.77928137,0.243332264" id="Fill-31" fill="#0071BE" mask="url(#mask-6)"></path>
                </g>
                <path d="M38.3976078,26.2019997 L38.3976078,27.9810084 L39.0298819,27.9810084 C39.9810245,27.9810084 40.2372484,27.9438146 40.2372484,27.1101934 C40.2372484,26.2871197 39.9810245,26.2019997 39.0298819,26.2019997 L38.3976078,26.2019997 Z M40.6342408,27.1048272 C40.6342408,27.9758271 40.4044223,28.2359984 39.756305,28.3103859 L40.650084,29.7546508 C40.6866875,29.802577 40.6657452,29.844952 40.5978195,29.844952 L40.3678189,29.844952 C40.2683887,29.844952 40.2372484,29.8133096 40.1900828,29.7494695 L39.3121471,28.3368471 L38.3976078,28.3420283 L38.3976078,29.7759308 C38.3976078,29.8292233 38.3819467,29.844952 38.3295,29.844952 L38.0630781,29.844952 C38.0108135,29.844952 37.9951523,29.8292233 37.9951523,29.7759308 L37.9951523,25.9418285 C37.9951523,25.888721 38.0108135,25.8781735 38.0630781,25.8728072 C38.3923268,25.8515272 38.8104434,25.846161 39.0561052,25.846161 C40.2423474,25.846161 40.6342408,26.0003022 40.6342408,27.1048272 L40.6342408,27.1048272 Z" id="Fill-34" fill="#7DD7FF"></path>
                <path d="M43.8069197,25.8727517 C43.8486221,25.8727517 43.8748454,25.8940317 43.8748454,25.9365917 L43.8748454,26.1595692 C43.8748454,26.2074955 43.8486221,26.2285905 43.8069197,26.2285905 L41.7687829,26.2285905 L41.7687829,27.7526091 L43.6188036,27.7526091 C43.6657871,27.7526091 43.6867293,27.7738891 43.6867293,27.8164491 L43.6867293,28.0394266 C43.6867293,28.0873529 43.6657871,28.1084479 43.6188036,28.1084479 L41.7687829,28.1084479 L41.7687829,29.4892428 L43.8069197,29.4892428 C43.8486221,29.4892428 43.8748454,29.5103378 43.8748454,29.5530828 L43.8748454,29.7760603 C43.8748454,29.8238015 43.8486221,29.8450815 43.8069197,29.8450815 L41.4446332,29.8450815 C41.3923686,29.8450815 41.3663274,29.8184353 41.3663274,29.7653278 L41.3663274,25.9525055 C41.3663274,25.899398 41.3923686,25.8727517 41.4446332,25.8727517 L43.8069197,25.8727517 Z" id="Fill-36" fill="#7DD7FF"></path>
                <path d="M46.7600145,25.8993055 C46.8017169,25.9046717 46.8173781,25.9259517 46.8173781,25.9577792 L46.8173781,26.1383817 C46.8173781,26.1807567 46.8017169,26.2020367 46.7652956,26.2020367 L45.6103757,26.2020367 C45.0928288,26.2020367 44.8420681,26.3613592 44.8420681,26.7382929 L44.8420681,26.8234129 C44.8420681,27.1154117 44.9099938,27.2747342 45.2705648,27.4233241 L46.4620881,27.9333041 C46.9481306,28.1509153 47.0213374,28.5015729 47.0213374,28.8307653 L47.0213374,28.9900878 C47.0213374,29.8077953 46.3732201,29.8716353 45.7043427,29.8716353 C45.3333916,29.8716353 44.8264069,29.8557215 44.4343315,29.8131615 C44.397728,29.8131615 44.3820669,29.7918815 44.3820669,29.7495066 L44.3820669,29.5740853 C44.3820669,29.5368915 44.4082902,29.5157966 44.4448936,29.5157966 L45.8298141,29.5157966 C46.3052944,29.5157966 46.624163,29.4095816 46.624163,28.9847216 L46.624163,28.867774 C46.624163,28.6288828 46.5718984,28.3899916 46.2166085,28.2360354 L44.9360351,27.6995941 C44.5075383,27.5189916 44.4396126,27.2057129 44.4396126,26.8393267 L44.4396126,26.7223792 C44.4396126,25.9631455 45.0198041,25.846198 45.7409461,25.846198 C46.1067982,25.846198 46.3681212,25.8621117 46.7600145,25.8993055" id="Fill-38" fill="#7DD7FF"></path>
                <path d="M50.1416243,25.8727517 C50.1833267,25.8727517 50.20955,25.8940317 50.20955,25.9365917 L50.20955,26.1595692 C50.20955,26.2074955 50.1833267,26.2285905 50.1416243,26.2285905 L48.1034875,26.2285905 L48.1034875,27.7526091 L49.9535082,27.7526091 C50.0004917,27.7526091 50.0214339,27.7738891 50.0214339,27.8164491 L50.0214339,28.0394266 C50.0214339,28.0873529 50.0004917,28.1084479 49.9535082,28.1084479 L48.1034875,28.1084479 L48.1034875,29.4892428 L50.1416243,29.4892428 C50.1833267,29.4892428 50.20955,29.5103378 50.20955,29.5530828 L50.20955,29.7760603 C50.20955,29.8238015 50.1833267,29.8450815 50.1416243,29.8450815 L47.7793378,29.8450815 C47.7270732,29.8450815 47.701032,29.8184353 47.701032,29.7653278 L47.701032,25.9525055 C47.701032,25.899398 47.7270732,25.8727517 47.7793378,25.8727517 L50.1416243,25.8727517 Z" id="Fill-40" fill="#7DD7FF"></path>
                <path d="M51.9187659,26.5525647 L51.4642279,28.1881646 L52.916892,28.1881646 L52.4832963,26.5525647 C52.3997094,26.2446522 52.3838661,26.2019072 52.1853699,26.2019072 C52.018014,26.2019072 52.0025349,26.2446522 51.9187659,26.5525647 M52.8646274,26.4568972 L53.7584065,29.770657 C53.7687866,29.8291308 53.7584065,29.8450445 53.7061419,29.8450445 L53.4082156,29.8450445 C53.3717942,29.8450445 53.36105,29.8291308 53.3506699,29.7760233 L53.0110411,28.5491846 L51.3698967,28.5491846 L51.0251689,29.7760233 C51.0095078,29.8291308 50.9989456,29.8450445 50.9623422,29.8450445 L50.6645979,29.8450445 C50.6121512,29.8450445 50.6017712,29.8291308 50.6121512,29.770657 L51.5370705,26.4568972 C51.6834842,25.920641 51.7566911,25.8462535 52.1853699,25.8462535 C52.6557512,25.8462535 52.7183959,25.920641 52.8646274,26.4568972" id="Fill-42" fill="#7DD7FF"></path>
                <path d="M54.7776934,26.2019997 L54.7776934,27.9810084 L55.4101495,27.9810084 C56.3612922,27.9810084 56.6175161,27.9438146 56.6175161,27.1101934 C56.6175161,26.2871197 56.3612922,26.2019997 55.4101495,26.2019997 L54.7776934,26.2019997 Z M57.0145084,27.1048272 C57.0145084,27.9758271 56.7846899,28.2359984 56.1365726,28.3103859 L57.0301696,29.7546508 C57.066773,29.802577 57.0458308,29.844952 56.977905,29.844952 L56.7479044,29.844952 C56.6486563,29.844952 56.6175161,29.8133096 56.5703505,29.7494695 L55.6922326,28.3368471 L54.7776934,28.3420283 L54.7776934,29.7759308 C54.7776934,29.8292233 54.7622143,29.844952 54.7099498,29.844952 L54.4431636,29.844952 C54.3910811,29.844952 54.37542,29.8292233 54.37542,29.7759308 L54.37542,25.9418285 C54.37542,25.888721 54.3910811,25.8781735 54.4431636,25.8728072 C54.7725944,25.8515272 55.1907111,25.846161 55.4361908,25.846161 C56.6226151,25.846161 57.0145084,26.0003022 57.0145084,27.1048272 L57.0145084,27.1048272 Z" id="Fill-44" fill="#7DD7FF"></path>
                <path d="M60.1034183,25.8781735 C60.1453028,25.8833547 60.1662451,25.910001 60.1662451,25.952376 L60.1662451,26.1329785 C60.1662451,26.1809047 60.1453028,26.2019997 60.0983193,26.2019997 L59.1628379,26.2019997 C58.195852,26.2019997 58.013017,26.5739372 58.013017,27.8588796 C58.013017,29.1386408 58.195852,29.5157595 59.1628379,29.5157595 L60.0983193,29.5157595 C60.1453028,29.5157595 60.1662451,29.5368545 60.1662451,29.5795996 L60.1662451,29.7653833 C60.1662451,29.802577 60.1453028,29.8344045 60.1034183,29.8344045 C59.8420954,29.8608658 59.4451031,29.8715983 59.1628379,29.8715983 C57.9137689,29.8715983 57.6160246,29.4095445 57.6160246,27.8588796 C57.6160246,26.3082147 57.9137689,25.846161 59.1628379,25.846161 C59.4451031,25.846161 59.8420954,25.8515272 60.1034183,25.8781735" id="Fill-46" fill="#7DD7FF"></path>
                <path d="M63.8511898,25.8727517 C63.8928922,25.8727517 63.9138345,25.8940317 63.9138345,25.9365917 L63.9138345,29.7760603 C63.9138345,29.8238015 63.8928922,29.8450815 63.8511898,29.8450815 L63.5844037,29.8450815 C63.5376023,29.8450815 63.51666,29.8238015 63.51666,29.7760603 L63.51666,27.9916854 L61.2170182,27.9916854 L61.2170182,29.7760603 C61.2170182,29.8238015 61.190977,29.8450815 61.1492746,29.8450815 L60.8824884,29.8450815 C60.8409682,29.8450815 60.8147448,29.8238015 60.8147448,29.7760603 L60.8147448,25.9365917 C60.8147448,25.8940317 60.8409682,25.8727517 60.8824884,25.8727517 L61.1492746,25.8727517 C61.190977,25.8727517 61.2170182,25.8940317 61.2170182,25.9365917 L61.2170182,27.6306654 L63.51666,27.6306654 L63.51666,25.9365917 C63.51666,25.8940317 63.5376023,25.8727517 63.5844037,25.8727517 L63.8511898,25.8727517 Z" id="Fill-48" fill="#7DD7FF"></path>
            </g>
        </g>
    </g>
</svg>