<svg id="Capa_1" enable-background="new 0 0 512 512" height="512" viewBox="0 0 512 512" width="512" xmlns="http://www.w3.org/2000/svg"><g><g fill="#fac600"><path d="m63 116.073c-32.577 41.599-52 93.994-52 150.927s19.423 109.328 52 150.927z"/><path d="m350.745 41c-29.146-12.234-61.155-19-94.745-19s-65.599 6.766-94.745 19z"/><path d="m407.528 458.248h-304.646c41.944 33.626 95.177 53.752 153.118 53.752 57.368 0 110.126-19.724 151.876-52.752z"/><path d="m449 116.073v300.208l1 .342c31.968-41.389 51-93.28 51-149.623 0-56.933-19.423-109.328-52-150.927z"/></g><path d="m440 40h-92.49l-.751-1h-13.959l-.8 1h-260c-5.523 0-10 4.477-10 10v399.248c0 5.523 4.477 10 10 10h335.876c15.719-12.435 29.869-26.76 42.124-42.625v-366.623c0-5.523-4.477-10-10-10z" fill="#d8ecfe"/><g><g><path d="m421.965 69c0-2.761-2.239-5-5-5h-321.93c-2.761 0-5 2.239-5 5v293.693l2.01-1.481 83.016-143.787c.723-1.252 2.018-2 3.464-2s2.741.748 3.464 2l87.068 150.807 60.956-105.578c.723-1.252 2.018-2 3.464-2s2.741.748 3.464 2l83.015 143.787 2.01 1.482v-338.923z" fill="#fff"/><g><path d="m121.069 69c0-2.761 2.239-5 5-5h-31.034c-2.761 0-5 2.239-5 5v293.693l31.035-53.754v-239.939z" fill="#eaf6ff"/></g><g><path d="m337.806 262.153c-1.924-3.333-6.736-3.333-8.66 0l-60.714 105.161 35.307 61.155h113.226c2.761 0 5-2.239 5-5v-15.547z" fill="#81b823"/><path d="m174.194 216.925-84.159 145.768v60.775c0 2.761 2.239 5 5 5h209.954l-122.135-211.543c-1.924-3.333-6.735-3.333-8.66 0z" fill="#8bc727"/><g><path d="m197.494 242.283-14.64-25.358c-1.924-3.333-6.736-3.333-8.66 0l-84.159 145.768v60.775c0 1.163.414 2.22 1.08 3.069z" fill="#81b823"/></g></g></g><path d="m381.717 0c-24.325 0-44.709 17.156-49.717 40h15.51c4.628-14.482 18.21-25 34.208-25 19.799 0 35.907 16.107 35.907 35.906v123.964c0 14.408-11.722 26.13-26.13 26.13s-26.13-11.722-26.13-26.13v-83.685c0-7.939 6.459-14.398 14.399-14.398s14.399 6.459 14.399 14.398v70.39c0 4.143 3.358 7.5 7.5 7.5s7.5-3.357 7.5-7.5v-70.39c0-16.21-13.188-29.398-29.399-29.398s-29.399 13.188-29.399 29.398v83.686c0 22.679 18.451 41.13 41.13 41.13s41.13-18.451 41.13-41.13v-123.965c-.001-28.069-22.837-50.906-50.908-50.906z" fill="#3e9bc8"/><circle cx="228.5" cy="153.5" fill="#fed402" r="46.5"/></g></g></svg>