<?xml version="1.0" encoding="utf-8"?>
<svg version="1.1" id="Layer_1" x="0px" y="0px" viewBox="188.33 564.991 1609.887 1238.859" style="enable-background:new 0 0 2000 2500;" xmlns="http://www.w3.org/2000/svg">
  <style type="text/css">
	.st0{fill:#000247;stroke:#000247;stroke-width:0.75;stroke-miterlimit:10;}
	.st1{fill:#000247;stroke:#000247;stroke-width:2;stroke-miterlimit:10;}
	.st2{fill:#4F45E4;}
</style>
  <g>
    <g>
      <path class="st0" d="M1198.4,1585.4h-69.2c-52.5,0-64.3-47-64.3-84.8h30.7c0,30.7,8.2,57,35,57h56.3c3.3,0,5.3-1.8,5.3-8 c-0.4-20.9-0.7-24.3-1.1-49h31.2c0.4,23.4,0.4,40.7,0.4,61C1222.7,1578.5,1211.4,1585.4,1198.4,1585.4z M1111.8,1495.5v-25.8h26.7 v25.8H1111.8z M1149.5,1495.5v-25.8h26.9v25.8H1149.5z"/>
      <path class="st0" d="M1253.4,1585.4l-1.1-144.7h31.2l1.1,144.7H1253.4z"/>
      <path class="st0" d="M1334.5,1566l-0.2-65.5h30.9l0.9,63c-1.6,38.3-24.5,66.1-63.7,69.2c-9.1-10-10.9-13.1-20.9-23.8 C1304.4,1607.2,1334.5,1591.6,1334.5,1566z"/>
      <path class="st0" d="M1423.3,1585.4c-13.6,0-26.5-9.6-26.7-28.3l-0.9-116.4h30.9l0.7,106.9c0,6.2,3.1,9.1,7.3,10h25.2v27.8H1423.3 z"/>
      <path class="st0" d="M1651.9,1585.4c-10.2,0-17.1-5.8-21.4-10.7c-6,8.2-16.3,12-28.1,12.5c-9.4,0-20.9-1.8-29.8-12.7 c-6.7,8.7-16.7,12.2-28.5,12.7c-6.9,0-14.9-1.1-22.3-5.8v4h-66.3v-27.8h35.2l-0.4-50.5h31.4c0,18.7-0.2,21.1,0,32.7 c0.2,14,8.2,19.4,16.9,19.4c6.2,0,10-2.7,10-10.5c0-13.4-0.2-28.5-0.4-41.9h31.2c0.2,12.9,0.7,32.9,0.7,32.9 c0,14,8.2,19.4,16.9,19.4c6,0,9.8-2.7,9.8-10.5c0-21.1,0-23.2-0.4-48.1l31.4,0.2c0,18.9,0,25.2,0.2,36.7v0.2 c0.4,14,10.7,19.8,16,19.8h19.1v27.8H1651.9z"/>
      <path class="st0" d="M1738.5,1585.4c-23.6,0-45.2,0-69,0v-27.8h26c-1.6-4.9-2.2-10-2.2-15.4c0-24.7,15.4-43.4,45.2-43.4 c29.8,0,45.2,18.7,45.2,43.2C1783.7,1566.5,1768.4,1585.4,1738.5,1585.4z M1738.5,1523.1c-11.6,0-14.9,9.8-14.9,19.1 c0,8.9,3.3,18.7,14.9,18.7c11.4,0,14.9-9.8,14.9-18.7C1753.4,1532.9,1749.9,1523.1,1738.5,1523.1z"/>
    </g>
    <g>
      <path class="st1" d="M1150.9,1708.9c7.7-14.1,19.2-21.1,34.6-21.1c10.5,0,18.5,3.6,24.3,10.7c5.7,7.1,8.6,17.2,8.6,30.3v58.8 h-16.5v-58.1c0-18.4-6.9-27.7-20.7-27.7c-8.4,0-15.1,2.7-19.9,8.2c-4.9,5.4-7.4,13-7.7,22.8v54.9h-16.3v-58.1 c0-18.4-7-27.7-20.9-27.7c-8.4,0-15,2.8-19.8,8.4c-4.8,5.6-7.3,13.1-7.6,22.5v54.9h-16.5V1690h16.5v15.5 c7.7-11.8,18.4-17.6,32-17.6C1135.3,1687.8,1145.3,1694.9,1150.9,1708.9z"/>
      <path class="st1" d="M1315.8,1705v-15h16.3v97.5h-16.3v-14.2c-6.5,10.9-17.2,16.3-32,16.3c-12.2,0-22.1-4.6-29.7-13.8 c-7.6-9.2-11.4-21.4-11.4-36.7c0-15.4,3.8-27.8,11.4-37.2c7.6-9.4,17.5-14.2,29.7-14.2C1298.5,1687.8,1309.1,1693.6,1315.8,1705z M1259.7,1739.2c0,11.8,2.4,21,7.3,27.8c4.9,6.7,11.7,10.1,20.6,10.1c8.9,0,15.8-3.4,20.8-10.1c5-6.8,7.5-16,7.5-27.8 c0-11.8-2.5-21-7.5-27.8c-5-6.8-11.9-10.1-20.8-10.1c-8.6,0-15.4,3.3-20.4,10C1262.2,1718,1259.7,1727.3,1259.7,1739.2z"/>
      <path class="st1" d="M1422.8,1700.9l-9.4,10.7c-6.8-6.4-13.8-9.6-20.9-9.6c-5.7,0-10.3,1.4-13.8,4.2c-3.6,2.8-5.3,6.7-5.3,11.6 c0.4,7.3,7.9,12.4,22.4,15.5c20.3,5.2,30.5,14.4,30.5,27.7v0.4c0,9.3-3.2,16.4-9.5,21.4c-6.3,5-15.8,7.5-28.4,7.5 c-6.1,0-12.3-1.4-18.5-4.1c-6.2-2.8-11.3-6.5-15.2-11.3l12-10.2c5.8,8,13.2,12,22.2,12c7.5,0,12.8-0.8,15.9-2.5 c3-1.7,4.6-4.9,4.8-9.7c0-5.4-1.5-9.1-4.4-11.2c-2.9-2.1-8.1-4.1-15.7-6c-10.6-2.9-18.4-6.5-23.4-10.8c-5-4.3-7.6-10.3-7.7-18 c0-9.1,3.2-16.5,9.5-22c6.3-5.5,14.8-8.3,25.4-8.3C1403.6,1688.3,1413.5,1692.5,1422.8,1700.9z"/>
      <path class="st1" d="M1520.2,1705v-15h16.3v97.5h-16.3v-14.2c-6.5,10.9-17.2,16.3-32,16.3c-12.2,0-22.1-4.6-29.7-13.8 c-7.6-9.2-11.4-21.4-11.4-36.7c0-15.4,3.8-27.8,11.4-37.2c7.6-9.4,17.5-14.2,29.7-14.2C1502.9,1687.8,1513.5,1693.6,1520.2,1705z M1464.1,1739.2c0,11.8,2.4,21,7.3,27.8c4.9,6.7,11.7,10.1,20.6,10.1c8.9,0,15.8-3.4,20.8-10.1c5-6.8,7.5-16,7.5-27.8 c0-11.8-2.5-21-7.5-27.8c-5-6.8-11.9-10.1-20.8-10.1c-8.6,0-15.4,3.3-20.4,10C1466.6,1718,1464.1,1727.3,1464.1,1739.2z"/>
      <path class="st1" d="M1619.7,1690.8l-5.7,14.8c-4.2-2.5-7.8-3.7-10.9-3.7c-9.3,0-16.3,2.9-21.1,8.8c-4.8,5.9-7.3,14.4-7.6,25.6 v51.2h-16.5v-97.5h16.5v15.5c6.8-11.8,18.1-17.6,33.7-17.6C1612.2,1687.7,1616,1688.7,1619.7,1690.8z"/>
      <path class="st1" d="M1707.4,1705v-15h16.3v97.5h-16.3v-14.2c-6.5,10.9-17.2,16.3-32,16.3c-12.2,0-22.1-4.6-29.7-13.8 c-7.6-9.2-11.4-21.4-11.4-36.7c0-15.4,3.8-27.8,11.4-37.2c7.6-9.4,17.5-14.2,29.7-14.2C1690.1,1687.8,1700.8,1693.6,1707.4,1705z M1651.3,1739.2c0,11.8,2.4,21,7.3,27.8c4.9,6.7,11.7,10.1,20.6,10.1c8.9,0,15.8-3.4,20.8-10.1c5-6.8,7.5-16,7.5-27.8 c0-11.8-2.5-21-7.5-27.8c-5-6.8-11.9-10.1-20.8-10.1c-8.6,0-15.4,3.3-20.4,10C1653.8,1718,1651.3,1727.3,1651.3,1739.2z"/>
      <path class="st1" d="M1776.5,1651.7v38.5h13.5v12.4h-13.5v85.1h-16.3v-85.1h-13.5v-12.4h13.5v-38.5H1776.5z"/>
    </g>
    <polygon class="st2" points="1302.4,827.6 743.4,1442.8 798.1,1493.4 1357.1,878.1 &#9;"/>
    <polygon class="st2" points="946.2,848.8 806.4,1002.7 861.1,1053.2 1000.9,899.4 &#9;"/>
    <polygon class="st2" points="1283,1034 1143.3,1187.8 1198,1238.4 1337.8,1084.6 &#9;"/>
    <polygon class="st2" points="618.6,1394.8 478.8,1548.6 533.5,1599.2 673.3,1445.4 &#9;"/>
    <polygon class="st2" points="941.1,1409.9 661.6,1717.5 716.8,1768.5 996.3,1460.9 &#9;"/>
    <polygon class="st2" points="467.8,1188.1 607.5,1034.2 662.3,1084.8 522.5,1238.6 &#9;"/>
    <polygon class="st2" points="746.8,880.1 1026.3,572.5 1081.5,623.4 802,931.1 &#9;"/>
    <polygon class="st2" points="482.9,986.5 203.4,1294.2 258.6,1345.1 538.1,1037.5 &#9;"/>
    <polygon class="st2" points="1037.5,933.2 758,1240.9 813.2,1291.9 1092.7,984.2 &#9;"/>
    <polygon class="st2" points="666.3,1156 386.8,1463.6 442,1514.6 721.5,1206.9 &#9;"/>
  </g>
</svg>