<?xml version="1.0" encoding="utf-8"?>
<svg version="1.1" id="Layer_1" x="0px" y="0px" viewBox="0 105.634 2029.343 2112.676" style="enable-background:new 0 0 2000 2500;" xmlns="http://www.w3.org/2000/svg">
  <style type="text/css">
	.st0{fill:#4F45E4;}
</style>
  <g>
    <polygon class="st0" points="1905.2,578.7 936.1,1645.4 1030.9,1733 2000,666.4 &#9;"/>
    <polygon class="st0" points="1287.6,615.7 1045.4,882.2 1140.2,969.9 1382.6,703.3 &#9;"/>
    <polygon class="st0" points="1871.6,936.7 1629.4,1203.3 1724.2,1290.9 1966.5,1024.4 &#9;"/>
    <polygon class="st0" points="719.7,1562.1 477.5,1828.7 572.3,1916.4 814.5,1649.8 &#9;"/>
    <polygon class="st0" points="1278.9,1588.2 794.3,2121.5 889.9,2209.8 1374.6,1676.5 &#9;"/>
    <polygon class="st0" points="458.4,1203.6 700.7,937 795.5,1024.7 553.2,1291.3 &#9;"/>
    <polygon class="st0" points="942,669.8 1426.5,136.5 1522.2,225 1037.7,758.1 &#9;"/>
    <polygon class="st0" points="484.6,854.3 0,1387.6 95.7,1476 580.3,942.7 &#9;"/>
    <polygon class="st0" points="1446.1,761.9 961.4,1295.2 1057.1,1383.5 1541.7,850.4 &#9;"/>
    <polygon class="st0" points="802.5,1148.1 318,1681.3 413.7,1769.6 898.1,1236.5 &#9;"/>
  </g>
</svg>