<?xml version="1.0" encoding="utf-8"?>
<svg version="1.1" id="Layer_1" x="0px" y="0px" viewBox="422.535 572.183 1286.972 1235.329" style="enable-background:new 0 0 2000 2500;" xmlns="http://www.w3.org/2000/svg">
  <style type="text/css">
	.st0{fill:#000247;stroke:#000247;stroke-width:0.75;stroke-miterlimit:10;}
	.st1{fill:#000247;stroke:#000247;stroke-width:2;stroke-miterlimit:10;}
	.st2{fill:#4F45E4;}
</style>
  <g>
    <path class="st0" d="M592,1555.8h-80.6c-61.2,0-74.9-54.7-74.9-98.8h35.8c0,35.8,9.6,66.4,40.7,66.4h65.6c3.9,0,6.2-2.1,6.2-9.3 c-0.5-24.4-0.8-28.3-1.3-57h36.3c0.5,27.2,0.5,47.4,0.5,71C620.2,1547.8,607,1555.8,592,1555.8z M491.1,1451.1V1421h31.1v30.1 H491.1z M534.9,1451.1V1421h31.4v30.1H534.9z"/>
    <path class="st0" d="M656,1555.8l-1.3-168.5H691l1.3,168.5H656z"/>
    <path class="st0" d="M750.3,1533.2l-0.3-76.2h36l1,73.4c-1.8,44.6-28.5,77-74.1,80.6c-10.6-11.7-12.7-15.3-24.4-27.7 C715.3,1581.2,750.3,1563.1,750.3,1533.2z"/>
    <path class="st0" d="M853.7,1555.8c-15.8,0-30.8-11.1-31.1-32.9l-1-135.6h36l0.8,124.4c0,7.3,3.6,10.6,8.6,11.7h29.3v32.4H853.7z"/>
    <path class="st0" d="M1119.9,1555.8c-11.9,0-20-6.7-24.9-12.4c-7,9.6-18.9,14-32.7,14.5c-10.9,0-24.4-2.1-34.7-14.8 c-7.8,10.1-19.4,14.3-33.2,14.8c-8,0-17.4-1.3-25.9-6.7v4.7h-77.2v-32.4h41l-0.5-58.8h36.5c0,21.8-0.3,24.6,0,38.1 c0.3,16.3,9.6,22.5,19.7,22.5c7.3,0,11.7-3.1,11.7-12.2c0-15.6-0.3-33.2-0.5-48.7h36.3c0.3,15,0.8,38.4,0.8,38.4 c0,16.3,9.6,22.5,19.7,22.5c7,0,11.4-3.1,11.4-12.2c0-24.6,0-27-0.5-56l36.5,0.3c0,22,0,29.3,0.3,42.8v0.3 c0.5,16.3,12.4,23.1,18.7,23.1h22.3v32.4H1119.9z"/>
    <path class="st0" d="M1220.8,1555.8c-27.5,0-52.6,0-80.4,0v-32.4h30.3c-1.8-5.7-2.6-11.7-2.6-17.9c0-28.8,17.9-50.5,52.6-50.5 s52.6,21.8,52.6,50.3C1273.4,1533.8,1255.5,1555.8,1220.8,1555.8z M1220.8,1483.2c-13.5,0-17.4,11.4-17.4,22.3 c0,10.4,3.9,21.8,17.4,21.8c13.2,0,17.4-11.4,17.4-21.8C1238.1,1494.6,1234,1483.2,1220.8,1483.2z"/>
  </g>
  <g>
    <path class="st1" d="M536.6,1699.6c9-16.4,22.4-24.6,40.3-24.6c12.2,0,21.6,4.1,28.3,12.4c6.7,8.3,10,20,10,35.2v68.4h-19.3v-67.7 c0-21.5-8-32.2-24.1-32.2c-9.8,0-17.5,3.2-23.2,9.5c-5.7,6.3-8.7,15.2-9,26.5v63.9h-19v-67.7c0-21.5-8.1-32.2-24.3-32.2 c-9.8,0-17.5,3.3-23.1,9.8c-5.6,6.5-8.5,15.3-8.9,26.2v63.9H445v-113.6h19.3v18c9-13.7,21.4-20.5,37.3-20.5 C518.5,1675,530.1,1683.2,536.6,1699.6z"/>
    <path class="st1" d="M728.6,1695.1v-17.5h19v113.6h-19v-16.5c-7.6,12.7-20,19-37.3,19c-14.2,0-25.7-5.4-34.6-16.1 c-8.9-10.7-13.3-25-13.3-42.7c0-17.9,4.4-32.4,13.3-43.3c8.9-11,20.4-16.5,34.6-16.5C708.4,1675,720.8,1681.7,728.6,1695.1z M663.2,1734.9c0,13.7,2.8,24.5,8.5,32.3c5.7,7.9,13.6,11.8,24,11.8c10.3,0,18.4-3.9,24.2-11.8s8.7-18.6,8.7-32.3 c0-13.7-2.9-24.5-8.7-32.3s-13.9-11.8-24.2-11.8c-10,0-17.9,3.9-23.7,11.7C666.1,1710.2,663.2,1721,663.2,1734.9z"/>
    <path class="st1" d="M853.1,1690.2l-10.9,12.4c-7.9-7.4-16.1-11.2-24.3-11.2c-6.6,0-12,1.6-16.1,4.9c-4.1,3.3-6.2,7.8-6.2,13.6 c0.5,8.5,9.2,14.5,26.1,18c23.7,6.1,35.5,16.8,35.5,32.2v0.5c0,10.8-3.7,19.1-11,25c-7.4,5.8-18.4,8.7-33.1,8.7 c-7.1,0-14.3-1.6-21.5-4.8c-7.3-3.2-13.2-7.6-17.7-13.2l13.9-11.9c6.8,9.3,15.4,13.9,25.9,13.9c8.8,0,15-1,18.5-2.9 c3.5-1.9,5.4-5.7,5.6-11.3c0-6.3-1.7-10.6-5.1-13.1c-3.4-2.5-9.5-4.8-18.3-7c-12.3-3.4-21.4-7.6-27.3-12.5c-5.8-5-8.8-12-9-20.9 c0-10.6,3.7-19.2,11-25.6c7.4-6.4,17.2-9.6,29.5-9.6C830.8,1675.5,842.3,1680.4,853.1,1690.2z"/>
    <path class="st1" d="M966.6,1695.1v-17.5h19v113.6h-19v-16.5c-7.6,12.7-20,19-37.3,19c-14.2,0-25.7-5.4-34.6-16.1 c-8.9-10.7-13.3-25-13.3-42.7c0-17.9,4.4-32.4,13.3-43.3c8.9-11,20.4-16.5,34.6-16.5C946.4,1675,958.8,1681.7,966.6,1695.1z M901.2,1734.9c0,13.7,2.8,24.5,8.5,32.3c5.7,7.9,13.6,11.8,24,11.8c10.3,0,18.4-3.9,24.2-11.8s8.7-18.6,8.7-32.3 c0-13.7-2.9-24.5-8.7-32.3s-13.9-11.8-24.2-11.8c-10,0-17.9,3.9-23.7,11.7C904.1,1710.2,901.2,1721,901.2,1734.9z"/>
    <path class="st1" d="M1082.4,1678.5l-6.6,17.2c-4.9-2.9-9.1-4.3-12.7-4.3c-10.8,0-19,3.4-24.6,10.3c-5.6,6.8-8.5,16.8-8.9,29.8 v59.6h-19.3v-113.6h19.3v18c7.9-13.7,21-20.5,39.3-20.5C1073.7,1674.9,1078.1,1676.1,1082.4,1678.5z"/>
    <path class="st1" d="M1184.6,1695.1v-17.5h19v113.6h-19v-16.5c-7.6,12.7-20,19-37.3,19c-14.2,0-25.7-5.4-34.6-16.1 c-8.9-10.7-13.3-25-13.3-42.7c0-17.9,4.4-32.4,13.3-43.3c8.9-11,20.4-16.5,34.6-16.5C1164.4,1675,1176.8,1681.7,1184.6,1695.1z M1119.2,1734.9c0,13.7,2.8,24.5,8.5,32.3c5.7,7.9,13.6,11.8,24,11.8c10.3,0,18.4-3.9,24.2-11.8c5.8-7.9,8.7-18.6,8.7-32.3 c0-13.7-2.9-24.5-8.7-32.3c-5.8-7.9-13.9-11.8-24.2-11.8c-10,0-17.9,3.9-23.7,11.7C1122.1,1710.2,1119.2,1721,1119.2,1734.9z"/>
    <path class="st1" d="M1265,1633v44.9h15.7v14.5H1265v99.1h-19v-99.1h-15.7v-14.5h15.7V1633H1265z"/>
  </g>
  <g>
    <polygon class="st2" points="1660.1,743.4 1288.1,1152.9 1324.5,1186.6 1696.6,777.1 &#9;"/>
    <polygon class="st2" points="1423,757.6 1330,860 1366.5,893.6 1459.5,791.3 &#9;"/>
    <polygon class="st2" points="1647.3,880.9 1554.2,983.2 1590.7,1016.9 1683.7,914.5 &#9;"/>
    <polygon class="st2" points="1205,1121 1112,1223.4 1148.4,1257 1241.4,1154.6 &#9;"/>
    <polygon class="st2" points="1419.7,1131 1233.6,1335.8 1270.4,1369.7 1456.4,1165 &#9;"/>
    <polygon class="st2" points="1104.7,983.4 1197.7,881 1234.1,914.7 1141.1,1017 &#9;"/>
    <polygon class="st2" points="1290.3,778.4 1476.4,573.7 1513.1,607.6 1327.1,812.3 &#9;"/>
    <polygon class="st2" points="1114.7,849.2 928.7,1054 965.4,1087.9 1151.4,883.2 &#9;"/>
    <polygon class="st2" points="1483.8,813.8 1297.8,1018.5 1334.5,1052.5 1520.6,847.7 &#9;"/>
    <polygon class="st2" points="1236.8,962 1050.7,1166.8 1087.5,1200.7 1273.5,996 &#9;"/>
  </g>
</svg>